<?xml version="1.0" encoding="UTF-8" standalone="no"?>
<!DOCTYPE svg PUBLIC "-//W3C//DTD SVG 1.1//EN" "http://www.w3.org/Graphics/SVG/1.1/DTD/svg11.dtd">
<svg width="100%" height="100%" viewBox="0 0 500 500" version="1.1" xmlns="http://www.w3.org/2000/svg" xmlns:xlink="http://www.w3.org/1999/xlink" xml:space="preserve" xmlns:serif="http://www.serif.com/" style="fill-rule:evenodd;clip-rule:evenodd;stroke-linejoin:round;stroke-miterlimit:2;">
    <g transform="matrix(1.77469,0,0,1.77469,-9.64987,211.554)">
        <g id="path14" transform="matrix(0.133333,0,0,-0.133333,0,491.08)">
            <path d="M2153.83,2882.89C2153.83,2651.61 1680.8,2464.1 1097.3,2464.1C513.789,2464.1 40.781,2651.61 40.781,2882.89C40.781,3114.21 513.789,3301.7 1097.3,3301.7C1680.8,3301.7 2153.83,3114.21 2153.83,2882.89" style="fill:rgb(210,212,209);fill-rule:nonzero;"/>
        </g>
        <g id="path16" transform="matrix(0.133333,0,0,-0.133333,0,491.08)">
            <path d="M2153.83,2903.95C2153.83,2672.65 1680.8,2485.15 1097.3,2485.15C513.789,2485.15 40.781,2672.65 40.781,2903.95C40.781,3135.24 513.789,3322.75 1097.3,3322.75C1680.8,3322.75 2153.83,3135.24 2153.83,2903.95" style="fill:rgb(241,241,239);fill-rule:nonzero;"/>
        </g>
        <g id="path18" transform="matrix(0.133333,0,0,-0.133333,0,491.08)">
            <path d="M1817.85,2947.09C1817.85,2789.33 1495.27,2661.47 1097.3,2661.47C699.336,2661.47 376.738,2789.33 376.738,2947.09C376.738,3104.85 699.336,3232.73 1097.3,3232.73C1495.27,3232.73 1817.85,3104.85 1817.85,2947.09" style="fill:rgb(230,229,227);fill-rule:nonzero;"/>
        </g>
        <g id="path20" transform="matrix(0.133333,0,0,-0.133333,0,491.08)">
            <path d="M1792.81,2941.85C1792.81,2792.18 1481.43,2670.84 1097.3,2670.84C713.184,2670.84 401.777,2792.18 401.777,2941.85C401.777,3091.53 713.184,3212.86 1097.3,3212.86C1481.43,3212.86 1792.81,3091.53 1792.81,2941.85" style="fill:rgb(241,241,239);fill-rule:nonzero;"/>
        </g>
        <g id="path26" transform="matrix(0.133333,0,0,-0.133333,0,491.08)">
            <path d="M1055.02,2680.7C979.344,2680.7 959.809,2737.37 956.117,2751.48C964.617,2730.14 988.754,2691.1 1051.53,2691.1C1052.08,2691.1 1052.61,2691.1 1053.16,2691.11C1137.71,2692 1155.53,2754.86 1152.1,2784.76C1152.1,2786.48 1151.95,2788.22 1151.65,2789.99C1151.91,2789.46 1152.16,2788.93 1152.4,2788.39C1154.47,2783.69 1155.47,2779.11 1155.53,2774.69C1159.12,2744.91 1141.46,2681.61 1056.62,2680.71C1056.08,2680.7 1055.55,2680.7 1055.02,2680.7" style="fill:rgb(199,200,198);fill-rule:nonzero;"/>
        </g>
        <g id="path28" transform="matrix(0.133333,0,0,-0.133333,0,491.08)">
            <path d="M1245.04,2664.75C1238.86,2664.75 1233.13,2665.24 1227.82,2666.14C1247.94,2667.6 1267.79,2669.39 1287.29,2671.5C1286.16,2671.08 1285.02,2670.66 1283.87,2670.27C1269.28,2666.41 1256.4,2664.75 1245.04,2664.75" style="fill:rgb(199,200,198);fill-rule:nonzero;"/>
        </g>
        <g id="path30" transform="matrix(0.133333,0,0,-0.133333,0,491.08)">
            <path d="M1227.82,2666.14C1218.63,2667.69 1210.69,2670.46 1203.83,2674C1212.57,2674.53 1221.24,2675.11 1229.88,2675.76C1233.58,2675.36 1237.47,2675.14 1241.56,2675.14C1252.37,2675.14 1264.54,2676.64 1278.26,2680.11C1289.62,2681.3 1300.86,2682.6 1311.99,2684C1304.56,2679.12 1296.31,2674.89 1287.29,2671.5C1267.79,2669.39 1247.94,2667.6 1227.82,2666.14" style="fill:rgb(191,191,189);fill-rule:nonzero;"/>
        </g>
        <g id="path32" transform="matrix(0.133333,0,0,-0.133333,0,491.08)">
            <path d="M1203.83,2674C1174.96,2688.92 1165.3,2717.57 1162.81,2727.14C1169.9,2709.49 1187.86,2680.37 1229.88,2675.76C1221.24,2675.11 1212.57,2674.53 1203.83,2674M1278.26,2680.11C1278.96,2680.29 1279.68,2680.47 1280.39,2680.66C1335.81,2699.75 1363.68,2750.09 1352.58,2791.75C1352.92,2790.57 1353.2,2789.37 1353.44,2788.16L1353.73,2788.51C1367.35,2753.21 1350.92,2709.59 1311.99,2684C1300.86,2682.6 1289.62,2681.3 1278.26,2680.11" style="fill:rgb(199,200,198);fill-rule:nonzero;"/>
        </g>
        <g id="path34" transform="matrix(0.133333,0,0,-0.133333,0,491.08)">
            <path d="M786.742,2708.63C785.688,2708.63 784.625,2708.67 783.555,2708.74C759.57,2710.46 741.523,2731.32 743.262,2755.3C744.902,2778.23 764.016,2795.73 786.633,2795.73C787.688,2795.73 788.754,2795.69 789.824,2795.61C813.809,2793.89 831.855,2773.03 830.137,2749.06C828.477,2726.13 809.359,2708.63 786.742,2708.63" style="fill:rgb(199,200,198);fill-rule:nonzero;"/>
        </g>
        <g id="path36" transform="matrix(0.133333,0,0,-0.133333,0,491.08)">
            <path d="M906.398,2679.24C905.34,2679.24 904.273,2679.28 903.203,2679.36C897.715,2679.75 892.535,2681.15 887.836,2683.35C896.965,2682.23 906.188,2681.18 915.473,2680.2C912.539,2679.57 909.5,2679.24 906.398,2679.24" style="fill:rgb(191,191,189);fill-rule:nonzero;"/>
        </g>
        <g id="path38" transform="matrix(0.133333,0,0,-0.133333,0,491.08)">
            <path d="M915.473,2680.2C906.188,2681.18 896.965,2682.23 887.836,2683.35C871.984,2690.79 861.566,2707.43 862.891,2725.93C863.418,2733.03 865.645,2739.61 869.102,2745.33C868.074,2745.26 867.043,2745.22 866.004,2745.22C865.359,2745.22 864.715,2745.24 864.063,2745.27C840.02,2746.52 821.563,2767.01 822.813,2791.02C823.031,2795.25 823.852,2799.31 825.18,2803.13C850.035,2804.32 876.68,2805.65 905.828,2807.08C908.719,2800.85 910.18,2793.84 909.805,2786.51C909.414,2779.07 907.168,2772.17 903.555,2766.21C904.676,2766.28 905.801,2766.33 906.934,2766.33C907.777,2766.33 908.621,2766.3 909.473,2766.24C933.457,2764.51 951.504,2743.66 949.785,2719.66C948.352,2699.88 933.941,2684.14 915.473,2680.2" style="fill:rgb(199,200,198);fill-rule:nonzero;"/>
        </g>
        <g id="path40" transform="matrix(0.133333,0,0,-0.133333,0,491.08)">
            <path d="M1661.46,3124.8C1657.7,3126.68 1653.88,3128.53 1650.01,3130.36C1648.93,3132.14 1647.89,3133.86 1646.9,3135.52C1657.38,3161.23 1667.77,3184.82 1677.7,3203.68C1680.2,3203 1682.68,3202.31 1685.16,3201.62C1688.88,3200.58 1692.59,3199.52 1696.28,3198.46C1685.21,3179.57 1673.42,3153.72 1661.46,3124.8M1700.27,3205.01C1694,3206.82 1687.68,3208.6 1681.29,3210.35C1683.01,3213.45 1684.71,3216.39 1686.4,3219.17C1693.04,3217.36 1699.61,3215.52 1706.15,3213.64C1704.22,3211.03 1702.25,3208.14 1700.27,3205.01M1717.32,3225.85C1710.01,3227.98 1702.55,3230.09 1695.09,3232.15C1698.55,3236.73 1701.91,3240.43 1705.15,3243.1C1707.27,3242.88 1709.4,3242.55 1711.54,3242.08C1720.18,3240.18 1728.71,3237.73 1737.17,3235.08C1732.42,3233.02 1727.81,3231.16 1723.63,3229.6C1721.59,3228.84 1719.48,3227.57 1717.32,3225.85" style="fill:rgb(199,200,198);fill-rule:nonzero;"/>
        </g>
        <g id="path42" transform="matrix(0.133333,0,0,-0.133333,0,491.08)">
            <path d="M1673.26,3093.82C1672.8,3094.08 1672.33,3094.36 1671.86,3094.62C1666.55,3103.21 1661.53,3111.41 1656.95,3118.92C1654.5,3122.95 1652.18,3126.78 1650.01,3130.36C1653.88,3128.53 1657.7,3126.68 1661.46,3124.8C1660.52,3122.53 1659.58,3120.23 1658.63,3117.91L1659.38,3116.66L1659.69,3116.17C1660.37,3115.02 1661.07,3113.86 1661.8,3112.68L1662.11,3112.16C1662.81,3110.99 1663.53,3109.8 1664.26,3108.58L1664.71,3107.88C1665.43,3106.68 1666.17,3105.45 1666.93,3104.2L1667.4,3103.43C1669.28,3100.34 1671.24,3097.13 1673.26,3093.82" style="fill:rgb(191,191,189);fill-rule:nonzero;"/>
        </g>
        <g id="path44" transform="matrix(0.133333,0,0,-0.133333,0,491.08)">
            <path d="M1360.05,2796.39C1357.05,2796.39 1354.08,2796.41 1351.14,2796.45C1350.86,2797.27 1350.57,2798.08 1350.25,2798.89C1350.17,2798.78 1350.09,2798.68 1350,2798.57C1349.32,2802.12 1348.16,2805.54 1346.48,2808.77C1345.53,2810.61 1344.47,2812.35 1343.3,2814C1344.96,2813.98 1346.62,2813.97 1348.3,2813.97C1352.6,2813.97 1356.97,2814.02 1361.4,2814.11C1501.05,2816.92 1699.3,2863.39 1739.46,2906.48C1739.47,2906.49 1739.48,2906.5 1739.49,2906.52C1739.56,2906.59 1739.63,2906.66 1739.7,2906.73C1739.79,2906.84 1739.88,2906.94 1739.98,2907.04C1740.04,2907.12 1740.11,2907.19 1740.18,2907.27C1740.29,2907.4 1740.4,2907.52 1740.51,2907.65C1740.53,2907.67 1740.55,2907.69 1740.56,2907.71C1740.74,2907.92 1740.92,2908.13 1741.09,2908.34C1741.15,2908.4 1741.21,2908.47 1741.26,2908.54C1760.58,2931.96 1762.55,2948.55 1755.04,2966.36L1755.04,2966.37C1755.01,2966.43 1754.98,2966.49 1754.96,2966.55C1754.94,2966.6 1754.92,2966.65 1754.89,2966.7C1754.89,2966.71 1754.89,2966.71 1754.88,2966.72C1753.4,2970.19 1751.56,2973.7 1749.42,2977.31C1752.73,2972.68 1755.76,2968.31 1758.44,2964.1L1758.85,2963.49L1760.1,2961.48L1760.63,2960.59C1761.27,2959.52 1761.87,2958.47 1762.46,2957.43L1763.11,2956.27L1763.98,2954.61L1764.65,2953.3L1765.78,2950.94L1766.5,2949.36L1767.11,2947.89L1767.7,2946.38L1768.28,2944.79L1768.98,2942.58L1769.34,2941.29L1769.75,2939.61L1770.02,2938.42L1770.43,2935.86L1770.59,2934.68L1770.74,2932.86L1770.8,2931.74L1770.8,2929.07L1770.74,2928L1770.57,2926.01L1770.45,2924.93C1770.31,2924.02 1770.16,2923.08 1769.96,2922.13L1769.73,2921.18L1769.18,2918.95L1768.89,2917.93C1768.57,2916.94 1768.22,2915.94 1767.85,2914.92L1767.5,2914.11L1766.45,2911.6L1765.98,2910.59C1765.47,2909.53 1764.92,2908.45 1764.34,2907.35L1763.98,2906.71C1763.46,2905.77 1762.87,2904.8 1762.31,2903.83L1761.68,2902.84C1760.94,2901.68 1760.18,2900.51 1759.35,2899.31L1759.1,2898.96C1758.32,2897.86 1757.5,2896.71 1756.64,2895.58L1755.88,2894.57C1754.9,2893.32 1753.91,2892.04 1752.81,2890.74C1715.61,2845.78 1502.01,2796.39 1360.05,2796.39M626.453,2796.52C583.285,2796.52 560.406,2801.27 548.672,2805.37C547.73,2805.34 546.805,2805.33 545.895,2805.33C536.223,2805.33 528.23,2806.73 518.965,2808.05C496.27,2811.29 472.48,2818.32 469.766,2828.59C469.766,2828.59 469.023,2831.23 468.582,2836.14C478.199,2831.23 492.934,2827.69 507.246,2825.65C516.504,2824.33 524.496,2822.91 534.168,2822.91C535.07,2822.91 535.992,2822.93 536.93,2822.95C548.656,2818.86 571.539,2814.13 614.641,2814.12L614.684,2814.12C616.723,2814.12 618.789,2814.13 620.918,2814.15C688.219,2814.82 752.195,2817.71 838.066,2821.92C832.262,2816.97 827.758,2810.52 825.18,2803.13C751.371,2799.57 693.371,2797.16 632.656,2796.55C630.543,2796.54 628.477,2796.52 626.453,2796.52M905.828,2807.08C902.57,2814.09 897.492,2820.13 891.168,2824.53C892.664,2824.6 894.156,2824.68 895.664,2824.75C938.848,2826.86 972.082,2833 996.887,2841.14C1000.7,2841.19 1004.44,2841.21 1008.09,2841.21C1026.44,2841.21 1042.88,2840.68 1057.99,2840.16C1073.11,2839.64 1086.9,2839.12 1099.97,2839.12C1123.51,2839.12 1144.69,2840.82 1166.98,2847.27C1184.54,2839.13 1205.65,2831.93 1230.42,2826.31C1223.78,2823.51 1217.46,2820.4 1211.5,2817.04C1199.45,2820.89 1188.53,2825.15 1178.71,2829.7C1160.1,2824.31 1142.26,2822.23 1123.17,2821.68C1111.09,2826.64 1096.2,2828.94 1080.32,2828.94C1068.97,2828.94 1057.12,2827.77 1045.45,2825.55C1042.09,2824.91 1038.77,2824.22 1035.49,2823.48C1030.42,2823.55 1025.21,2823.6 1019.83,2823.6C1016.15,2823.6 1012.39,2823.57 1008.55,2823.53C983.73,2815.4 950.547,2809.26 907.383,2807.15C906.863,2807.13 906.344,2807.1 905.828,2807.08M1719.09,3020.91C1716.73,3024.32 1714.32,3027.86 1711.89,3031.55C1698.45,3052.02 1684.36,3074.39 1671.86,3094.62C1672.33,3094.36 1672.8,3094.08 1673.26,3093.82C1686.68,3071.87 1703.16,3045.4 1719.09,3020.91" style="fill:rgb(199,200,198);fill-rule:nonzero;"/>
        </g>
        <g id="path46" transform="matrix(0.133333,0,0,-0.133333,0,491.08)">
            <path d="M1706.15,3213.64C1699.61,3215.52 1692.5,3216.55 1685.86,3218.36C1688.82,3223.23 1692.66,3228.91 1695.49,3232.67C1702.95,3230.61 1710.01,3227.98 1717.32,3225.85C1713.73,3222.98 1710,3218.86 1706.15,3213.64" style="fill:rgb(199,200,198);fill-rule:nonzero;"/>
        </g>
        <g id="path48" transform="matrix(0.133333,0,0,-0.133333,0,491.08)">
            <path d="M1696.28,3198.46C1690.13,3200.23 1683.49,3201.11 1677.24,3202.82C1678.44,3205.11 1680.51,3208.96 1681.7,3211.11C1688.09,3209.36 1694,3206.82 1700.27,3205.01C1698.95,3202.93 1697.62,3200.75 1696.28,3198.46" style="fill:rgb(199,200,198);fill-rule:nonzero;"/>
        </g>
        <g id="path50" transform="matrix(0.133333,0,0,-0.133333,0,491.08)">
            <path d="M825.18,2803.13C827.758,2810.52 832.262,2816.97 838.066,2821.92C854.863,2822.74 872.508,2823.61 891.168,2824.53C897.492,2820.13 902.57,2814.09 905.828,2807.08C876.68,2805.65 850.035,2804.32 825.18,2803.13" style="fill:rgb(166,169,167);fill-rule:nonzero;"/>
        </g>
        <g id="path52" transform="matrix(0.133333,0,0,-0.133333,0,491.08)">
            <path d="M1664.75,3452.97C1664.75,3452.97 1712.13,3464.44 1731.23,3465.97C1750.35,3467.5 1761.04,3520.99 1785.51,3524.81C1809.96,3528.64 1830.59,3498.82 1820.66,3480.48C1810.72,3462.14 1813.77,3450.68 1822.19,3436.93C1830.59,3423.18 1834.41,3409.42 1822.19,3394.13C1809.96,3378.84 1732.75,3357.45 1732.75,3357.45L1670.1,3381.14C1670.1,3381.14 1649.45,3429.28 1664.75,3452.97" style="fill:rgb(202,182,152);fill-rule:nonzero;"/>
        </g>
        <g id="path54" transform="matrix(0.133333,0,0,-0.133333,0,491.08)">
            <path d="M1672.98,3454.91L1672.97,3454.91C1675.19,3455.43 1677.76,3456.02 1680.59,3456.64C1677.77,3456.01 1675.19,3455.42 1672.98,3454.91" style="fill:rgb(202,182,152);fill-rule:nonzero;"/>
        </g>
        <g id="path56" transform="matrix(0.133333,0,0,-0.133333,0,491.08)">
            <path d="M1769.31,3381.5C1769.03,3388.17 1765.85,3392.67 1761.8,3396.73C1758.63,3399.89 1755.89,3401.66 1751.81,3401.66C1747.86,3401.66 1742.66,3400 1734.61,3396.36C1734.61,3396.36 1721.57,3393.7 1693.72,3389.38C1692.35,3394.65 1688.94,3400.23 1682.71,3404.47C1675.94,3409.09 1673.2,3415.47 1673.21,3422.3C1673.21,3427.46 1674.76,3432.87 1677.32,3437.98C1677.33,3438 1677.34,3438.02 1677.35,3438.04C1677.36,3438.05 1677.37,3438.07 1677.37,3438.08C1677.37,3438.09 1677.38,3438.09 1677.38,3438.1C1679.64,3442.79 1677.33,3448.98 1672.98,3454.91C1675.19,3455.42 1677.77,3456.01 1680.59,3456.64C1681.15,3454.16 1682.11,3451.55 1683.36,3448.82C1686.7,3441.61 1693.11,3433.71 1688.81,3425.62C1686.19,3420.7 1689.28,3414.62 1691.99,3410.51C1696.7,3403.37 1702.94,3401.07 1709.75,3401.07C1720.36,3401.07 1732.36,3406.66 1742.11,3408.21C1742.74,3408.31 1743.39,3408.36 1744.07,3408.36C1748.74,3408.36 1754.56,3406.16 1760.52,3403.96C1766.48,3401.77 1772.57,3399.57 1777.78,3399.57C1781.03,3399.57 1783.95,3400.43 1786.27,3402.67C1795.64,3411.71 1789.59,3424.55 1786.78,3435.35C1779.2,3464.61 1807.68,3473.64 1822.89,3491.42L1823.18,3491.8C1823.27,3489.33 1822.99,3486.9 1822.32,3484.58C1822.91,3486.64 1823.18,3488.78 1823.18,3490.97C1820.29,3481.35 1816.02,3471.45 1809.96,3466.73C1796.21,3456.03 1789.32,3439.22 1795.43,3425.46C1798.85,3417.78 1807.27,3412.47 1810.17,3403.56C1796.35,3395.14 1780.66,3387.07 1769.31,3381.5M1822.31,3484.52C1822.31,3484.54 1822.31,3484.55 1822.32,3484.56C1822.31,3484.55 1822.31,3484.54 1822.31,3484.52" style="fill:rgb(160,132,97);fill-rule:nonzero;"/>
        </g>
        <g id="path58" transform="matrix(0.133333,0,0,-0.133333,0,491.08)">
            <path d="M1820.66,3480.48C1821.36,3481.78 1821.9,3483.13 1822.31,3484.52C1821.91,3483.13 1821.36,3481.78 1820.66,3480.48M1822.32,3484.56L1822.32,3484.58L1822.32,3484.56" style="fill:rgb(151,127,93);fill-rule:nonzero;"/>
        </g>
        <g id="path60" transform="matrix(0.133333,0,0,-0.133333,0,491.08)">
            <path d="M1810.17,3403.56C1807.27,3412.47 1798.85,3417.78 1795.43,3425.46C1789.32,3439.22 1796.21,3456.03 1809.96,3466.73C1816.02,3471.45 1820.29,3481.35 1823.18,3490.97C1823.18,3488.78 1822.91,3486.64 1822.32,3484.58L1822.32,3484.56C1822.31,3484.55 1822.31,3484.54 1822.31,3484.52C1821.9,3483.13 1821.36,3481.78 1820.66,3480.48C1816.31,3472.46 1814.45,3465.75 1814.44,3459.59C1814.42,3451.68 1817.45,3444.66 1822.19,3436.93C1826.19,3430.37 1829.16,3423.81 1829.84,3417.09C1824.46,3412.7 1817.59,3408.08 1810.17,3403.56" style="fill:rgb(123,93,61);fill-rule:nonzero;"/>
        </g>
        <g id="path62" transform="matrix(0.133333,0,0,-0.133333,0,491.08)">
            <path d="M1753.59,3374.04C1753.59,3374.04 1817.52,3402.91 1836.09,3422.84C1854.65,3442.77 1857.38,3466.14 1880.76,3471.64C1904.12,3477.14 1919.94,3443.46 1909.63,3430.39C1899.32,3417.34 1895.9,3395.35 1900.7,3373.34C1905.51,3351.36 1906.21,3330.04 1886.27,3314.93C1866.35,3299.8 1859.45,3311.48 1838.14,3314.93C1816.84,3318.36 1809.96,3319.05 1770.1,3293.62C1770.1,3293.62 1746.72,3345.17 1753.59,3374.04" style="fill:rgb(222,204,174);fill-rule:nonzero;"/>
        </g>
        <g id="path64" transform="matrix(0.133333,0,0,-0.133333,0,491.08)">
            <path d="M1886.21,3314.88C1886.22,3314.89 1886.23,3314.89 1886.24,3314.9C1886.25,3314.91 1886.26,3314.92 1886.27,3314.93C1899.32,3324.82 1903.53,3337.36 1903.53,3351.01C1903.53,3337.36 1899.32,3324.82 1886.27,3314.93L1886.21,3314.88" style="fill:rgb(222,204,174);fill-rule:nonzero;"/>
        </g>
        <g id="path66" transform="matrix(0.133333,0,0,-0.133333,0,491.08)">
            <path d="M1886.24,3314.9C1899.87,3326.75 1888.73,3339.28 1891.05,3350.96C1894.3,3367.18 1872.42,3375.29 1870.8,3392.31C1869.18,3409.33 1878.89,3423.92 1900.78,3433.65C1906.33,3436.12 1910.16,3439.31 1912.77,3442.71C1913.09,3437.96 1912.13,3433.57 1909.63,3430.39C1902.42,3421.27 1898.58,3407.77 1898.56,3392.95C1898.56,3386.58 1899.26,3379.96 1900.7,3373.34C1902.36,3365.74 1903.53,3358.22 1903.53,3351.01C1903.53,3337.36 1899.32,3324.82 1886.27,3314.93C1886.26,3314.92 1886.25,3314.91 1886.24,3314.9" style="fill:rgb(195,165,124);fill-rule:nonzero;"/>
        </g>
        <g id="path68" transform="matrix(0.133333,0,0,-0.133333,0,491.08)">
            <path d="M1424.92,3437.43C1424.92,3437.43 1453.55,3442.3 1507.07,3443.91C1560.57,3445.54 1591.93,3447.16 1611.39,3456.35C1630.84,3465.54 1635.7,3476.89 1647.58,3474.18C1659.49,3471.49 1683.26,3449.87 1677.32,3437.98C1671.37,3426.08 1670.84,3412.57 1682.71,3404.47C1694.61,3396.36 1696.23,3383.39 1692.99,3376.91C1689.75,3370.41 1515.72,3342.32 1515.72,3342.32L1424.92,3437.43" style="fill:rgb(190,81,30);fill-rule:nonzero;"/>
        </g>
        <g id="path70" transform="matrix(0.133333,0,0,-0.133333,0,491.08)">
            <path d="M1673.21,3422.3C1673.21,3427.46 1674.76,3432.87 1677.32,3437.98C1677.33,3438 1677.34,3438.02 1677.35,3438.04C1677.34,3438.02 1677.33,3438 1677.32,3437.98C1674.76,3432.87 1673.21,3427.46 1673.21,3422.3" style="fill:rgb(139,83,54);fill-rule:nonzero;"/>
        </g>
        <g id="path72" transform="matrix(0.133333,0,0,-0.133333,0,491.08)">
            <path d="M1443.02,3439.76C1444.78,3439.95 1446.66,3440.15 1448.67,3440.34L1448.68,3440.34C1446.67,3440.14 1444.78,3439.95 1443.02,3439.76" style="fill:rgb(218,155,120);fill-rule:nonzero;"/>
        </g>
        <g id="path74" transform="matrix(0.133333,0,0,-0.133333,0,491.08)">
            <path d="M1677.37,3438.08C1677.37,3438.09 1677.38,3438.09 1677.38,3438.1C1677.38,3438.09 1677.37,3438.09 1677.37,3438.08" style="fill:rgb(139,83,54);fill-rule:nonzero;"/>
        </g>
        <g id="path76" transform="matrix(0.133333,0,0,-0.133333,0,491.08)">
            <path d="M1539,3369.75C1536.29,3371.74 1533.15,3374.05 1529.59,3376.68C1529.59,3376.67 1529.58,3376.67 1529.58,3376.67C1511.44,3390 1482.31,3411.3 1443.02,3439.76C1444.78,3439.95 1446.67,3440.14 1448.68,3440.34C1457.47,3431.71 1467.83,3424.86 1478.5,3418.6C1487.44,3413.36 1497.95,3410.86 1507.25,3406.28C1515.94,3402 1522.89,3394.55 1530.35,3388.5C1538.55,3381.83 1548.15,3380.17 1558.07,3380.17C1562.26,3380.17 1566.5,3380.46 1570.72,3380.8C1588.59,3382.23 1606.44,3385.25 1624.28,3387.09C1639.63,3388.66 1668.53,3386.04 1664.02,3408.61C1661.72,3420.19 1661.37,3428.13 1667.48,3438.46C1670.45,3443.51 1672.11,3448.95 1673.16,3454.61C1677.39,3448.75 1679.59,3442.7 1677.38,3438.1C1677.38,3438.09 1677.37,3438.09 1677.37,3438.08C1677.37,3438.07 1677.36,3438.05 1677.35,3438.04C1677.34,3438.02 1677.33,3438 1677.32,3437.98C1674.76,3432.87 1673.21,3427.46 1673.21,3422.3C1673.2,3415.47 1675.94,3409.09 1682.71,3404.47C1688.94,3400.23 1692.35,3394.65 1693.72,3389.38C1662.1,3384.47 1611.4,3377.43 1539,3369.75" style="fill:rgb(164,55,31);fill-rule:nonzero;"/>
        </g>
        <g id="path78" transform="matrix(0.133333,0,0,-0.133333,0,491.08)">
            <path d="M466.074,2883.17C466.074,2883.17 467.402,2916.85 476.836,2944.47C486.27,2972.09 486.27,2983.54 476.152,3015.88C466.074,3048.22 458.652,3067.76 485.586,3089.98C512.539,3112.21 574.785,3139.11 601.797,3190.98C628.828,3242.88 706.66,3448.25 941.738,3532.55C1063.36,3573.09 1234.69,3576.96 1378.38,3486.41C1490.59,3405.72 1551.6,3360.43 1551.6,3360.43C1551.6,3360.43 1243.32,2880.77 1180.1,2851.59C1140.14,2836.87 1105.63,2838.52 1057.99,2840.16C1032.19,2841.05 1002.53,2841.95 966.074,2840.24C862.305,2835.39 466.074,2883.17 466.074,2883.17" style="fill:rgb(232,104,40);fill-rule:nonzero;"/>
        </g>
        <g id="path80" transform="matrix(0.133333,0,0,-0.133333,0,491.08)">
            <path d="M638.973,3209.92C632.938,3209.92 648.078,3249.04 656.23,3263.38C674.648,3295.8 696.973,3326.63 718.652,3356.97C740.801,3387.96 765.449,3419.03 794.57,3443.8C811.328,3458.07 829.102,3469.86 847.715,3479.71C855.215,3484.73 862.852,3489.55 870.645,3494.13C907.574,3515.74 947.184,3532.14 988.691,3541.59C993.289,3535.03 999.074,3529.19 1003.44,3522.45C1010.23,3511.9 1015.41,3499.95 1023.46,3490.27C1025.47,3505.75 1016.07,3519.29 1014.08,3534.61C1013.96,3535.59 1015.32,3538.03 1016.57,3538.03C1016.7,3538.03 1016.83,3538 1016.95,3537.94C1026.45,3533.62 1033.81,3525.6 1044.28,3523.39C1052.75,3521.6 1061.54,3520.35 1070.23,3520.34L1070.38,3520.34C1087.58,3520.34 1105.13,3523.88 1118.56,3534.82C1111,3533.03 1102.91,3532.33 1094.97,3532.33C1090.5,3532.33 1086.09,3532.55 1081.86,3532.93C1072.23,3533.77 1056.06,3535.05 1052.28,3546.01C1051.82,3547.36 1053.46,3549.63 1054.8,3549.76C1055.9,3549.88 1056.99,3549.93 1058.06,3549.93C1067.17,3549.93 1075.31,3546.15 1084.43,3545.25C1086.87,3545 1089.33,3544.89 1091.8,3544.89C1101.04,3544.89 1110.36,3546.54 1119.12,3549.37C1122.56,3550.48 1125.94,3551.72 1129.27,3553.07C1152.36,3552.54 1175.3,3550.84 1197.52,3547.83C1243.34,3541.62 1288.09,3526.81 1328.12,3503.51C1351.13,3490.1 1471.25,3429.98 1455.66,3398.77C1448.69,3384.78 1433.3,3379.5 1413.73,3379.5C1365.34,3379.5 1291.38,3411.73 1255.63,3424.18C1203.52,3442.29 1140.39,3463.81 1083.91,3468.16C1071.74,3469.1 1060.06,3469.55 1048.79,3469.55C972.918,3469.55 915.629,3448.76 853.32,3413.87C783.535,3374.77 735.703,3324.42 686.797,3266.64C677.715,3255.9 663.32,3233.61 643.496,3213.06C641.391,3210.88 639.922,3209.92 638.973,3209.92M952.262,3528.01C952.012,3528.01 951.727,3527.98 951.406,3527.91C911.641,3519.78 873.594,3495.74 840.313,3473.49C822.09,3461.3 805.273,3447.77 789.121,3432.95C773.848,3418.93 761.777,3402.7 747.5,3387.95C746.813,3387.26 746.969,3386.36 747.594,3386.36C747.805,3386.36 748.07,3386.46 748.379,3386.71C762.012,3398.15 773.145,3413.05 786.25,3425.25C803.066,3440.89 821.016,3455.04 840.547,3467.15C857.656,3477.77 875.234,3487.63 893.691,3495.64C912.109,3503.64 931.738,3509.1 949.414,3518.7C951.309,3519.73 956.363,3528.01 952.262,3528.01M1405.8,3428.27C1403.03,3428.27 1398.16,3422.69 1400.84,3421.03C1406.64,3417.48 1410.9,3412.62 1415.78,3408C1420.57,3403.48 1424.32,3397.59 1430.59,3395.15C1430.96,3395.01 1431.35,3394.94 1431.74,3394.94C1435.69,3394.94 1440.47,3401.61 1439.12,3404.93C1436.58,3411.14 1430.55,3415.04 1425.41,3419.03C1419.9,3423.29 1412.93,3426.37 1406.25,3428.22C1406.11,3428.26 1405.95,3428.27 1405.8,3428.27M1153.91,3540.45C1152.77,3540.45 1150.8,3537.86 1152.17,3537.64C1171.19,3534.4 1190.37,3532.3 1209.28,3528.37C1230.25,3524.04 1248.91,3514.11 1268.85,3506.75C1290.06,3498.91 1311.68,3487.57 1329.34,3473.38C1338.34,3466.13 1346.7,3458.21 1355.98,3451.29C1364.36,3445.02 1368.57,3435.82 1378.46,3430.65C1379.11,3430.31 1379.84,3430.16 1380.61,3430.16C1386.17,3430.16 1393.96,3438.2 1391.09,3443.12C1380.9,3460.49 1361.78,3471.88 1346.13,3483.84C1328.24,3497.5 1307.44,3506.52 1286.66,3514.85C1267.13,3522.67 1245.51,3530.1 1224.88,3534.16C1201.64,3538.71 1177.5,3538.46 1153.97,3540.45L1153.91,3540.45M1327.32,3465.33C1327.14,3465.33 1326.95,3465.3 1326.76,3465.26C1324.94,3464.8 1323.95,3462.52 1323.79,3460.86C1323.63,3459.27 1324.47,3457.38 1325.82,3456.53C1326.31,3456.22 1326.81,3456.09 1327.29,3456.09C1328.77,3456.09 1330.12,3457.34 1330.8,3458.65C1331.48,3459.96 1331.07,3461.72 1330.18,3462.95L1330.18,3462.98C1329.82,3464.25 1328.61,3465.33 1327.32,3465.33" style="fill:rgb(243,134,50);fill-rule:nonzero;"/>
        </g>
        <g id="path82" transform="matrix(0.133333,0,0,-0.133333,0,491.08)">
            <path d="M988.691,3541.59C987.875,3542.75 987.094,3543.94 986.367,3545.16C1025.92,3554.48 1069.11,3559.91 1113.87,3559.91C1123.39,3559.91 1132.99,3559.66 1142.64,3559.15C1138.27,3556.95 1133.82,3554.91 1129.27,3553.07C1123.91,3553.19 1118.54,3553.25 1113.17,3553.25C1084.68,3553.25 1056.18,3551.54 1028.77,3548.42C1015.23,3546.88 1001.87,3544.59 988.691,3541.59" style="fill:rgb(219,77,32);fill-rule:nonzero;"/>
        </g>
        <g id="path84" transform="matrix(0.133333,0,0,-0.133333,0,491.08)">
            <path d="M1023.46,3490.27C1015.41,3499.95 1010.23,3511.9 1003.44,3522.45C999.074,3529.19 993.289,3535.03 988.691,3541.59C1001.87,3544.59 1015.23,3546.88 1028.77,3548.42C1056.18,3551.54 1084.68,3553.25 1113.17,3553.25C1118.54,3553.25 1123.91,3553.19 1129.27,3553.07C1125.94,3551.72 1122.56,3550.48 1119.12,3549.37C1110.36,3546.54 1101.04,3544.89 1091.8,3544.89C1089.33,3544.89 1086.87,3545 1084.43,3545.25C1075.31,3546.15 1067.17,3549.93 1058.06,3549.93C1056.99,3549.93 1055.9,3549.88 1054.8,3549.76C1053.46,3549.63 1051.82,3547.36 1052.28,3546.01C1056.06,3535.05 1072.23,3533.77 1081.86,3532.93C1086.09,3532.55 1090.5,3532.33 1094.97,3532.33C1102.91,3532.33 1111,3533.03 1118.56,3534.82C1105.13,3523.88 1087.58,3520.34 1070.38,3520.34L1070.23,3520.34C1061.54,3520.35 1052.75,3521.6 1044.28,3523.39C1033.81,3525.6 1026.45,3533.62 1016.95,3537.94C1016.83,3538 1016.7,3538.03 1016.57,3538.03C1015.32,3538.03 1013.96,3535.59 1014.08,3534.61C1016.07,3519.29 1025.47,3505.75 1023.46,3490.27" style="fill:rgb(231,95,36);fill-rule:nonzero;"/>
        </g>
        <g id="path86" transform="matrix(0.133333,0,0,-0.133333,0,491.08)">
            <path d="M1064.92,3003.3C1072.19,3036.12 1082.99,3072.81 1099.34,3101.65C1131.6,3158.55 1161.68,3212.21 1213.14,3255.22C1264.98,3298.52 1322.66,3337.91 1390.14,3349.74C1423.07,3355.51 1456.03,3359.61 1488.75,3366.87C1502.4,3369.92 1516,3373.26 1529.59,3376.68C1544.1,3366 1551.6,3360.43 1551.6,3360.43C1551.6,3360.43 1243.32,2880.77 1180.1,2851.59C1140.14,2836.87 1105.63,2838.52 1057.99,2840.16C1032.19,2841.05 1002.53,2841.95 966.074,2840.24C862.305,2835.39 466.074,2883.17 466.074,2883.17C466.074,2883.17 467.402,2916.85 476.836,2944.47C478.965,2950.69 480.586,2956.06 481.738,2961.07C501.758,2987.19 527.344,3009.14 547.461,3035.36C560.195,3051.98 572.129,3069.2 583.145,3087.03C595.176,3106.52 603.789,3128.58 618.184,3146.51C629.238,3160.28 638.32,3154.14 642.051,3141.43C643.262,3137.23 647.715,3135.9 651.563,3136.07C661.133,3136.48 672.852,3153.62 679.395,3159.2C716.289,3190.64 756.445,3222.09 799.98,3243.92C820.84,3254.38 841.914,3264.31 863.77,3272.49C878.867,3278.14 918.867,3295.08 930.625,3275.97C936.016,3267.19 910.82,3243.96 905.859,3235.98C898.008,3223.34 902.852,3206.23 904.043,3192.54C905.859,3171.83 884.063,3164.06 883.535,3145.45C883.086,3129.82 881.543,3117.71 873.828,3103.65C868.887,3094.68 863.066,3086.19 858.984,3076.75C855.098,3067.73 837.305,3042.28 846.738,3032.67C852.031,3027.27 864.219,3026.68 871.035,3025.71C881.035,3024.27 890.801,3023.86 900.586,3021.23C991.348,2996.89 1045.47,2915.28 1064.92,3003.3" style="fill:rgb(190,83,30);fill-rule:nonzero;"/>
        </g>
        <g id="path88" transform="matrix(0.133333,0,0,-0.133333,0,491.08)">
            <path d="M1632.46,3159.63C1632.46,3159.63 1674.61,3088.3 1711.89,3031.55C1749.18,2974.81 1780,2955.35 1741.09,2908.34C1702.17,2861.31 1470.31,2809.44 1329.26,2814.29C1188.2,2819.16 1115.23,2866.18 1102.29,2905.09C1098.79,2915.55 1119.67,2912.19 1156.31,2908.82C1256,2899.67 1472.41,2890.52 1632.46,3159.63" style="fill:rgb(190,81,30);fill-rule:nonzero;"/>
        </g>
        <g id="path90" transform="matrix(0.133333,0,0,-0.133333,0,491.08)">
            <path d="M1361.4,2814.11C1501.04,2816.93 1699.3,2863.39 1739.46,2906.48C1699.3,2863.39 1501.05,2816.92 1361.4,2814.11" style="fill:rgb(170,125,98);fill-rule:nonzero;"/>
        </g>
        <g id="path92" transform="matrix(0.133333,0,0,-0.133333,0,491.08)">
            <path d="M1739.49,2906.52C1739.56,2906.59 1739.63,2906.66 1739.7,2906.73C1739.63,2906.66 1739.56,2906.59 1739.49,2906.52M1739.98,2907.04C1740.04,2907.12 1740.11,2907.19 1740.18,2907.27C1740.11,2907.19 1740.04,2907.12 1739.98,2907.04M1740.51,2907.65C1740.53,2907.67 1740.55,2907.69 1740.56,2907.71C1740.55,2907.69 1740.53,2907.67 1740.51,2907.65M1741.09,2908.34C1741.15,2908.4 1741.2,2908.47 1741.26,2908.54C1741.21,2908.47 1741.15,2908.4 1741.09,2908.34" style="fill:rgb(170,125,98);fill-rule:nonzero;"/>
        </g>
        <g id="path94" transform="matrix(0.133333,0,0,-0.133333,0,491.08)">
            <path d="M1755.04,2966.36L1755.04,2966.37L1755.04,2966.36M1754.96,2966.55C1754.94,2966.6 1754.92,2966.65 1754.89,2966.7C1754.92,2966.65 1754.94,2966.6 1754.96,2966.55" style="fill:rgb(170,125,98);fill-rule:nonzero;"/>
        </g>
        <g id="path96" transform="matrix(0.133333,0,0,-0.133333,0,491.08)">
            <path d="M1749.42,2977.31C1749.42,2977.32 1749.41,2977.33 1749.41,2977.34C1747.71,2980.2 1745.83,2983.14 1743.79,2986.17L1743.79,2986.18C1745.84,2983.14 1747.72,2980.19 1749.42,2977.31" style="fill:rgb(207,148,115);fill-rule:nonzero;"/>
        </g>
        <g id="path98" transform="matrix(0.133333,0,0,-0.133333,0,491.08)">
            <path d="M1754.88,2966.72C1753.4,2970.19 1751.55,2973.71 1749.41,2977.34C1749.41,2977.33 1749.42,2977.32 1749.42,2977.31C1751.56,2973.7 1753.4,2970.19 1754.88,2966.72" style="fill:rgb(170,125,98);fill-rule:nonzero;"/>
        </g>
        <g id="path100" transform="matrix(0.133333,0,0,-0.133333,0,491.08)">
            <path d="M1650.01,3130.36L1650,3130.37C1648.93,3132.14 1647.89,3133.86 1646.9,3135.51L1646.9,3135.52C1647.89,3133.86 1648.93,3132.14 1650.01,3130.36" style="fill:rgb(170,125,98);fill-rule:nonzero;"/>
        </g>
        <g id="path102" transform="matrix(0.133333,0,0,-0.133333,0,491.08)">
            <path d="M1656.95,3118.92C1654.5,3122.95 1652.17,3126.79 1650,3130.37L1650.01,3130.36C1652.18,3126.78 1654.5,3122.95 1656.95,3118.92" style="fill:rgb(162,118,94);fill-rule:nonzero;"/>
        </g>
        <g id="path104" transform="matrix(0.133333,0,0,-0.133333,0,491.08)">
            <path d="M1348.3,2813.97C1346.62,2813.97 1344.96,2813.98 1343.3,2814C1331.62,2830.52 1309.61,2837.81 1285.37,2837.81C1268.07,2837.81 1249.62,2834.09 1232.99,2827.37C1232.13,2827.02 1231.27,2826.67 1230.42,2826.31C1205.65,2831.93 1184.54,2839.13 1166.98,2847.27C1143.02,2858.38 1125.67,2871.23 1114.67,2884.15C1132.16,2872.6 1155.75,2864.18 1186.58,2859.69C1203.34,2857.95 1220.6,2857.07 1238.13,2857.07C1383.4,2857.06 1547.9,2917.55 1613.01,3047.77C1624.08,3077.3 1635.54,3107.65 1646.9,3135.51C1647.89,3133.86 1648.93,3132.14 1650,3130.37C1652.17,3126.79 1654.5,3122.95 1656.95,3118.92C1654.34,3115.19 1652.05,3111.16 1650,3107.07C1638.96,3085 1632.38,3060.84 1621.58,3038.58C1590.8,2975.1 1537.62,2929.11 1473.96,2900.34C1452.46,2890.63 1430.21,2883.39 1407.72,2876.51C1394.16,2872.38 1370.57,2867.65 1361.99,2854.77C1349.29,2835.66 1377.82,2831.67 1401.9,2831.67C1413.98,2831.67 1424.94,2832.68 1429,2833.28C1475.37,2840.1 1520.43,2853.66 1565.62,2865.64C1608.65,2877.07 1652.07,2882.19 1692.23,2902.54C1721.89,2917.58 1741.72,2947.71 1743.69,2981.16C1743.77,2982.84 1743.77,2984.5 1743.79,2986.17C1745.83,2983.14 1747.71,2980.2 1749.41,2977.34C1751.55,2973.71 1753.4,2970.19 1754.88,2966.72C1754.89,2966.71 1754.89,2966.71 1754.89,2966.7C1754.92,2966.65 1754.94,2966.6 1754.96,2966.55C1754.98,2966.49 1755.01,2966.43 1755.04,2966.37L1755.04,2966.36C1762.55,2948.55 1760.57,2931.96 1741.26,2908.54C1741.2,2908.47 1741.15,2908.4 1741.09,2908.34C1740.92,2908.13 1740.74,2907.92 1740.56,2907.71C1740.55,2907.69 1740.53,2907.67 1740.51,2907.65C1740.4,2907.52 1740.29,2907.4 1740.18,2907.27C1740.11,2907.19 1740.04,2907.12 1739.98,2907.04C1739.88,2906.94 1739.79,2906.84 1739.7,2906.73C1739.63,2906.66 1739.56,2906.59 1739.49,2906.52C1739.48,2906.5 1739.47,2906.49 1739.46,2906.48C1699.3,2863.39 1501.04,2816.93 1361.4,2814.11C1356.97,2814.02 1352.6,2813.97 1348.3,2813.97" style="fill:rgb(164,55,31);fill-rule:nonzero;"/>
        </g>
        <g id="path106" transform="matrix(0.133333,0,0,-0.133333,0,491.08)">
            <path d="M959.199,3577.21C959.199,3577.21 1078.46,3524.79 1148.32,3633.14C1121.97,3558.77 1025.55,3520.73 959.199,3577.21" style="fill:rgb(201,152,102);fill-rule:nonzero;"/>
        </g>
        <g id="path108" transform="matrix(0.133333,0,0,-0.133333,0,491.08)">
            <path d="M1004.57,3563.21C1004.57,3563.21 1046.88,3579.33 1082.81,3628.64C1074.47,3591.25 1029.16,3549.59 1004.57,3563.21" style="fill:rgb(112,174,91);fill-rule:nonzero;"/>
        </g>
        <g id="path110" transform="matrix(0.133333,0,0,-0.133333,0,491.08)">
            <path d="M984.004,3568.44C984.004,3568.44 1023.55,3588.54 1015.37,3647.44C1040.02,3600.43 1009.96,3552.82 984.004,3568.44" style="fill:rgb(69,144,53);fill-rule:nonzero;"/>
        </g>
        <g id="path112" transform="matrix(0.133333,0,0,-0.133333,0,491.08)">
            <path d="M1051.5,3563.18C1051.5,3563.18 1087.75,3590.69 1108.98,3641.32C1113.5,3615.98 1078.93,3559.13 1051.5,3563.18" style="fill:rgb(92,193,53);fill-rule:nonzero;"/>
        </g>
        <g id="path114" transform="matrix(0.133333,0,0,-0.133333,0,491.08)">
            <path d="M1041.33,3562.63C1041.33,3562.63 1135.1,3560.15 1163.73,3579.52C1134.69,3550.5 1054.12,3544.44 1041.33,3562.63" style="fill:rgb(69,144,53);fill-rule:nonzero;"/>
        </g>
        <g id="path116" transform="matrix(0.133333,0,0,-0.133333,0,491.08)">
            <path d="M1029.84,3554.16C1029.84,3554.16 1072.36,3529.41 1118.13,3536.19C1077.42,3517.34 1035.23,3527.09 1000.23,3557.59C1019.2,3553.89 1029.84,3554.16 1029.84,3554.16" style="fill:rgb(92,193,53);fill-rule:nonzero;"/>
        </g>
        <g id="path118" transform="matrix(0.133333,0,0,-0.133333,0,491.08)">
            <path d="M975.02,3567.85C975.02,3567.85 1009.88,3528.16 1022.58,3490.84C1038.09,3514.39 995.508,3560.21 995.508,3560.21L975.02,3567.85" style="fill:rgb(65,145,55);fill-rule:nonzero;"/>
        </g>
        <g id="path120" transform="matrix(0.133333,0,0,-0.133333,0,491.08)">
            <path d="M1017.83,3549.73C1017.83,3549.73 1060.68,3524.48 1103.14,3532.45C1087.75,3521.16 1035.59,3532.3 1017.83,3549.73" style="fill:rgb(154,217,130);fill-rule:nonzero;"/>
        </g>
        <g id="path122" transform="matrix(0.133333,0,0,-0.133333,0,491.08)">
            <path d="M1062.13,3568.34C1062.13,3568.34 1090.08,3590.41 1106.66,3630.45C1104.45,3610.86 1080.35,3576.51 1062.13,3568.34" style="fill:rgb(154,217,130);fill-rule:nonzero;"/>
        </g>
        <g id="path124" transform="matrix(0.133333,0,0,-0.133333,0,491.08)">
            <path d="M789.668,3024.48C789.668,3024.48 891.582,3014.69 956.816,2983.71C1022.01,2952.74 1059.53,2914.42 1057.89,2889.96C1056.27,2865.51 1012.25,2830.45 895.664,2824.75C779.082,2819.04 702.441,2814.96 620.918,2814.15C539.395,2813.32 525.527,2828.82 525.527,2828.82C525.527,2828.82 686.133,2876.92 789.668,3024.48" style="fill:rgb(190,81,30);fill-rule:nonzero;"/>
        </g>
        <g id="path126" transform="matrix(0.133333,0,0,-0.133333,0,491.08)">
            <path d="M947.941,2987.71C912.426,3002.87 868.633,3012.43 836.117,3017.98L836.172,3018.08C874.871,3016.45 913.262,3005.5 947.941,2987.71" style="fill:rgb(164,55,31);fill-rule:nonzero;"/>
        </g>
        <g id="path128" transform="matrix(0.133333,0,0,-0.133333,0,491.08)">
            <path d="M967.648,2971.93C967.555,2971.93 967.465,2971.95 967.383,2971.98C943.516,2980.51 921.973,2994.55 897.91,3003.06C877.871,3010.14 856.797,3014.59 835.898,3017.57L836.117,3017.98C868.633,3012.43 912.426,3002.87 947.941,2987.71C955.426,2983.87 962.738,2979.71 969.844,2975.26C971.008,2974.54 968.922,2971.93 967.648,2971.93" style="fill:rgb(164,55,31);fill-rule:nonzero;"/>
        </g>
        <g id="path130" transform="matrix(0.133333,0,0,-0.133333,0,491.08)">
            <path d="M1008.09,2945.48C1007.93,2945.48 1007.77,2945.53 1007.64,2945.64C997.09,2953.83 986.309,2963.32 974.59,2969.65L975.664,2971.09C982.363,2968.88 987.48,2965.1 993.242,2961.16C998.945,2957.26 1005.18,2953.28 1009.77,2948.11C1010.47,2947.3 1009.11,2945.48 1008.09,2945.48" style="fill:rgb(164,55,31);fill-rule:nonzero;"/>
        </g>
        <g id="path132" transform="matrix(0.133333,0,0,-0.133333,0,491.08)">
            <path d="M614.68,2814.12L614.641,2814.12L614.68,2814.12M614.684,2814.12C616.719,2814.12 618.793,2814.13 620.918,2814.15C688.219,2814.82 752.195,2817.71 838.066,2821.92C752.195,2817.71 688.219,2814.82 620.918,2814.15C618.789,2814.13 616.723,2814.12 614.684,2814.12" style="fill:rgb(170,125,98);fill-rule:nonzero;"/>
        </g>
        <g id="path134" transform="matrix(0.133333,0,0,-0.133333,0,491.08)">
            <path d="M996.887,2841.14C1039.05,2854.97 1056.87,2874.57 1057.89,2889.96C1057.89,2890 1057.9,2890.05 1057.9,2890.09C1057.9,2890.05 1057.89,2890 1057.89,2889.96C1056.87,2874.57 1039.05,2854.97 996.887,2841.14M1057.9,2890.11C1057.9,2890.15 1057.91,2890.2 1057.91,2890.23C1057.91,2890.2 1057.9,2890.15 1057.9,2890.11M1057.91,2890.25C1058.03,2892.5 1057.82,2894.87 1057.3,2897.33C1057.82,2894.87 1058.03,2892.5 1057.91,2890.25M1057.29,2897.36C1057.28,2897.4 1057.28,2897.44 1057.27,2897.48C1057.28,2897.44 1057.28,2897.4 1057.29,2897.36M1057.26,2897.53C1057.25,2897.55 1057.24,2897.59 1057.24,2897.61C1057.24,2897.59 1057.25,2897.56 1057.26,2897.53M1057.22,2897.69C1057.22,2897.7 1057.21,2897.73 1057.21,2897.74C1057.21,2897.73 1057.22,2897.7 1057.22,2897.69" style="fill:rgb(164,55,31);fill-rule:nonzero;"/>
        </g>
        <g id="path136" transform="matrix(0.133333,0,0,-0.133333,0,491.08)">
            <path d="M614.68,2814.12L614.641,2814.12C571.543,2814.13 548.66,2818.86 536.934,2822.95C550.527,2823.33 567.723,2826.58 595.859,2836.46C658.027,2859.69 672.07,2878.62 690.996,2891.04C712.598,2904.55 711.523,2910.49 709.355,2916.98C707.207,2923.46 705.039,2924.54 715.313,2930.49C760.176,2952.11 752.598,2962.91 760.703,2967.24C775.84,2975.89 780.703,2985.62 786.641,2998.05C791.375,3007.93 792.004,3014.06 802.922,3022.94C806.961,3022.43 811.805,3021.77 817.285,3020.97C808.613,3014.19 801.152,3005.68 797.5,2995.65C793.984,2985.93 794.375,2976.5 784.551,2969.59C780.176,2966.51 775.313,2964.32 771.055,2961.03C761.094,2953.34 757.383,2940.36 746.855,2932.96C740.039,2928.15 731.484,2925.9 726.309,2919.01C722.441,2913.88 723.242,2904.39 721.328,2898.5C714.434,2877.29 685.664,2875.18 676.719,2854.36C668.699,2835.67 692.73,2832.44 712.113,2832.44C720.305,2832.44 727.668,2833.02 731.426,2833.25C751.133,2834.43 770.605,2837.8 790.313,2838.97C838.027,2841.78 886.094,2843.06 933.535,2849.03C953.535,2851.55 973.34,2855.53 992.305,2862.37C1006.93,2867.61 1023.52,2875.48 1032.71,2888.55C1041.48,2901 1042.31,2914.16 1039.43,2927.24C1049.14,2916.66 1055.2,2906.58 1057.21,2897.74C1057.21,2897.73 1057.22,2897.7 1057.22,2897.69C1057.23,2897.66 1057.23,2897.64 1057.24,2897.61C1057.24,2897.59 1057.25,2897.55 1057.26,2897.53C1057.26,2897.51 1057.26,2897.49 1057.27,2897.48C1057.28,2897.44 1057.28,2897.4 1057.29,2897.36C1057.29,2897.35 1057.3,2897.34 1057.3,2897.33C1057.82,2894.87 1058.03,2892.5 1057.91,2890.25L1057.91,2890.23C1057.91,2890.2 1057.9,2890.15 1057.9,2890.11L1057.9,2890.09C1057.9,2890.05 1057.89,2890 1057.89,2889.96C1056.87,2874.57 1039.05,2854.97 996.887,2841.14C972.082,2833 938.848,2826.86 895.664,2824.75C894.156,2824.68 892.664,2824.6 891.168,2824.53C872.508,2823.61 854.863,2822.74 838.066,2821.92C752.195,2817.71 688.219,2814.82 620.918,2814.15C618.793,2814.13 616.719,2814.12 614.684,2814.12L614.68,2814.12" style="fill:rgb(164,55,31);fill-rule:nonzero;"/>
        </g>
        <g id="path138" transform="matrix(0.133333,0,0,-0.133333,0,491.08)">
            <path d="M1734.61,3396.36C1734.61,3396.36 1663.26,3381.77 1497.87,3365.55C1363.32,3349.34 1236.86,3302.32 1142.81,3153.15C1064.98,3023.45 1019.57,2884.03 1186.58,2859.69C1342.25,2843.48 1540.04,2901.84 1613.01,3047.77C1640.48,3121.02 1670.31,3199.3 1695.08,3232.13C1701.01,3239.99 1706.64,3245.24 1711.89,3247.2C1734.84,3255.75 1770.61,3273.36 1775.27,3283.73C1779.94,3294.1 1776.31,3321.57 1770.59,3338.68C1764.9,3355.79 1761.8,3354.23 1766.97,3368.75C1772.17,3383.25 1768.01,3390.51 1761.8,3396.73C1755.57,3402.96 1750.96,3403.75 1734.61,3396.36" style="fill:rgb(219,97,36);fill-rule:nonzero;"/>
        </g>
        <g id="path140" transform="matrix(0.133333,0,0,-0.133333,0,491.08)">
            <path d="M458.047,2846.19C458.047,2846.19 444.004,2895.9 501.289,2966.17C558.574,3038.59 594.238,3082.89 606.133,3111C618.027,3139.11 619.102,3152.07 628.828,3152.07C638.555,3152.07 638.574,3132.62 637.48,3114.25C702.324,3167.21 787.188,3227.2 854.746,3259.62C878.516,3269.35 886.094,3269.9 893.652,3274.22C901.211,3278.53 917.441,3269.35 907.168,3252.05C896.895,3234.76 886.641,3220.72 890.41,3208.29C894.199,3195.86 899.063,3193.69 888.789,3181.25C878.516,3168.83 875.273,3161.81 876.895,3146.68C878.516,3131.54 873.184,3119.72 855.293,3101.81C843.926,3090.46 845.547,3083.98 842.852,3070.47C840.156,3056.96 835.293,3043.98 813.672,3030.47C792.051,3016.97 792.598,3010.48 786.641,2998.05C780.703,2985.62 775.84,2975.89 760.703,2967.24C752.598,2962.91 760.176,2952.11 715.313,2930.49C705.039,2924.54 707.207,2923.46 709.355,2916.98C711.523,2910.49 712.598,2904.55 690.996,2891.04C672.07,2878.62 658.027,2859.69 595.859,2836.46C545.059,2818.62 529.941,2822.41 507.246,2825.65C484.531,2828.89 460.762,2835.9 458.047,2846.19" style="fill:rgb(219,97,36);fill-rule:nonzero;"/>
        </g>
        <g id="path142" transform="matrix(0.133333,0,0,-0.133333,0,491.08)">
            <path d="M867.813,3193.07C863.047,3187.75 860.879,3180.59 855.664,3175.49C850.781,3170.72 844.395,3167.55 840.039,3162.27C838.633,3160.59 837.129,3155.75 841.133,3157.05C847.949,3159.24 854.004,3165.96 858.711,3171.16C861.094,3173.79 863.027,3176.7 864.648,3179.85C866.602,3183.64 867.793,3188.4 869.961,3191.98C871.23,3194.1 869.18,3194.57 867.813,3193.07" style="fill:rgb(190,81,30);fill-rule:nonzero;"/>
        </g>
        <g id="path144" transform="matrix(0.133333,0,0,-0.133333,0,491.08)">
            <path d="M839.648,3131.79C832.969,3117.61 821.328,3106.76 808.301,3098.54C805.938,3097.07 801.699,3088.55 807.52,3090.67C824.141,3096.74 838.223,3116.2 844.199,3132.23C845.742,3136.39 840.703,3134.03 839.648,3131.79" style="fill:rgb(190,81,30);fill-rule:nonzero;"/>
        </g>
        <g id="path146" transform="matrix(0.133333,0,0,-0.133333,0,491.08)">
            <path d="M813.047,3071.64C808.809,3059.55 795.117,3058.29 787.09,3050.21C786.074,3049.2 784.023,3044.22 787.324,3044.84C794.766,3046.23 802.051,3053.29 807.344,3058.37C810.938,3061.81 814.785,3067.11 814.902,3072.31C814.922,3073.51 813.223,3072.11 813.047,3071.64" style="fill:rgb(190,81,30);fill-rule:nonzero;"/>
        </g>
        <g id="path148" transform="matrix(0.133333,0,0,-0.133333,0,491.08)">
            <path d="M767.617,3016.02C764.746,3012.09 761.484,3008.48 758.008,3004.95C752.617,2999.52 746.66,2997.25 740.098,2993.67C738.281,2992.69 733.496,2985.43 738.379,2985.84C745.625,2986.48 752.91,2992.73 757.715,2997.81C762.93,3003.3 767.305,3009.07 770.332,3015.84C771.445,3018.32 768.438,3017.14 767.617,3016.02" style="fill:rgb(190,81,30);fill-rule:nonzero;"/>
        </g>
        <g id="path150" transform="matrix(0.133333,0,0,-0.133333,0,491.08)">
            <path d="M709.707,2953.16C708.613,2951.2 707.051,2950.08 705.391,2948.68C703.984,2947.49 703.105,2945.89 701.543,2944.84C698.203,2942.58 694.219,2942.18 690.801,2940.07C689.238,2939.11 685.293,2933.71 689.375,2933.61C694.551,2933.48 699.707,2937.31 703.477,2940.5C706.816,2943.34 710.84,2948.84 711.289,2953.3C711.426,2954.53 710.02,2953.74 709.707,2953.16" style="fill:rgb(190,81,30);fill-rule:nonzero;"/>
        </g>
        <g id="path152" transform="matrix(0.133333,0,0,-0.133333,0,491.08)">
            <path d="M669.59,2908.95C668.184,2906.23 663.047,2903.85 660.566,2902.13C656.992,2899.68 653.203,2897.9 649.043,2896.79C646.777,2896.19 642.285,2889.62 646.68,2889.61C652.91,2889.57 658.145,2893.71 662.773,2897.45C666.973,2900.84 672.031,2904.35 673.438,2909.87C674.199,2912.91 670.156,2910.11 669.59,2908.95" style="fill:rgb(190,81,30);fill-rule:nonzero;"/>
        </g>
        <g id="path154" transform="matrix(0.133333,0,0,-0.133333,0,491.08)">
            <path d="M1315.8,3271.71C1315.43,3272.93 1314,3273.01 1312.95,3272.96C1310.53,3272.84 1308.09,3271.05 1306.35,3269.51C1304.32,3267.7 1302.54,3265.49 1301.45,3262.99C1300.41,3260.61 1300.43,3257.59 1303.05,3256.38C1304.26,3255.82 1306.04,3256.66 1307.07,3257.22C1308.44,3257.93 1309.47,3259.01 1310.57,3260.08C1312.09,3261.59 1313.24,3263.52 1313.79,3265.61L1315.29,3268C1315.84,3269.15 1316.15,3270.46 1315.8,3271.71" style="fill:rgb(4,6,6);fill-rule:nonzero;"/>
        </g>
        <g id="path156" transform="matrix(0.133333,0,0,-0.133333,0,491.08)">
            <path d="M1346.17,3243.78C1341.41,3243.78 1334.41,3232.28 1341.21,3232.28C1345.96,3232.28 1352.95,3243.78 1346.17,3243.78" style="fill:rgb(4,6,6);fill-rule:nonzero;"/>
        </g>
        <g id="path158" transform="matrix(0.133333,0,0,-0.133333,0,491.08)">
            <path d="M1284.43,3224.55L1284.24,3224.59C1282.25,3225.16 1280.2,3222.93 1279.22,3221.52L1279.02,3221.21C1278.32,3220.23 1277.68,3218.62 1278.16,3217.39C1278.83,3215.79 1280.86,3216.43 1281.95,3217.08C1283.44,3217.97 1288.13,3223.49 1284.43,3224.55" style="fill:rgb(4,6,6);fill-rule:nonzero;"/>
        </g>
        <g id="path160" transform="matrix(0.133333,0,0,-0.133333,0,491.08)">
            <path d="M1277.21,3172.84C1273.67,3172.84 1268.48,3164.29 1273.5,3164.29C1277.03,3164.29 1282.25,3172.84 1277.21,3172.84" style="fill:rgb(4,6,6);fill-rule:nonzero;"/>
        </g>
        <g id="path162" transform="matrix(0.133333,0,0,-0.133333,0,491.08)">
            <path d="M1404.98,3284.13L1405.2,3284.7L1405.41,3286.08L1404.1,3287.89L1404.08,3287.84L1403.26,3287.95C1401,3287.95 1398.67,3285.17 1397.87,3283.32C1397.21,3281.75 1397.19,3279.16 1399.57,3279.4L1400.55,3279.67L1400.53,3279.63L1400.66,3279.71C1401.88,3280.16 1402.95,3281.1 1403.77,3282.11L1404.08,3282.54L1404.36,3282.91L1404.92,3283.99L1404.94,3284.03L1404.98,3284.13" style="fill:rgb(4,6,6);fill-rule:nonzero;"/>
        </g>
        <g id="path164" transform="matrix(0.133333,0,0,-0.133333,0,491.08)">
            <path d="M1429.34,3281.77C1427.03,3282.24 1424.82,3280.47 1423.71,3278.55C1422.73,3276.87 1421.23,3273.28 1424.16,3272.62C1426.5,3272.11 1430.06,3275.43 1430.16,3278.08C1430.9,3279.77 1430.9,3281.44 1429.34,3281.77" style="fill:rgb(4,6,6);fill-rule:nonzero;"/>
        </g>
        <g id="path166" transform="matrix(0.133333,0,0,-0.133333,0,491.08)">
            <path d="M1202.17,3160.24C1201.05,3161.77 1200.06,3162.64 1198.2,3162.11L1196.7,3160.11L1197.54,3157.95C1196.62,3155.54 1194.24,3153.49 1194.69,3150.55C1195.08,3147.96 1198.42,3146.83 1200.53,3148.18C1203.14,3149.85 1204.39,3152.76 1204.2,3155.82C1204.08,3157.48 1203.11,3158.93 1202.17,3160.24" style="fill:rgb(4,6,6);fill-rule:nonzero;"/>
        </g>
        <g id="path168" transform="matrix(0.133333,0,0,-0.133333,0,491.08)">
            <path d="M1480.78,3298.8C1481.07,3299.85 1481.09,3300.94 1480.51,3301.81L1479.86,3302.28L1479.65,3302.67C1476.89,3304.2 1475.43,3298.53 1475.57,3296.76C1475.74,3294.38 1478.18,3294.61 1479.41,3296.16L1480.18,3297.34L1480.78,3298.8" style="fill:rgb(4,6,6);fill-rule:nonzero;"/>
        </g>
        <g id="path170" transform="matrix(0.133333,0,0,-0.133333,0,491.08)">
            <path d="M1180.51,3107.12C1180.14,3108.39 1179.24,3109.26 1179.04,3110.61C1178.75,3112.69 1176.05,3110.38 1175.74,3109.4L1175.72,3109.31C1173.87,3106.9 1172.7,3102.93 1175.78,3101.55C1177.48,3100.79 1179.63,3103.22 1180.18,3104.55L1180.51,3107.12" style="fill:rgb(4,6,6);fill-rule:nonzero;"/>
        </g>
        <g id="path172" transform="matrix(0.133333,0,0,-0.133333,0,491.08)">
            <path d="M1153.93,3011.23C1152.93,3011.78 1151.8,3010.53 1151.45,3009.7L1151.25,3009.09C1149.86,3007.46 1149.16,3004.45 1151.17,3003.7C1152.7,3003.13 1154.2,3005.67 1154.59,3006.74C1155.08,3008.01 1155.37,3010.41 1153.93,3011.23" style="fill:rgb(4,6,6);fill-rule:nonzero;"/>
        </g>
        <g id="path174" transform="matrix(0.133333,0,0,-0.133333,0,491.08)">
            <path d="M1108.26,2981.7L1107.66,2982.28L1107.56,2982.58C1103.28,2985.59 1099.77,2979.59 1099,2976.1C1098.4,2973.34 1099.49,2965.18 1104.22,2968.38C1108.07,2970.98 1111.29,2977.48 1108.26,2981.7" style="fill:rgb(4,6,6);fill-rule:nonzero;"/>
        </g>
        <g id="path176" transform="matrix(0.133333,0,0,-0.133333,0,491.08)">
            <path d="M1208.5,2965.73C1206.97,2965.98 1205.7,2965.25 1204.67,2964.09L1202.48,2961.55C1200.64,2958.73 1199.41,2953.44 1202.23,2950.88C1205.23,2948.16 1209.18,2954.81 1210.16,2956.76C1211.52,2959.5 1212.7,2965.06 1208.5,2965.73" style="fill:rgb(4,6,6);fill-rule:nonzero;"/>
        </g>
        <g id="path178" transform="matrix(0.133333,0,0,-0.133333,0,491.08)">
            <path d="M720.938,3123.94L719.453,3125.55L716.855,3124.61C715.898,3123.83 715.313,3122.6 714.863,3121.49C714.18,3119.68 713.652,3116.78 716.016,3116.08C718.477,3115.36 720.938,3119.14 721.563,3121C721.973,3122.3 721.66,3123.36 720.938,3123.94" style="fill:rgb(4,6,6);fill-rule:nonzero;"/>
        </g>
        <g id="path180" transform="matrix(0.133333,0,0,-0.133333,0,491.08)">
            <path d="M634.16,3064.74C633.887,3066.04 632.051,3066.28 630.742,3066.06C628.75,3066.3 626.699,3064.41 625.586,3062.8L624.609,3060.97L624.004,3059.53L623.984,3058.73C623.887,3057.68 624.121,3056.72 625,3056.14C627.93,3054.22 631.602,3057.97 633.008,3060.16C633.906,3061.57 634.492,3063.07 634.16,3064.74" style="fill:rgb(4,6,6);fill-rule:nonzero;"/>
        </g>
        <g id="path182" transform="matrix(0.133333,0,0,-0.133333,0,491.08)">
            <path d="M645.488,3043.34C644.883,3044.84 643.203,3044.98 641.973,3044.22C640.801,3043.52 639.258,3041.71 639.102,3040.12C638.672,3038.96 638.691,3037.65 639.883,3036.97L641.191,3036.72L642.188,3036.86L643.711,3037.99L644.629,3038.94C645.605,3040.22 646.133,3041.78 645.488,3043.34" style="fill:rgb(4,6,6);fill-rule:nonzero;"/>
        </g>
        <g id="path184" transform="matrix(0.133333,0,0,-0.133333,0,491.08)">
            <path d="M694.395,3049.28C693.926,3051.07 692.266,3050.98 690.742,3050.48C688.711,3050.47 686.289,3048.45 685.02,3047.41C682.793,3045.61 680.957,3043.12 680.684,3040.22C680.449,3037.66 683.535,3037.35 685.332,3037.63C689.902,3038.36 695.703,3044.28 694.395,3049.28" style="fill:rgb(4,6,6);fill-rule:nonzero;"/>
        </g>
        <g id="path186" transform="matrix(0.133333,0,0,-0.133333,0,491.08)">
            <path d="M591.113,3015.86C590.605,3015.77 589.18,3014.37 590.137,3014.02C591.348,3013.59 592.363,3012.68 593.164,3011.71C594.004,3010.71 594.004,3009.23 595.313,3008.75C596.465,3008.32 597.793,3010.14 598.008,3011.06C598.75,3014.57 593.926,3016.38 591.113,3015.86" style="fill:rgb(4,6,6);fill-rule:nonzero;"/>
        </g>
        <g id="path188" transform="matrix(0.133333,0,0,-0.133333,0,491.08)">
            <path d="M591.484,2980.68L589.453,2981.68L588.77,2982.46C588.262,2983.2 588.828,2983.08 587.91,2982.46C588.438,2982.81 589.512,2984.76 588.105,2984.3C584.629,2983.15 585.938,2976.64 589.531,2977.03C590.703,2977.15 593.281,2979.89 591.484,2980.68" style="fill:rgb(4,6,6);fill-rule:nonzero;"/>
        </g>
        <g id="path190" transform="matrix(0.133333,0,0,-0.133333,0,491.08)">
            <path d="M550.02,2943.25L547.754,2943.09C545.371,2943.1 543.418,2941.17 541.973,2939.45C540.352,2937.52 539.57,2934.66 539.824,2932.17C540.098,2929.27 543.203,2928.27 545.508,2929.46C548.086,2930.78 549.727,2933.32 550.84,2935.92C551.602,2937.71 552.832,2942.41 550.02,2943.25" style="fill:rgb(4,6,6);fill-rule:nonzero;"/>
        </g>
        <g id="path192" transform="matrix(0.133333,0,0,-0.133333,0,491.08)">
            <path d="M513.379,2912L511.641,2911.13L510.938,2910.72C509.297,2909.44 507.852,2907.36 507.402,2905.31C506.973,2903.46 507.441,2900.7 509.883,2900.89C511.855,2901.06 513.086,2903.13 513.789,2904.73C514.336,2905.98 516.875,2912.66 513.379,2912" style="fill:rgb(4,6,6);fill-rule:nonzero;"/>
        </g>
        <g id="path194" transform="matrix(0.133333,0,0,-0.133333,0,491.08)">
            <path d="M682.871,3212.93L681.094,3213.47C677.793,3214.41 674.336,3209.91 673.477,3207.11C672.891,3205.18 670.684,3196.97 675.078,3197.68C676.055,3197.85 676.934,3198.38 677.715,3199.14C679.023,3200.04 679.961,3201.36 680.703,3202.82L681.289,3204.61L682.109,3206.28C683.105,3208.32 684.648,3210.94 682.871,3212.93" style="fill:rgb(4,6,6);fill-rule:nonzero;"/>
        </g>
        <g id="path196" transform="matrix(0.133333,0,0,-0.133333,0,491.08)">
            <path d="M644.355,3208.61C643.086,3209.69 641.211,3208.22 640.391,3207.28C639.473,3206.16 639.063,3204.61 638.652,3203.26C638.164,3201.68 637.773,3199.94 637.871,3198.28C637.93,3197.3 638.477,3195.98 639.609,3195.87C641.113,3195.73 642.285,3197.22 643.008,3198.34C643.809,3199.61 644.805,3201.85 644.961,3203.83C645.293,3205.52 645.645,3207.52 644.355,3208.61" style="fill:rgb(4,6,6);fill-rule:nonzero;"/>
        </g>
        <g id="path198" transform="matrix(0.133333,0,0,-0.133333,0,491.08)">
            <path d="M725.195,3281.72L724.98,3281.95L724.473,3282.97C722.246,3284.05 720.742,3279.38 720.469,3278.02C720.156,3276.48 719.805,3272.56 722.422,3273.01C725.449,3273.51 726.074,3279.48 725.195,3281.72" style="fill:rgb(4,6,6);fill-rule:nonzero;"/>
        </g>
        <g id="path200" transform="matrix(0.133333,0,0,-0.133333,0,491.08)">
            <path d="M721.699,3318.9C718.691,3320.07 716.621,3315.45 715.957,3313.34C715.43,3311.66 715.098,3309.96 714.844,3308.23C714.688,3307.26 714.375,3305.97 714.824,3305.03C714.883,3304.14 715.156,3303.32 716.094,3303.04C717.676,3302.59 719.453,3304.72 720.098,3305.86C722.227,3309.53 722.246,3313.91 722.285,3318.06L721.699,3318.9" style="fill:rgb(4,6,6);fill-rule:nonzero;"/>
        </g>
        <g id="path202" transform="matrix(0.133333,0,0,-0.133333,0,491.08)">
            <path d="M788.242,3322.19C787.949,3323.61 787.109,3324.89 786.211,3325.98L784.922,3326.81L783.867,3326.66L783.027,3326.16L783.047,3326.24L782.676,3325.9L781.777,3325.55C779.063,3323.55 779.902,3319.68 782.344,3317.89C785.352,3315.65 788.906,3318.95 788.242,3322.19" style="fill:rgb(4,6,6);fill-rule:nonzero;"/>
        </g>
        <g id="path204" transform="matrix(0.133333,0,0,-0.133333,0,491.08)">
            <path d="M811.348,3341.65L811.348,3341.92C811.27,3343.44 810.137,3345.22 808.398,3344.58C805.273,3343.44 804.98,3339.1 805.488,3336.31C806.191,3332.62 810.176,3334.51 811.191,3336.96C811.641,3338.09 811.777,3340.06 811.348,3341.65" style="fill:rgb(4,6,6);fill-rule:nonzero;"/>
        </g>
        <g id="path206" transform="matrix(0.133333,0,0,-0.133333,0,491.08)">
            <path d="M776.113,3351.8L773.926,3350.71C773.008,3350.16 772.305,3349.25 772.051,3348.23L772.285,3347.37C771.758,3345.9 771.387,3344.18 771.895,3342.81L773.477,3342.68C776.074,3344.32 776.406,3347.61 776.445,3350.41L776.27,3350.8L776.113,3351.8" style="fill:rgb(4,6,6);fill-rule:nonzero;"/>
        </g>
        <g id="path208" transform="matrix(0.133333,0,0,-0.133333,0,491.08)">
            <path d="M775.449,3380.25L774.414,3380.8C770.117,3380.47 766.152,3374.3 766.035,3370.13C765.488,3368.95 765.059,3367.46 765.957,3366.66C768.086,3364.76 771.836,3370.07 772.715,3371.35C774.277,3373.57 776.563,3377.41 775.449,3380.25" style="fill:rgb(4,6,6);fill-rule:nonzero;"/>
        </g>
        <g id="path210" transform="matrix(0.133333,0,0,-0.133333,0,491.08)">
            <path d="M718.242,3350.27L716.777,3349.54C714.258,3349.55 711.602,3345.67 710.898,3343.88C710.332,3342.53 709.98,3340.39 711.484,3339.52C713.379,3338.41 715.547,3340.1 716.836,3341.39C718.34,3342.9 719.512,3344.85 720.156,3346.89C720.684,3348.58 720.625,3350.86 718.242,3350.27" style="fill:rgb(4,6,6);fill-rule:nonzero;"/>
        </g>
        <g id="path212" transform="matrix(0.133333,0,0,-0.133333,0,491.08)">
            <path d="M909.316,3373.19C907.871,3375.86 904.805,3372.79 903.77,3371.41L903.34,3370.66C902.051,3369.23 901.035,3367.52 900.352,3365.8L900.723,3364.07C902.988,3362.99 905.527,3365.24 906.973,3366.7C908.34,3368.09 910.43,3371.15 909.316,3373.19" style="fill:rgb(4,6,6);fill-rule:nonzero;"/>
        </g>
        <g id="path214" transform="matrix(0.133333,0,0,-0.133333,0,491.08)">
            <path d="M890.273,3407.37L889.98,3408.01C886.855,3408.69 884.902,3406.43 883.848,3403.73C882.93,3401.45 882.93,3398.18 886.152,3398.26C889.785,3398.36 893.164,3405.72 890.273,3407.37" style="fill:rgb(4,6,6);fill-rule:nonzero;"/>
        </g>
        <g id="path216" transform="matrix(0.133333,0,0,-0.133333,0,491.08)">
            <path d="M844.727,3397.93C843.672,3398.17 842.598,3397.74 841.66,3397.07C840.43,3396.85 839.336,3396.12 838.574,3395.09C837.402,3393.57 836.465,3391.06 837.402,3389.2C838.32,3387.39 840.664,3388.19 841.992,3388.99C843.75,3390.05 845.215,3391.8 846.016,3393.68C846.66,3395.19 846.699,3397.48 844.727,3397.93" style="fill:rgb(4,6,6);fill-rule:nonzero;"/>
        </g>
        <g id="path218" transform="matrix(0.133333,0,0,-0.133333,0,491.08)">
            <path d="M847.207,3429C844.824,3429.48 842.715,3427.04 841.445,3425.32C840.742,3424.36 840.273,3423.19 840.039,3422.04C839.824,3420.92 840.254,3420.46 841.211,3420.03C843.047,3419.24 845.566,3420.47 846.875,3421.68L847.227,3422.05L848.301,3422.21C849.922,3422.71 850.84,3424.23 850.859,3425.89C850.879,3427.89 848.906,3428.66 847.207,3429" style="fill:rgb(4,6,6);fill-rule:nonzero;"/>
        </g>
        <g id="path220" transform="matrix(0.133333,0,0,-0.133333,0,491.08)">
            <path d="M1023.85,3417.89L1022.99,3420.05C1021.37,3421.5 1018.89,3419.69 1017.66,3418.58C1016.05,3417.11 1014.04,3414.27 1015.25,3412.03C1016.19,3410.29 1017.75,3410.07 1019.55,3410.64C1022.44,3411.56 1025.37,3415.43 1023.85,3417.89" style="fill:rgb(4,6,6);fill-rule:nonzero;"/>
        </g>
        <g id="path222" transform="matrix(0.133333,0,0,-0.133333,0,491.08)">
            <path d="M976.27,3443.16L974.961,3443.21L973.75,3444.26L971.523,3442.66C970.566,3439.89 972.5,3436.51 975.371,3435.8C977.109,3435.36 978.594,3437.58 978.809,3439.07C979.063,3440.93 977.48,3442.07 976.27,3443.16" style="fill:rgb(4,6,6);fill-rule:nonzero;"/>
        </g>
        <g id="path224" transform="matrix(0.133333,0,0,-0.133333,0,491.08)">
            <path d="M976.543,3460.48L976.602,3461.45L975.996,3461.56L974.609,3460.36C974.316,3458.96 973.281,3457.24 973.828,3455.77C974.434,3454.25 975.84,3454.36 976.973,3455.32C978.008,3456.19 978.594,3457.5 978.555,3458.83C978.496,3459.98 977.617,3460.77 976.543,3460.48" style="fill:rgb(4,6,6);fill-rule:nonzero;"/>
        </g>
        <g id="path226" transform="matrix(0.133333,0,0,-0.133333,0,491.08)">
            <path d="M949.473,3481.97L947.402,3482.13L947.363,3482.13C944.551,3481.46 943.184,3478.07 945.352,3475.91C946.484,3474.78 948.477,3475.72 949.336,3476.68L950.156,3477.97L950.938,3478.79C951.367,3480.3 950.625,3481.48 949.473,3481.97" style="fill:rgb(4,6,6);fill-rule:nonzero;"/>
        </g>
        <g id="path228" transform="matrix(0.133333,0,0,-0.133333,0,491.08)">
            <path d="M997.031,3502.41C994.707,3504.9 990.742,3499.84 990.332,3497.81L991.23,3496.6L993.652,3496.92L994.922,3497.97L996.387,3498.41C997.559,3499.38 998.242,3501.13 997.031,3502.41" style="fill:rgb(4,6,6);fill-rule:nonzero;"/>
        </g>
        <g id="path230" transform="matrix(0.133333,0,0,-0.133333,0,491.08)">
            <path d="M914.648,3482.15L915.215,3484.46C915,3486.5 912.91,3486.8 911.328,3486.14C909.414,3485.32 907.266,3483.34 906.855,3481.24L907.402,3480.08L907.91,3479.04C909.063,3477.93 910.996,3478.78 912.129,3479.48L913.574,3480.68L914.648,3482.15" style="fill:rgb(4,6,6);fill-rule:nonzero;"/>
        </g>
        <g id="path232" transform="matrix(0.133333,0,0,-0.133333,0,491.08)">
            <path d="M886.172,3473.78L886.289,3474L885.84,3475.02C883.242,3475.17 879.883,3470.13 883.418,3469.09C885.898,3468.36 889.609,3472.97 886.172,3473.78" style="fill:rgb(4,6,6);fill-rule:nonzero;"/>
        </g>
        <g id="path234" transform="matrix(0.133333,0,0,-0.133333,0,491.08)">
            <path d="M1204.43,3481.61C1203.44,3482.21 1202.27,3482.39 1201.15,3482.04C1198.57,3481.27 1195.66,3477.6 1197.58,3475.07C1198.32,3474.11 1199.94,3474.01 1201.02,3474.25C1202.68,3474.64 1204.02,3475.87 1204.8,3477.37L1205.2,3479.18L1205.37,3479.48C1205.64,3480.61 1205.49,3480.98 1204.43,3481.61" style="fill:rgb(4,6,6);fill-rule:nonzero;"/>
        </g>
        <g id="path236" transform="matrix(0.133333,0,0,-0.133333,0,491.08)">
            <path d="M1238.67,3502.41C1238.22,3503.78 1236.89,3504.52 1235.53,3504.77C1233.79,3505.09 1232.3,3503.75 1231.43,3502.41C1230.53,3501.05 1229.8,3499.11 1230.82,3497.63C1231.88,3496.07 1233.79,3497.11 1234.75,3498.23L1235.47,3499.18L1235.64,3498.88C1238.2,3497.45 1239.41,3500.25 1238.67,3502.41" style="fill:rgb(4,6,6);fill-rule:nonzero;"/>
        </g>
        <g id="path238" transform="matrix(0.133333,0,0,-0.133333,0,491.08)">
            <path d="M1330.18,3462.95L1330.18,3462.98C1329.77,3464.44 1328.24,3465.64 1326.76,3465.26C1324.94,3464.8 1323.95,3462.52 1323.79,3460.86C1323.63,3459.27 1324.47,3457.38 1325.82,3456.53C1327.81,3455.29 1329.9,3456.91 1330.8,3458.65C1331.48,3459.96 1331.07,3461.72 1330.18,3462.95" style="fill:rgb(4,6,6);fill-rule:nonzero;"/>
        </g>
        <g id="path240" transform="matrix(0.133333,0,0,-0.133333,0,491.08)">
            <path d="M1081.82,3486.23L1081.48,3486.98L1080.63,3487.05L1079.53,3487.05L1077.01,3486.13C1075.78,3485.16 1074.45,3482.33 1076.72,3481.57C1078.57,3480.96 1080.61,3482.73 1081.37,3484.27L1081.64,3485.73L1081.82,3486.23" style="fill:rgb(4,6,6);fill-rule:nonzero;"/>
        </g>
        <g id="path242" transform="matrix(0.133333,0,0,-0.133333,0,491.08)">
            <path d="M1049.75,3503.61C1048.26,3506.31 1045,3508.68 1041.78,3508.56C1039.55,3508.49 1036.41,3507.8 1035.2,3505.65C1034.14,3503.78 1034.51,3502.17 1036.6,3501.46C1037.83,3501.05 1039.22,3501.28 1040.47,3501.47C1042.75,3501.8 1044.9,3500.57 1047.09,3500.35L1049.53,3502.8L1049.75,3503.61" style="fill:rgb(4,6,6);fill-rule:nonzero;"/>
        </g>
        <g id="path244" transform="matrix(0.133333,0,0,-0.133333,0,491.08)">
            <path d="M807.559,3428.34C806.211,3428.48 805.117,3427.2 804.277,3426.35L803.535,3424.91L803.34,3424.57C802.773,3423.32 802.031,3421.28 803.672,3420.58L805.684,3421.77C806.445,3422.29 807.168,3423.12 807.52,3424.03L808.223,3425.32C808.438,3426.37 809.395,3428.17 807.559,3428.34" style="fill:rgb(4,6,6);fill-rule:nonzero;"/>
        </g>
        <g id="path246" transform="matrix(0.133333,0,0,-0.133333,0,491.08)">
            <path d="M1055.02,3272.58C1054.12,3273.52 1053.55,3273.84 1052.25,3273.88L1052.19,3273.86L1052.3,3274.53L1052.05,3275.14L1051.43,3275.4C1050.63,3276.39 1049.2,3274.09 1049.16,3273.47C1049.02,3271.75 1049.55,3269.83 1050.72,3268.55C1052.34,3266.79 1054.57,3269.85 1055.1,3271.13L1055.02,3272.58" style="fill:rgb(4,6,6);fill-rule:nonzero;"/>
        </g>
        <g id="path248" transform="matrix(0.133333,0,0,-0.133333,0,491.08)">
            <path d="M984.238,3307.19C984.043,3308.41 983.32,3309.18 982.383,3309.43L982.207,3309.95C980.957,3311.27 979.336,3312.14 978.164,3313.52C977.207,3314.65 975.332,3311.98 975.352,3311.15C975.43,3309.36 976.367,3307.66 977.285,3306.2C978.145,3304.86 979.473,3302.95 981.211,3302.81C983.262,3302.63 984.512,3305.5 984.238,3307.19" style="fill:rgb(4,6,6);fill-rule:nonzero;"/>
        </g>
        <g id="path250" transform="matrix(0.133333,0,0,-0.133333,0,491.08)">
            <path d="M1536.27,3432.53L1534.69,3432.63L1533.91,3432.9C1532.71,3433.14 1531.72,3432.26 1531.13,3431.32C1530.14,3429.71 1528.73,3425.77 1530.68,3424.23C1532.32,3422.95 1534.55,3425.6 1535.35,3426.72C1536.45,3428.23 1537.36,3430.8 1536.27,3432.53" style="fill:rgb(4,6,6);fill-rule:nonzero;"/>
        </g>
        <g id="path252" transform="matrix(0.133333,0,0,-0.133333,0,491.08)">
            <path d="M1547.97,3409.11L1546.74,3409.64L1545,3408.79C1544.04,3408.37 1543.22,3407.65 1542.7,3406.56C1541.7,3404.54 1543.93,3403.83 1545.49,3403.77L1547.44,3404.13L1548.55,3403.99C1549.71,3403.92 1551.19,3405.77 1551.07,3406.86C1550.88,3408.36 1549.34,3408.91 1547.97,3409.11" style="fill:rgb(4,6,6);fill-rule:nonzero;"/>
        </g>
        <g id="path254" transform="matrix(0.133333,0,0,-0.133333,0,491.08)">
            <path d="M1584.55,3421.19L1584.34,3422.55L1584.06,3422.86L1583.93,3423.05L1581.25,3423.26C1579.88,3422.36 1578.96,3420.98 1578.71,3419.36C1578.5,3418.07 1579.12,3416.29 1580.39,3415.75C1581.6,3415.21 1583.07,3416.96 1583.61,3417.79C1584.26,3418.74 1584.61,3420 1584.55,3421.19" style="fill:rgb(4,6,6);fill-rule:nonzero;"/>
        </g>
        <g id="path256" transform="matrix(0.133333,0,0,-0.133333,0,491.08)">
            <path d="M1627.21,3426.09L1626.95,3426.53L1627.25,3427.82L1626.45,3428.52L1624.94,3428.26L1624.77,3428.34C1623.93,3428.84 1622.97,3428.77 1622.01,3428.77C1620.33,3428.75 1617.83,3427.19 1618.77,3425.21C1619.45,3423.77 1621.7,3423.37 1623.09,3423.41C1624.22,3423.43 1625.18,3423.96 1625.88,3424.73L1627.21,3426.09" style="fill:rgb(4,6,6);fill-rule:nonzero;"/>
        </g>
        <g id="path258" transform="matrix(0.133333,0,0,-0.133333,0,491.08)">
            <path d="M841.934,3397.07L840.527,3396.61C839.707,3396.15 838.652,3394.82 839.316,3393.86L840.41,3393.53C841.855,3393.53 844.004,3397.07 841.934,3397.07" style="fill:white;fill-rule:nonzero;"/>
        </g>
        <g id="path260" transform="matrix(0.133333,0,0,-0.133333,0,491.08)">
            <path d="M847.441,3429.5C845.977,3429.5 843.828,3425.95 845.918,3425.95C847.363,3425.95 849.531,3429.5 847.441,3429.5" style="fill:white;fill-rule:nonzero;"/>
        </g>
        <g id="path262" transform="matrix(0.133333,0,0,-0.133333,0,491.08)">
            <path d="M1022.11,3419.45C1020.41,3419.45 1017.89,3415.31 1020.33,3415.31C1022.03,3415.31 1024.55,3419.45 1022.11,3419.45" style="fill:white;fill-rule:nonzero;"/>
        </g>
        <g id="path264" transform="matrix(0.133333,0,0,-0.133333,0,491.08)">
            <path d="M772.324,3378.61C770.723,3378.61 768.359,3374.74 770.664,3374.74C772.266,3374.74 774.609,3378.61 772.324,3378.61" style="fill:white;fill-rule:nonzero;"/>
        </g>
        <g id="path266" transform="matrix(0.133333,0,0,-0.133333,0,491.08)">
            <path d="M676.777,3210.95L675.957,3209.94L675.352,3207.17L678.008,3208.13C679.063,3209.2 680.313,3210.57 680.156,3212.19C679.922,3214.4 677.129,3211.82 676.777,3210.95" style="fill:white;fill-rule:nonzero;"/>
        </g>
        <g id="path268" transform="matrix(0.133333,0,0,-0.133333,0,491.08)">
            <path d="M1313.34,3272.03C1310.66,3271.37 1308.44,3269.28 1306.56,3267.35C1305.31,3266.03 1306.17,3264.14 1307.81,3265.59C1309.55,3267.15 1311.58,3268.34 1313.42,3269.79C1314.14,3270.35 1315,3272.44 1313.34,3272.03" style="fill:white;fill-rule:nonzero;"/>
        </g>
        <g id="path270" transform="matrix(0.133333,0,0,-0.133333,0,491.08)">
            <path d="M686.875,3046.8C685.43,3046.8 683.34,3043.34 685.371,3043.34C686.797,3043.34 688.906,3046.8 686.875,3046.8" style="fill:white;fill-rule:nonzero;"/>
        </g>
        <g id="path272" transform="matrix(0.133333,0,0,-0.133333,0,491.08)">
            <path d="M1201.43,3481.41C1199.92,3481.41 1197.71,3477.77 1199.84,3477.77C1201.35,3477.77 1203.55,3481.41 1201.43,3481.41" style="fill:white;fill-rule:nonzero;"/>
        </g>
        <g id="path274" transform="matrix(0.133333,0,0,-0.133333,0,491.08)">
            <path d="M1105.68,2982.73L1103.13,2981.16L1102.68,2979.57C1102.38,2976.81 1106.46,2979.35 1106.25,2981.3L1105.68,2982.73" style="fill:white;fill-rule:nonzero;"/>
        </g>
        <g id="path276" transform="matrix(0.133333,0,0,-0.133333,0,491.08)">
            <path d="M546.133,2942.97C544.258,2942.97 541.465,2938.43 544.16,2938.43C546.055,2938.43 548.809,2942.97 546.133,2942.97" style="fill:white;fill-rule:nonzero;"/>
        </g>
        <g id="path278" transform="matrix(0.133333,0,0,-0.133333,0,491.08)">
            <path d="M1428.52,3278.87C1427.34,3278.87 1425.59,3276 1427.29,3276C1428.48,3276 1430.21,3278.87 1428.52,3278.87" style="fill:white;fill-rule:nonzero;"/>
        </g>
        <g id="path280" transform="matrix(0.133333,0,0,-0.133333,0,491.08)">
            <path d="M1533.87,3432.34C1532.46,3432.34 1530.35,3428.88 1532.4,3428.88C1533.83,3428.88 1535.92,3432.34 1533.87,3432.34" style="fill:white;fill-rule:nonzero;"/>
        </g>
        <g id="path282" transform="matrix(0.133333,0,0,-0.133333,0,491.08)">
            <path d="M747.594,3386.36C746.969,3386.36 746.813,3387.26 747.5,3387.95C761.777,3402.7 773.848,3418.93 789.121,3432.95C805.273,3447.77 822.09,3461.3 840.313,3473.49C873.594,3495.74 911.641,3519.78 951.406,3527.91C951.727,3527.98 952.012,3528.01 952.262,3528.01C956.363,3528.01 951.309,3519.73 949.414,3518.7C931.738,3509.1 912.109,3503.64 893.691,3495.64C875.234,3487.63 857.656,3477.77 840.547,3467.15C821.016,3455.04 803.066,3440.89 786.25,3425.25C773.145,3413.05 762.012,3398.15 748.379,3386.71C748.07,3386.46 747.805,3386.36 747.594,3386.36" style="fill:rgb(250,186,68);fill-rule:nonzero;"/>
        </g>
        <g id="path284" transform="matrix(0.133333,0,0,-0.133333,0,491.08)">
            <path d="M1380.61,3430.16C1379.84,3430.16 1379.11,3430.31 1378.46,3430.65C1368.57,3435.82 1364.36,3445.02 1355.98,3451.29C1346.7,3458.21 1338.34,3466.13 1329.34,3473.38C1311.68,3487.57 1290.06,3498.91 1268.85,3506.75C1248.91,3514.11 1230.25,3524.04 1209.28,3528.37C1190.37,3532.3 1171.19,3534.4 1152.17,3537.64C1150.8,3537.86 1152.77,3540.45 1153.91,3540.45L1153.97,3540.45C1177.5,3538.46 1201.64,3538.71 1224.88,3534.16C1245.51,3530.1 1267.13,3522.67 1286.66,3514.85C1307.44,3506.52 1328.24,3497.5 1346.13,3483.84C1361.78,3471.88 1380.9,3460.49 1391.09,3443.12C1393.96,3438.2 1386.17,3430.16 1380.61,3430.16" style="fill:rgb(250,186,68);fill-rule:nonzero;"/>
        </g>
        <g id="path286" transform="matrix(0.133333,0,0,-0.133333,0,491.08)">
            <path d="M1431.74,3394.94C1431.35,3394.94 1430.96,3395.01 1430.59,3395.15C1424.32,3397.59 1420.57,3403.48 1415.78,3408C1410.9,3412.62 1406.64,3417.48 1400.84,3421.03C1398.16,3422.69 1403.03,3428.27 1405.8,3428.27C1405.95,3428.27 1406.11,3428.26 1406.25,3428.22C1412.93,3426.37 1419.9,3423.29 1425.41,3419.03C1430.55,3415.04 1436.58,3411.14 1439.12,3404.93C1440.47,3401.61 1435.69,3394.94 1431.74,3394.94" style="fill:rgb(250,186,68);fill-rule:nonzero;"/>
        </g>
        <g id="path288" transform="matrix(0.133333,0,0,-0.133333,0,491.08)">
            <path d="M1094.13,3020.47C1093.79,3020.47 1093.6,3020.73 1093.83,3021.43C1107.81,3064.05 1122.15,3108.82 1147.36,3146.39C1171.41,3182.25 1192.4,3215.12 1229.57,3238.94C1230.72,3239.68 1231.63,3239.99 1232.33,3239.99C1235.53,3239.99 1234.17,3233.34 1231.15,3231.02C1214.22,3217.98 1197.5,3206.03 1183.85,3189.26C1170.27,3172.61 1158.32,3153.42 1146.66,3135.34C1124.22,3100.53 1113.03,3059 1095.72,3021.61C1095.46,3021.05 1094.63,3020.47 1094.13,3020.47" style="fill:rgb(236,126,44);fill-rule:nonzero;"/>
        </g>
        <g id="path290" transform="matrix(0.133333,0,0,-0.133333,0,491.08)">
            <path d="M1260.22,3260.93C1257.38,3260.93 1257.69,3265.77 1261,3268.48C1287.54,3290.24 1316.84,3303.25 1348.3,3316.12C1364.34,3322.68 1380.51,3328.19 1397.42,3332.03C1410.86,3335.07 1424.35,3339.49 1438.11,3339.49C1441.07,3339.49 1444.04,3339.29 1447.03,3338.82C1454.28,3337.69 1443.32,3325.94 1439.77,3325.24C1378.13,3313.11 1315.35,3300.42 1263.52,3262.35C1262.15,3261.34 1261.05,3260.93 1260.22,3260.93" style="fill:rgb(236,126,44);fill-rule:nonzero;"/>
        </g>
        <g id="path292" transform="matrix(0.133333,0,0,-0.133333,0,491.08)">
            <path d="M470.977,2866.9C470.742,2866.9 470.602,2867.06 470.703,2867.48C474.277,2883.19 472.52,2897.45 478.516,2912.95C483.906,2926.94 491.25,2940.39 500.215,2952.42C521.25,2980.58 542.109,3009.89 566.914,3034.87C568.207,3036.18 569.465,3036.73 570.438,3036.73C572.418,3036.73 573.223,3034.43 570.762,3031.49C549.688,3006.13 529.023,2980.33 508.496,2954.52C497.461,2940.65 487.363,2925.47 481.602,2908.57C476.992,2895.08 476.836,2881.18 472.344,2867.89C472.203,2867.47 471.422,2866.9 470.977,2866.9" style="fill:rgb(236,126,44);fill-rule:nonzero;"/>
        </g>
        <g id="path294" transform="matrix(0.133333,0,0,-0.133333,0,491.08)">
            <path d="M590.156,3067.03L589.688,3067.43C598.691,3078.84 601.23,3093.98 609.727,3105.78C614.602,3112.52 619.84,3119.74 628.652,3119.74C628.988,3119.74 629.324,3119.73 629.668,3119.71C633.359,3119.47 627.969,3112.26 625.527,3111.98C615.254,3110.8 608.535,3097.02 604.297,3088.77C600.41,3081.27 596.016,3073.19 590.156,3067.03" style="fill:rgb(236,126,44);fill-rule:nonzero;"/>
        </g>
        <g id="path296" transform="matrix(0.133333,0,0,-0.133333,0,491.08)">
            <path d="M682.223,3128.51C680.25,3128.51 681.449,3132.82 683.047,3134.33C689.375,3140.34 693.867,3149.23 700.02,3155.76C706.504,3162.68 713.223,3169.52 720.762,3175.34C736.191,3187.26 752.246,3198.49 769.688,3207.32C804.648,3225 851.68,3256.16 890.371,3262.89C890.723,3262.96 891.039,3262.98 891.316,3262.98C896.52,3262.98 889.348,3252.79 886.68,3251.63C849.512,3235.38 801.367,3211.8 765.098,3192.91C747.832,3183.91 730.43,3173.51 715.859,3160.51C704.961,3150.79 696.25,3137.11 684.063,3129.24C683.27,3128.73 682.668,3128.51 682.223,3128.51" style="fill:rgb(236,126,44);fill-rule:nonzero;"/>
        </g>
        <g id="path298" transform="matrix(0.133333,0,0,-0.133333,0,491.08)">
            <path d="M951.934,2765.02C951.934,2765.02 965.293,2690.17 1053.16,2691.11C1141.05,2692.04 1156.84,2759.93 1151.6,2788.15C1113.52,2763.66 951.934,2765.02 951.934,2765.02" style="fill:rgb(188,39,42);fill-rule:nonzero;"/>
        </g>
        <g id="path300" transform="matrix(0.133333,0,0,-0.133333,0,491.08)">
            <path d="M1148.95,2798.78C1163.57,2765.69 1125.98,2738.5 1065.62,2729.57C1011.29,2721.52 956.973,2739.39 951.934,2765.02C946.875,2790.64 991.504,2815.32 1045.45,2825.55C1089.63,2833.93 1136.27,2827.41 1148.95,2798.78" style="fill:rgb(239,48,47);fill-rule:nonzero;"/>
        </g>
        <g id="path302" transform="matrix(0.133333,0,0,-0.133333,0,491.08)">
            <path d="M1140.33,2798.78C1153.75,2768.46 1119.3,2743.56 1064,2735.38C1014.24,2728 964.453,2744.38 959.824,2767.84C955.215,2791.32 996.094,2813.92 1045.53,2823.3C1086,2830.98 1128.73,2825 1140.33,2798.78" style="fill:rgb(241,69,61);fill-rule:nonzero;"/>
        </g>
        <g id="path304" transform="matrix(0.133333,0,0,-0.133333,0,491.08)">
            <path d="M1059.39,2818.73C1049.41,2820.81 1042.21,2819.91 1037.52,2818.03C1031.64,2815.66 1026.09,2812.63 1020.41,2809.84C1014.04,2806.7 1007.32,2804.33 1000.84,2801.45C985.293,2794.54 963.691,2780.14 979.199,2761.98C985.781,2754.26 989.512,2744.87 1004.77,2753.91C1016.37,2760.79 1026.86,2765.27 1035.25,2771.84C1044.1,2778.77 1050.02,2787.5 1056.86,2796.5C1059.71,2800.29 1061.6,2805.59 1062.71,2810.14C1063.79,2814.57 1062.54,2818.07 1059.39,2818.73" style="fill:rgb(205,42,43);fill-rule:nonzero;"/>
        </g>
        <g id="path306" transform="matrix(0.133333,0,0,-0.133333,0,491.08)">
            <path d="M1023.23,2764.11C1027.58,2766.54 1031.61,2768.99 1035.25,2771.84C1044.1,2778.77 1050.02,2787.5 1056.86,2796.5C1059.71,2800.29 1061.6,2805.59 1062.71,2810.14C1062.72,2810.18 1062.73,2810.21 1062.74,2810.24C1062.73,2810.21 1062.72,2810.18 1062.71,2810.14C1061.6,2805.59 1059.71,2800.29 1056.86,2796.5C1050.02,2787.5 1044.1,2778.77 1035.25,2771.84C1031.63,2768.98 1027.59,2766.53 1023.23,2764.11M1062.74,2810.25C1063.27,2812.49 1063.2,2814.48 1062.58,2815.99C1063.2,2814.48 1063.27,2812.49 1062.74,2810.25M1062.58,2816C1062.58,2816.01 1062.57,2816.02 1062.57,2816.03C1062.57,2816.02 1062.58,2816.01 1062.58,2816" style="fill:rgb(191,30,36);fill-rule:nonzero;"/>
        </g>
        <g id="path308" transform="matrix(0.133333,0,0,-0.133333,0,491.08)">
            <path d="M1021.37,2763.08C1023.54,2768.97 1026.78,2773.17 1031.21,2777.61C1035.51,2781.91 1039.04,2786.71 1039.96,2792.86C1041.07,2800.38 1041.46,2808.21 1050.86,2811.13C1054.02,2812.1 1056.48,2813.12 1059,2815.3L1061.31,2817.8C1061.85,2817.34 1062.27,2816.74 1062.57,2816.03C1062.57,2816.02 1062.58,2816.01 1062.58,2816L1062.58,2815.99C1063.2,2814.48 1063.27,2812.49 1062.74,2810.25L1062.74,2810.24C1062.73,2810.21 1062.72,2810.18 1062.71,2810.14C1061.6,2805.59 1059.71,2800.29 1056.86,2796.5C1050.02,2787.5 1044.1,2778.77 1035.25,2771.84C1031.61,2768.99 1027.58,2766.54 1023.23,2764.11C1022.62,2763.77 1022,2763.42 1021.37,2763.08" style="fill:rgb(157,27,32);fill-rule:nonzero;"/>
        </g>
        <g id="path310" transform="matrix(0.133333,0,0,-0.133333,0,491.08)">
            <path d="M1027.46,2752.18C1027.46,2752.18 1036.11,2759.36 1043.69,2765.9C1051.25,2772.46 1046.91,2776.31 1060.49,2787.4C1074.06,2798.47 1075.02,2796.99 1090.59,2801.55C1106.17,2806.09 1113.3,2811.61 1116.74,2809.95C1120.16,2808.28 1141.56,2790.42 1135.92,2775.92C1130.25,2761.44 1122.23,2758.13 1101.9,2751.43C1081.54,2744.75 1065.8,2743.05 1053.96,2746.01C1042.13,2749.01 1037.64,2747.65 1033.44,2746.79C1024.45,2744.96 1023.96,2748.18 1027.46,2752.18" style="fill:rgb(205,42,43);fill-rule:nonzero;"/>
        </g>
        <g id="path312" transform="matrix(0.133333,0,0,-0.133333,0,491.08)">
            <path d="M1041.23,2763.8L1043.69,2765.9C1042.89,2765.21 1042.07,2764.51 1041.26,2763.81C1041.25,2763.81 1041.24,2763.8 1041.23,2763.8M1090.59,2801.55C1090.66,2801.57 1090.72,2801.59 1090.79,2801.61C1090.73,2801.59 1090.65,2801.57 1090.59,2801.55M1090.89,2801.64C1090.92,2801.64 1090.94,2801.65 1090.97,2801.66C1090.94,2801.65 1090.91,2801.64 1090.89,2801.64" style="fill:rgb(191,30,36);fill-rule:nonzero;"/>
        </g>
        <g id="path314" transform="matrix(0.133333,0,0,-0.133333,0,491.08)">
            <path d="M1041.26,2763.81C1042.07,2764.51 1042.89,2765.21 1043.69,2765.9C1051.25,2772.46 1046.91,2776.31 1060.49,2787.4C1074.06,2798.47 1075.02,2796.99 1090.59,2801.55C1090.65,2801.57 1090.73,2801.59 1090.79,2801.61C1090.83,2801.62 1090.86,2801.63 1090.89,2801.64C1090.91,2801.64 1090.94,2801.65 1090.97,2801.66C1101.74,2804.84 1108.41,2808.44 1112.6,2809.74C1111.93,2808.57 1111.37,2807.34 1110.96,2806.01C1109.69,2802.02 1109.3,2797.93 1108.55,2793.84C1107.09,2785.57 1093.93,2786.18 1087.91,2785.79C1079.18,2785.22 1072.48,2781.65 1065.37,2776.82C1060.41,2773.44 1055.65,2769.79 1050.27,2767.05C1047.45,2765.59 1044.37,2764.62 1041.26,2763.81" style="fill:rgb(157,27,32);fill-rule:nonzero;"/>
        </g>
        <g id="path316" transform="matrix(0.133333,0,0,-0.133333,0,491.08)">
            <path d="M995.566,2779.24L993.652,2779.66C992.676,2779.66 991.738,2779.41 990.84,2778.98L988.789,2776.95C988.477,2776.37 988.125,2775 989.102,2774.76C990.547,2774.43 991.953,2775.28 993.047,2776.12L994.57,2776.92L995.879,2778.36L995.566,2779.24" style="fill:rgb(249,176,77);fill-rule:nonzero;"/>
        </g>
        <g id="path318" transform="matrix(0.133333,0,0,-0.133333,0,491.08)">
            <path d="M1001.72,2767.95L999.629,2768.3C998.477,2769.21 996.523,2767.19 996.074,2766.33C995.352,2764.89 996.328,2763.73 997.813,2764.57C998.965,2765.22 999.863,2766.06 1001.02,2766.61L1001.72,2767.95" style="fill:rgb(249,176,77);fill-rule:nonzero;"/>
        </g>
        <g id="path320" transform="matrix(0.133333,0,0,-0.133333,0,491.08)">
            <path d="M1013.28,2792.09L1012.29,2793.13L1011.5,2793.74L1010.23,2793.93L1009.82,2793.81C1008.77,2793.49 1005.96,2790.91 1007.81,2789.96C1008.87,2789.45 1009.79,2790.22 1010.64,2790.75L1013.18,2791.71L1013.28,2792.09" style="fill:rgb(249,176,77);fill-rule:nonzero;"/>
        </g>
        <g id="path322" transform="matrix(0.133333,0,0,-0.133333,0,491.08)">
            <path d="M1028.32,2803.85C1027.13,2803.88 1025.94,2803.84 1024.75,2804C1023.11,2804.22 1021.54,2802.93 1020.82,2801.52C1020.12,2800.19 1020.57,2798.77 1022.25,2799.2C1024.36,2799.69 1026.72,2800.45 1028.28,2802.03C1028.67,2802.43 1029.45,2803.81 1028.32,2803.85" style="fill:rgb(249,176,77);fill-rule:nonzero;"/>
        </g>
        <g id="path324" transform="matrix(0.133333,0,0,-0.133333,0,491.08)">
            <path d="M1075.64,2770.22C1075.51,2771.88 1073.3,2769.95 1073.07,2769.2C1072.7,2768.02 1071.78,2767.25 1071.27,2766.18C1070.78,2765.16 1070,2764.42 1069.65,2763.36L1069.8,2762.2C1071.58,2761.05 1073.24,2763.97 1073.95,2765.2L1074.49,2766.37L1074.45,2766.48L1074.94,2767.25C1075.47,2768.17 1075.72,2769.18 1075.64,2770.22" style="fill:rgb(249,176,77);fill-rule:nonzero;"/>
        </g>
        <g id="path326" transform="matrix(0.133333,0,0,-0.133333,0,491.08)">
            <path d="M1092.85,2762.27L1092.48,2763.36L1091.17,2765.53L1090.49,2765.1C1090.59,2764.18 1090.72,2763.26 1090.82,2762.33L1090.64,2761.06L1090.68,2759.92L1091.43,2759.14L1091.54,2759.14C1092.66,2759.04 1094,2760.56 1094.04,2761.61L1092.85,2762.27" style="fill:rgb(249,176,77);fill-rule:nonzero;"/>
        </g>
        <g id="path328" transform="matrix(0.133333,0,0,-0.133333,0,491.08)">
            <path d="M1115.02,2772.58L1113.93,2773.92L1112.62,2775.6L1111.27,2774.45C1111.52,2773.21 1112.03,2771.64 1111.58,2770.43C1111.07,2769.14 1112.44,2768.89 1113.3,2769.33L1114.96,2770.99L1115.02,2772.58" style="fill:rgb(249,176,77);fill-rule:nonzero;"/>
        </g>
        <g id="path330" transform="matrix(0.133333,0,0,-0.133333,0,491.08)">
            <path d="M1124.65,2778.05L1124.02,2780.53L1122.38,2779.14L1122.34,2776.88L1121.97,2774.27C1121.54,2772.07 1125.1,2773.84 1124.98,2775.48L1124.65,2778.05" style="fill:rgb(249,176,77);fill-rule:nonzero;"/>
        </g>
        <g id="path332" transform="matrix(0.133333,0,0,-0.133333,0,491.08)">
            <path d="M1064.77,2824.98C1046.07,2824.5 1027.62,2820.96 1010.06,2814.52C995.059,2809.04 973.496,2800.13 964.98,2785.7C963.887,2783.84 965.918,2783.23 967.207,2784.31C995.254,2807.57 1029.69,2816.87 1064.53,2824.45L1064.77,2824.98" style="fill:white;fill-rule:nonzero;"/>
        </g>
        <g id="path334" transform="matrix(0.133333,0,0,-0.133333,0,491.08)">
            <path d="M963.711,2780.47C960.488,2778.05 957.871,2773.73 957.852,2769.63C957.852,2768.64 958.867,2768.69 959.531,2769.03C960.469,2769.51 961.152,2770.38 961.309,2771.39C961.816,2774.23 962.305,2777.27 964.297,2779.5C964.902,2780.17 964.668,2781.19 963.711,2780.47" style="fill:white;fill-rule:nonzero;"/>
        </g>
        <g id="path336" transform="matrix(0.133333,0,0,-0.133333,0,491.08)">
            <path d="M1158.61,2740.73C1158.61,2740.73 1174.18,2652.59 1280.39,2680.66C1339.02,2700.86 1366.82,2756.03 1350.25,2798.89C1327.23,2768.39 1158.61,2740.73 1158.61,2740.73" style="fill:rgb(188,39,42);fill-rule:nonzero;"/>
        </g>
        <g id="path338" transform="matrix(0.133333,0,0,-0.133333,0,491.08)">
            <path d="M1346.48,2808.77C1362.21,2778.41 1332.93,2731.89 1281.48,2710.56C1230.02,2689.25 1173.71,2703.38 1160.63,2734.99C1147.52,2766.63 1181.35,2806.49 1232.99,2827.37C1275.25,2844.46 1329.18,2842.11 1346.48,2808.77" style="fill:rgb(239,48,47);fill-rule:nonzero;"/>
        </g>
        <g id="path340" transform="matrix(0.133333,0,0,-0.133333,0,491.08)">
            <path d="M1341.54,2809.59C1356.15,2781.55 1327.83,2737.97 1278.69,2717.62C1229.53,2697.27 1176.17,2709.79 1164.04,2739.04C1151.93,2768.32 1184.53,2805.7 1233.85,2825.66C1274.2,2842 1325.43,2840.39 1341.54,2809.59" style="fill:rgb(241,69,61);fill-rule:nonzero;"/>
        </g>
        <g id="path342" transform="matrix(0.133333,0,0,-0.133333,0,491.08)">
            <path d="M1279.69,2828.46C1262.91,2828.58 1247.05,2821.09 1231.78,2814.86C1215.41,2808.18 1201.7,2796.77 1189.86,2783.89L1189.34,2782.33C1188.18,2780.88 1187.13,2779.4 1186.15,2777.87C1182.36,2771.92 1182.44,2765.32 1181.06,2758.6C1179.59,2751.44 1174.53,2741.04 1176.93,2733.57C1188.22,2698.09 1232.83,2744.24 1242.07,2759.69C1252.58,2777.33 1261.05,2794.22 1276.84,2807.95C1281.56,2812.05 1294.3,2828.34 1279.69,2828.46" style="fill:rgb(205,42,43);fill-rule:nonzero;"/>
        </g>
        <g id="path344" transform="matrix(0.133333,0,0,-0.133333,0,491.08)">
            <path d="M1241.13,2758.19L1241.13,2758.2L1241.13,2758.19M1241.21,2758.32L1241.21,2758.33L1241.21,2758.32M1241.29,2758.45C1241.3,2758.45 1241.3,2758.46 1241.3,2758.46C1241.3,2758.46 1241.3,2758.45 1241.29,2758.45M1241.45,2758.69C1241.46,2758.7 1241.46,2758.71 1241.47,2758.72C1241.46,2758.71 1241.46,2758.7 1241.45,2758.69M1241.53,2758.82C1241.54,2758.83 1241.54,2758.84 1241.55,2758.85C1241.54,2758.84 1241.54,2758.83 1241.53,2758.82M1241.61,2758.95C1241.62,2758.96 1241.63,2758.97 1241.63,2758.98C1241.63,2758.97 1241.62,2758.96 1241.61,2758.95M1241.7,2759.08C1241.7,2759.09 1241.7,2759.09 1241.71,2759.1C1241.7,2759.09 1241.7,2759.09 1241.7,2759.08M1241.76,2759.19C1241.77,2759.2 1241.78,2759.21 1241.79,2759.23C1241.78,2759.21 1241.77,2759.2 1241.76,2759.19M1241.84,2759.31C1241.85,2759.32 1241.85,2759.33 1241.86,2759.35C1241.85,2759.34 1241.85,2759.32 1241.84,2759.31M1241.92,2759.44C1241.92,2759.45 1241.93,2759.46 1241.94,2759.47C1241.93,2759.46 1241.92,2759.45 1241.92,2759.44M1241.99,2759.57C1242,2759.57 1242,2759.58 1242.01,2759.59C1242,2759.58 1242,2759.57 1241.99,2759.57M1242.07,2759.69C1252.58,2777.33 1261.05,2794.22 1276.84,2807.95C1280.83,2811.41 1290.52,2823.55 1284.66,2827.33C1284.66,2827.34 1284.67,2827.34 1284.67,2827.35C1290.53,2823.56 1280.84,2811.41 1276.84,2807.95C1261.05,2794.22 1252.58,2777.33 1242.07,2759.69" style="fill:rgb(191,30,36);fill-rule:nonzero;"/>
        </g>
        <g id="path346" transform="matrix(0.133333,0,0,-0.133333,0,491.08)">
            <path d="M1224.18,2738.73C1228.36,2746.75 1231.52,2755.05 1231.84,2764.59C1232.05,2771.5 1229.92,2778.3 1229.8,2785.2C1229.69,2795.95 1238.95,2798.8 1247.48,2800.58C1258.07,2802.77 1266.97,2804.2 1275.14,2811.92C1279.62,2816.15 1282.61,2821.55 1284.66,2827.33C1290.52,2823.55 1280.83,2811.41 1276.84,2807.95C1261.05,2794.22 1252.58,2777.33 1242.07,2759.69C1242.05,2759.66 1242.03,2759.62 1242.01,2759.59C1242,2759.58 1242,2759.57 1241.99,2759.57C1241.98,2759.54 1241.96,2759.5 1241.94,2759.47C1241.93,2759.46 1241.92,2759.45 1241.92,2759.44C1241.9,2759.41 1241.88,2759.38 1241.86,2759.35C1241.85,2759.33 1241.85,2759.32 1241.84,2759.31C1241.82,2759.29 1241.81,2759.26 1241.79,2759.23C1241.78,2759.21 1241.77,2759.2 1241.76,2759.19C1241.75,2759.16 1241.73,2759.13 1241.71,2759.1C1241.7,2759.09 1241.7,2759.09 1241.7,2759.08C1241.68,2759.05 1241.65,2759.02 1241.63,2758.98C1241.63,2758.97 1241.62,2758.96 1241.61,2758.95C1241.59,2758.91 1241.57,2758.88 1241.55,2758.85C1241.54,2758.84 1241.54,2758.83 1241.53,2758.82C1241.51,2758.79 1241.49,2758.75 1241.47,2758.72C1241.46,2758.71 1241.46,2758.7 1241.45,2758.69C1241.4,2758.62 1241.35,2758.54 1241.3,2758.46C1241.3,2758.46 1241.3,2758.45 1241.29,2758.45C1241.27,2758.41 1241.24,2758.37 1241.21,2758.33L1241.21,2758.32C1241.18,2758.28 1241.16,2758.24 1241.13,2758.2L1241.13,2758.19C1237.78,2753.11 1231.54,2745.66 1224.18,2738.73" style="fill:rgb(157,27,32);fill-rule:nonzero;"/>
        </g>
        <g id="path348" transform="matrix(0.133333,0,0,-0.133333,0,491.08)">
            <path d="M1321.15,2817.28C1313.09,2818.9 1304.8,2814.75 1297.71,2810.48C1288.91,2805.18 1281.56,2798.8 1277.07,2789.33C1272.09,2778.82 1269.57,2768.87 1261.23,2760.15C1253.73,2752.32 1244.96,2745.63 1237.19,2738.09C1234.75,2735.71 1215.35,2717.22 1221.95,2712.52C1233.28,2704.47 1255.88,2719.66 1266.25,2723.65C1280.8,2729.24 1296.66,2734.03 1308.26,2745.04C1320.33,2756.53 1323.07,2765.09 1329.02,2780.56C1332.71,2790.09 1336.78,2808.18 1328.05,2814.26C1325.8,2815.84 1323.48,2816.79 1321.15,2817.28" style="fill:rgb(205,42,43);fill-rule:nonzero;"/>
        </g>
        <g id="path350" transform="matrix(0.133333,0,0,-0.133333,0,491.08)">
            <path d="M1263.64,2762.9C1270.1,2770.95 1272.6,2779.92 1277.07,2789.33C1272.6,2779.91 1270.12,2770.94 1263.64,2762.9" style="fill:rgb(191,30,36);fill-rule:nonzero;"/>
        </g>
        <g id="path352" transform="matrix(0.133333,0,0,-0.133333,0,491.08)">
            <path d="M1261.54,2760.47C1262.29,2761.27 1262.99,2762.08 1263.64,2762.9C1270.12,2770.94 1272.6,2779.91 1277.07,2789.33C1280.39,2796.3 1285.25,2801.59 1291.09,2806.02L1290.68,2804.57C1288.26,2794.25 1299.1,2780.48 1291.39,2771.86C1288.07,2768.14 1281.78,2767.01 1277.19,2765.69C1272.58,2764.37 1267.99,2762.97 1263.48,2761.27L1261.54,2760.47" style="fill:rgb(157,27,32);fill-rule:nonzero;"/>
        </g>
        <g id="path354" transform="matrix(0.133333,0,0,-0.133333,0,491.08)">
            <path d="M1193.57,2740.24C1193.16,2741.16 1191.95,2739.9 1191.7,2739.48L1190.57,2738.36L1189.51,2737.23C1188.67,2736.46 1187.25,2734.75 1187.79,2733.55C1188.3,2732.45 1189.73,2733.43 1190.27,2733.95C1191.21,2734.8 1192.07,2736.1 1192.73,2737.17C1193.26,2738.03 1194,2739.22 1193.57,2740.24" style="fill:rgb(249,176,77);fill-rule:nonzero;"/>
        </g>
        <g id="path356" transform="matrix(0.133333,0,0,-0.133333,0,491.08)">
            <path d="M1192.79,2755.93L1190.23,2754.36C1189.1,2753.68 1187.99,2752.8 1187.19,2751.75L1186.72,2750.2L1186.78,2750.09L1187.75,2749.73C1189.1,2750.29 1189.96,2751.48 1190.88,2752.58L1192.21,2754.45L1193.13,2755.73L1192.79,2755.93" style="fill:rgb(249,176,77);fill-rule:nonzero;"/>
        </g>
        <g id="path358" transform="matrix(0.133333,0,0,-0.133333,0,491.08)">
            <path d="M1190.68,2770.32C1188.75,2769.4 1186.33,2768.64 1185.06,2766.79C1184.67,2766.19 1184.36,2764.61 1185.64,2765.1C1187.75,2765.93 1189.67,2767.89 1191.11,2769.62L1190.68,2770.32" style="fill:rgb(249,176,77);fill-rule:nonzero;"/>
        </g>
        <g id="path360" transform="matrix(0.133333,0,0,-0.133333,0,491.08)">
            <path d="M1210.16,2789.27C1209.04,2789.11 1208.03,2788.85 1206.93,2788.48C1205.57,2787.99 1204.02,2787.57 1203.01,2786.45C1202.66,2786.06 1201.76,2784.83 1202.68,2784.48C1204,2783.98 1205.8,2785.7 1206.89,2786.34C1207.99,2786.98 1209.49,2787.54 1210.27,2788.58L1210.16,2789.27" style="fill:rgb(249,176,77);fill-rule:nonzero;"/>
        </g>
        <g id="path362" transform="matrix(0.133333,0,0,-0.133333,0,491.08)">
            <path d="M1255.68,2741.39L1254.24,2740.65C1253.38,2738.3 1252.15,2736.04 1251.09,2733.77L1251.05,2732.45L1251.19,2732.28L1252.52,2732.48C1253.93,2733.67 1254.43,2735.36 1255.08,2737.05C1255.59,2738.39 1255.96,2739.96 1255.68,2741.39" style="fill:rgb(249,176,77);fill-rule:nonzero;"/>
        </g>
        <g id="path364" transform="matrix(0.133333,0,0,-0.133333,0,491.08)">
            <path d="M1268.44,2742.86L1267.95,2742.54L1267.19,2739.68C1266.91,2738.39 1266.48,2737.15 1266.05,2735.92L1266.15,2735.07L1266.35,2734.86L1268.05,2735.54C1269.49,2737.33 1269.04,2740.75 1268.44,2742.86" style="fill:rgb(249,176,77);fill-rule:nonzero;"/>
        </g>
        <g id="path366" transform="matrix(0.133333,0,0,-0.133333,0,491.08)">
            <path d="M1288.83,2746.34C1288.34,2747.59 1289.04,2749.01 1287.77,2749.88L1286.43,2748.74C1286.78,2747.34 1285.53,2745.82 1286.21,2744.43C1286.82,2743.13 1289.24,2745.25 1288.83,2746.34" style="fill:rgb(249,176,77);fill-rule:nonzero;"/>
        </g>
        <g id="path368" transform="matrix(0.133333,0,0,-0.133333,0,491.08)">
            <path d="M1306.43,2757.17L1305.23,2758.18L1303.24,2758.94L1302.42,2758C1303.28,2756.95 1303.46,2755.68 1304.16,2754.57L1305.72,2754.82L1306.62,2755.84L1306.43,2757.17" style="fill:rgb(249,176,77);fill-rule:nonzero;"/>
        </g>
        <g id="path370" transform="matrix(0.133333,0,0,-0.133333,0,491.08)">
            <path d="M1274.8,2833.32C1231.52,2829.48 1181.31,2810.23 1166.52,2765.02C1165.68,2762.41 1169.39,2764.52 1170,2765.58C1180.8,2785.25 1192.7,2802.11 1213.85,2811.41C1224.82,2816.23 1235.41,2821.34 1246.89,2824.92C1255.92,2827.72 1265.25,2828.97 1274.2,2831.82C1274.61,2831.95 1275.74,2833.39 1274.8,2833.32" style="fill:white;fill-rule:nonzero;"/>
        </g>
        <g id="path372" transform="matrix(0.133333,0,0,-0.133333,0,491.08)">
            <path d="M1166.74,2756.68C1166.74,2757.89 1167.62,2759.42 1166.97,2760.93C1166.5,2761.98 1164.88,2760.25 1164.98,2759.48C1165.14,2758.49 1164.67,2757.43 1164.12,2756.61L1163.28,2754.04C1162.91,2752.45 1162.58,2750.62 1164.28,2749.82C1165.23,2749.36 1166.89,2751.06 1166.8,2751.98C1166.6,2753.51 1166.76,2755.12 1166.74,2756.68" style="fill:white;fill-rule:nonzero;"/>
        </g>
        <g id="path374" transform="matrix(0.133333,0,0,-0.133333,0,491.08)">
            <path d="M826.66,2759.44C824.941,2735.45 804.082,2717.41 780.098,2719.13C756.113,2720.86 738.066,2741.71 739.785,2765.7C741.523,2789.69 762.363,2807.74 786.367,2806.01C810.352,2804.28 828.398,2783.42 826.66,2759.44" style="fill:rgb(123,203,42);fill-rule:nonzero;"/>
        </g>
        <g id="path376" transform="matrix(0.133333,0,0,-0.133333,0,491.08)">
            <path d="M792.07,2793.9C795.762,2786.08 789.375,2775.3 777.793,2769.8C766.211,2764.34 753.809,2766.24 750.098,2774.05C746.406,2781.89 752.793,2792.66 764.375,2798.15C775.977,2803.64 788.379,2801.73 792.07,2793.9" style="fill:rgb(162,214,29);fill-rule:nonzero;"/>
        </g>
        <g id="path378" transform="matrix(0.133333,0,0,-0.133333,0,491.08)">
            <path d="M771.094,2801.64C760.684,2798.59 747.168,2788.09 747.363,2776.18C747.383,2774.09 750.293,2776.27 750.664,2777.12C754.902,2786.82 760.742,2794.9 770.684,2799.29C771.523,2799.67 772.813,2802.14 771.094,2801.64" style="fill:white;fill-rule:nonzero;"/>
        </g>
        <g id="path380" transform="matrix(0.133333,0,0,-0.133333,0,491.08)">
            <path d="M748.477,2763.06C748.379,2764.69 748.438,2766.33 748.359,2767.97C748.281,2769.61 745.879,2767.77 745.703,2766.92C745.117,2763.97 742.656,2758.17 745.371,2755.73C746.66,2754.59 748.789,2757.09 748.848,2758.27C748.906,2759.88 748.555,2761.46 748.477,2763.06" style="fill:white;fill-rule:nonzero;"/>
        </g>
        <g id="path382" transform="matrix(0.133333,0,0,-0.133333,0,491.08)">
            <path d="M906.328,2796.9C905.098,2772.88 884.609,2754.41 860.586,2755.65C836.563,2756.91 818.105,2777.39 819.355,2801.41C820.586,2825.43 841.094,2843.88 865.098,2842.65C889.121,2841.4 907.578,2820.92 906.328,2796.9" style="fill:rgb(123,203,42);fill-rule:nonzero;"/>
        </g>
        <g id="path384" transform="matrix(0.133333,0,0,-0.133333,0,491.08)">
            <path d="M871.035,2830.67C874.922,2822.91 868.73,2811.98 857.266,2806.28C845.781,2800.58 833.359,2802.23 829.492,2809.98C825.645,2817.72 831.816,2828.63 843.281,2834.34C854.766,2840.06 867.188,2838.4 871.035,2830.67" style="fill:rgb(162,214,29);fill-rule:nonzero;"/>
        </g>
        <g id="path386" transform="matrix(0.133333,0,0,-0.133333,0,491.08)">
            <path d="M849.902,2837.96C839.57,2834.71 826.289,2823.95 826.68,2812.04C826.777,2809.95 829.629,2812.19 830,2813.05C834.023,2822.82 839.727,2831.03 849.551,2835.62C850.391,2836.01 851.641,2838.52 849.902,2837.96" style="fill:white;fill-rule:nonzero;"/>
        </g>
        <g id="path388" transform="matrix(0.133333,0,0,-0.133333,0,491.08)">
            <path d="M828.086,2798.95C827.949,2800.58 827.969,2802.2 827.871,2803.84C827.773,2805.49 825.391,2803.61 825.234,2802.74C824.707,2799.77 822.383,2793.94 825.137,2791.55C826.426,2790.43 828.535,2792.98 828.555,2794.15C828.594,2795.77 828.203,2797.35 828.086,2798.95" style="fill:white;fill-rule:nonzero;"/>
        </g>
        <g id="path390" transform="matrix(0.133333,0,0,-0.133333,0,491.08)">
            <path d="M946.328,2730.04C944.59,2706.07 923.73,2688 899.746,2689.74C875.742,2691.46 857.715,2712.33 859.434,2736.31C861.172,2760.3 882.012,2778.34 906.016,2776.63C930,2774.9 948.047,2754.04 946.328,2730.04" style="fill:rgb(123,203,42);fill-rule:nonzero;"/>
        </g>
        <g id="path392" transform="matrix(0.133333,0,0,-0.133333,0,491.08)">
            <path d="M911.719,2764.52C915.41,2756.7 909.023,2745.91 897.441,2740.43C885.84,2734.94 873.457,2736.85 869.766,2744.67C866.055,2752.48 872.441,2763.29 884.023,2768.74C895.625,2774.24 908.008,2772.34 911.719,2764.52" style="fill:rgb(162,214,29);fill-rule:nonzero;"/>
        </g>
        <g id="path394" transform="matrix(0.133333,0,0,-0.133333,0,491.08)">
            <path d="M890.723,2772.26C880.332,2769.2 866.836,2758.7 866.992,2746.78C867.031,2744.71 869.922,2746.89 870.313,2747.74C874.551,2757.44 880.391,2765.51 890.332,2769.91C891.152,2770.28 892.461,2772.76 890.723,2772.26" style="fill:white;fill-rule:nonzero;"/>
        </g>
        <g id="path396" transform="matrix(0.133333,0,0,-0.133333,0,491.08)">
            <path d="M868.105,2733.67C868.027,2735.31 868.086,2736.94 868.008,2738.59C867.93,2740.23 865.527,2738.39 865.352,2737.52C864.766,2734.57 862.305,2728.78 865.02,2726.34C866.289,2725.2 868.438,2727.7 868.496,2728.89C868.555,2730.49 868.203,2732.07 868.105,2733.67" style="fill:white;fill-rule:nonzero;"/>
        </g>
    </g>
</svg>
