<?xml version="1.0" encoding="UTF-8" standalone="no"?>
<!DOCTYPE svg PUBLIC "-//W3C//DTD SVG 1.1//EN" "http://www.w3.org/Graphics/SVG/1.1/DTD/svg11.dtd">
<svg width="100%" height="100%" viewBox="0 0 1400 1000" version="1.1" xmlns="http://www.w3.org/2000/svg" xmlns:xlink="http://www.w3.org/1999/xlink" xml:space="preserve" xmlns:serif="http://www.serif.com/" style="fill-rule:evenodd;clip-rule:evenodd;stroke-linejoin:round;stroke-miterlimit:2;">
    <g transform="matrix(0.680339,0,0,0.680339,-2.81559,-92.7112)">
        <path d="M1911.3,580.8L1911.3,580.9C1921.2,627.6 1918.7,677.3 1915,724.9C1911.5,769.4 1890.9,812.1 1877.6,854.7C1851.6,938.3 1814.1,1019.8 1801.8,1106.8C1795.8,1149.1 1797.8,1191.2 1807.9,1232.8C1819.3,1279.6 1836.3,1325.2 1841.2,1373.4C1841.8,1378.9 1842.1,1384.3 1842.2,1389.8C1852,1344.4 1846.7,1294.2 1840.1,1247.9C1833.9,1204 1827.3,1160.4 1829.5,1116C1831.8,1071.1 1841.1,1027 1852.6,983.6C1875.8,896.1 1908.2,810.7 1918.4,720.3C1923.8,673.2 1921.1,626.1 1911.3,580.8M174,441.1C161.1,453.5 149.3,467 138.8,481.5C116.8,512 101.5,547.5 96.2,584.8C89.7,630.5 97.7,676.4 111.4,720.1C125.4,764.9 144.6,807.9 159.7,852.3C175.5,899.1 185.7,947.7 190.5,996.9C195.3,1046.2 195.1,1096 190.9,1145.4C186.9,1192.9 178.6,1240.8 184.3,1288.5C189.1,1328.7 204.4,1365.7 231.8,1395.8C241.7,1406.6 252.7,1416.2 264.6,1424.6C218.7,1360.1 216.3,1275.3 230.7,1200C248.7,1105.6 292.5,1015.1 292.3,917.8C292.1,815.5 247,719.8 213.5,624.6C192.6,565.4 175.7,503.4 174,441.1M1851.1,435.8C1869.8,471.9 1888.3,501.5 1902,545.3C1890.2,506.6 1873,469.7 1851.1,435.8M1493.3,241.9C1477.6,241.9 1462,242.8 1446.4,244.6C1358,254.9 1276.6,291.9 1195.8,326.8C1155.1,344.4 1114,361.5 1071.5,374.5C1045,382.6 1018.1,388.6 990.9,392.5C1049.9,421.2 1111.9,444 1177.5,452.7C1194.3,454.9 1211.2,456 1228,456C1260.2,456 1292.2,452.1 1323.6,444.6C1373.3,432.8 1420.5,413.8 1466.5,392.5C1526.4,364.7 1602,316.8 1673.5,316.8C1699.7,316.8 1725.4,323.3 1749.6,339.6C1776.1,357.5 1805.9,378.9 1828.2,403.4C1792.4,357.8 1747.2,319.3 1694.3,291.7C1632.5,259.6 1562.9,241.9 1493.3,241.9" style="fill:rgb(129,166,189);fill-opacity:0.5;fill-rule:nonzero;"/>
        <path d="M1842.3,1389.7C1835.1,1423 1819.8,1453.7 1791,1478.3C1728.4,1531.9 1637,1538.3 1558.3,1541.3C1545,1541.8 1531.68,1542.89 1518.5,1542.1C1345.88,1531.71 1244.61,1495.28 1019.3,1429.4C1017.4,1432.5 1023.5,1429.4 1019.3,1429.4C1018.4,1429.4 1017.5,1429.3 1016.6,1429.1C968.1,1417.9 918.7,1411.8 868.9,1411C865.1,1410.9 861.2,1410.9 857.4,1410.9C810.5,1410.9 763.8,1415.6 717.8,1424.7C669,1434.4 621.1,1448.1 572.6,1458.9C528.9,1468.7 484.3,1475.8 439.9,1475.8C400.1,1475.8 360.5,1470 322.2,1455.1C301.9,1447.2 282.3,1437.1 264.5,1424.5C270.1,1432.4 276.3,1439.9 283.2,1447.1C326.6,1492.3 386,1506.2 446.6,1506.2C478.1,1506.2 510,1502.4 540.1,1497.4C592.5,1488.6 644.5,1477.1 696.6,1466.7C751.5,1455.7 806.4,1444.8 861.3,1433.8C861.5,1433.8 861.7,1433.7 861.9,1433.7C882.4,1429.6 903.2,1427.6 924,1427.6C948.3,1427.6 972.6,1430.4 996.3,1436C1051,1448.9 1104.7,1466.2 1157.6,1484C1247.6,1514.1 1337.1,1547 1430.6,1565.6C1476.8,1574.8 1525.6,1581.3 1574.1,1581.3C1617.6,1581.3 1660.8,1576.1 1701.6,1563.1C1740.7,1550.6 1779.2,1530.4 1805.3,1499C1831.5,1467.3 1843,1429.2 1842.3,1389.7M1902,545.3C1905.6,557 1908.7,568.8 1911.3,580.8C1908.5,567.8 1905.4,556.1 1902,545.3M1828.1,403.4C1836.3,413.8 1844,424.6 1851.2,435.7C1845.3,424.4 1837.3,413.6 1828.1,403.4M446.3,161.1C418.8,161.1 391.4,164.1 364.4,170.7C320.8,181.3 279.6,202.4 248.3,233.7C217.8,264.3 197.1,303 185.6,343.7C176.5,376 173.2,408.6 174,441.1C216.1,400.5 269.7,371.6 325.9,356.8C368.1,345.7 411.1,341.3 454.4,341.3C510.4,341.3 566.6,348.6 621.5,357.7C719.6,374 817.5,397.6 917.4,397.6C921.2,397.6 925,397.6 928.9,397.5C949.7,397.1 970.4,395.5 990.8,392.6C960,377.6 930,361.1 900.8,344.2C815,294.6 731.9,240.3 639.2,202.8C578.5,178.2 512.4,161.1 446.3,161.1" style="fill:rgb(129,166,189);fill-opacity:0.5;fill-rule:nonzero;"/>
        <path d="M1673.4,316.8C1601.9,316.8 1526.3,364.8 1466.4,392.5C1420.5,413.8 1373.2,432.8 1323.5,444.6C1292.1,452 1260,456 1227.9,456C1211.1,456 1194.2,454.9 1177.4,452.7C1111.9,444.1 1049.8,421.2 990.8,392.5C970.4,395.4 949.7,397.1 928.9,397.4C925.1,397.5 921.2,397.5 917.4,397.5C817.5,397.5 719.6,374 621.5,357.6C566.6,348.5 510.3,341.2 454.4,341.2C411.2,341.2 368.1,345.5 325.9,356.7C269.6,371.5 216.1,400.5 174,441C175.6,503.3 192.6,565.4 213.3,624.5C246.7,719.7 291.9,815.4 292.1,917.7C292.3,1015 248.4,1105.4 230.5,1199.9C216.2,1275.2 218.5,1359.9 264.4,1424.5C282.2,1437.1 301.8,1447.2 322.1,1455.1C360.4,1470 400,1475.8 439.8,1475.8C484.2,1475.8 528.8,1468.6 572.5,1458.9C621,1448.1 668.9,1434.4 717.7,1424.7C763.7,1415.5 810.4,1410.9 857.3,1410.9C861.1,1410.9 865,1410.9 868.8,1411C918.6,1411.8 968,1417.9 1016.5,1429.1C1017.5,1429.3 1018.4,1429.4 1019.2,1429.4C1023.3,1429.4 1348.7,1542.1 1518.4,1542.1C1531.7,1542.1 1545,1541.8 1558.2,1541.3C1636.9,1538.3 1728.3,1531.9 1790.9,1478.3C1819.7,1453.7 1835,1423 1842.2,1389.7C1842.1,1384.3 1841.8,1378.8 1841.2,1373.3C1836.3,1325.2 1819.3,1279.6 1807.9,1232.7C1797.8,1191.1 1795.8,1149 1801.8,1106.7C1814.1,1019.7 1851.6,938.2 1877.6,854.6C1890.8,812 1911.5,769.2 1915,724.8C1918.7,677.2 1921.2,627.6 1911.3,580.8L1911.3,580.7C1908.7,568.7 1905.6,556.9 1902,545.2C1888.3,501.4 1869.8,471.8 1851.1,435.7C1843.9,424.6 1836.2,413.8 1828,403.4C1805.7,378.8 1775.9,357.5 1749.4,339.6C1725.4,323.2 1699.7,316.8 1673.4,316.8" style="fill:rgb(129,166,189);fill-opacity:0.9;fill-rule:nonzero;"/>
    </g>
    <g transform="matrix(1,0,0,1,24.1025,48.3379)">
        <g transform="matrix(1,0,0,1,212.89,127.403)">
            <ellipse cx="335.644" cy="285.661" rx="24.504" ry="2.72" style="fill:rgb(242,242,242);"/>
        </g>
        <g transform="matrix(1,0,0,1,58.5376,50)">
            <path d="M778.65,250.35L774.651,250.35L774.651,140.805C774.651,106.024 746.03,77.403 711.249,77.403L479.162,77.403C444.381,77.403 415.76,106.023 415.76,140.805L415.76,741.779C415.76,776.56 444.381,805.181 479.162,805.181L711.249,805.181C746.03,805.181 774.651,776.56 774.651,741.779L774.651,328.326L778.65,328.326L778.65,250.35Z" style="fill:rgb(63,61,86);fill-rule:nonzero;"/>
        </g>
        <g transform="matrix(1,0,0,1,58.5376,50)">
            <path d="M761.156,141.247L761.156,741.337C761.156,767.312 739.781,788.687 713.806,788.687L480.606,788.687C454.631,788.687 433.256,767.312 433.256,741.337L433.256,141.247C433.256,115.272 454.631,93.898 480.606,93.897L508.896,93.897C507.8,96.591 507.236,99.472 507.236,102.381C507.236,114.721 517.386,124.878 529.726,124.887L662.686,124.887C675.026,124.878 685.176,114.721 685.176,102.38C685.176,99.472 684.612,96.591 683.516,93.897L713.806,93.897C739.781,93.898 761.156,115.272 761.156,141.247Z" style="fill:white;fill-rule:nonzero;"/>
        </g>
        <g transform="matrix(1,0,0,1,58.5376,50)">
            <path d="M644.5,230.173L644.487,230.173C595.121,230.173 554.5,270.795 554.5,320.16C554.5,351.513 570.886,380.688 597.66,397.003L598.24,397.343C598.72,397.633 599.2,397.913 599.68,398.183C600.49,398.663 601.3,399.123 602.13,399.563C602.69,399.853 603.25,400.153 603.81,400.433C610.057,403.622 616.66,406.059 623.48,407.693C624.89,408.033 626.3,408.343 627.74,408.603C633.265,409.65 638.877,410.176 644.5,410.173C645.92,410.173 647.33,410.143 648.74,410.073C650.72,409.983 652.68,409.827 654.62,409.603C656.97,409.343 659.29,408.99 661.58,408.543C666.205,407.653 670.753,406.399 675.18,404.793C675.74,404.583 676.3,404.373 676.85,404.163C678.36,403.583 679.843,402.963 681.3,402.303C682.9,401.583 684.477,400.817 686.03,400.003C701.596,391.851 714.466,379.353 723.07,364.033C723.11,363.953 723.16,363.873 723.2,363.793C727.791,355.555 731.048,346.641 732.85,337.383C733.948,331.729 734.5,325.983 734.5,320.224C734.5,270.843 693.881,230.201 644.5,230.173Z" style="fill:rgb(235,235,235);fill-rule:nonzero;"/>
        </g>
        <g transform="matrix(1,0,0,1,58.5376,50)">
            <path d="M686.03,400.003C684.48,400.813 682.903,401.58 681.3,402.303C679.84,402.963 678.357,403.583 676.85,404.163C676.3,404.373 675.74,404.583 675.18,404.793C670.753,406.399 666.205,407.653 661.58,408.543C659.29,408.993 656.97,409.347 654.62,409.603C652.68,409.823 650.72,409.98 648.74,410.073C647.33,410.143 645.92,410.173 644.5,410.173C638.877,410.176 633.265,409.65 627.74,408.603C626.3,408.343 624.89,408.033 623.48,407.693C616.66,406.059 610.057,403.622 603.81,400.433C603.25,400.153 602.69,399.853 602.13,399.563C601.3,399.123 600.49,398.663 599.68,398.183C600.07,397.643 600.49,397.113 600.92,396.593C610.982,384.124 626.17,376.863 642.193,376.863C656.3,376.863 669.84,382.492 679.79,392.493C681.614,394.324 683.305,396.282 684.85,398.353C685.26,398.893 685.65,399.443 686.03,400.003Z" style="fill:rgb(16,0,186);fill-rule:nonzero;"/>
        </g>
        <g transform="matrix(1,0,0,1,212.89,127.403)">
            <circle cx="492.143" cy="234.764" r="43.91" style="fill:rgb(47,46,65);"/>
        </g>
        <g transform="matrix(0.877455,-0.479659,0.479659,0.877455,-19.7975,398.309)">
            <circle cx="642.499" cy="327.462" r="32.681" style="fill:rgb(160,97,106);"/>
        </g>
        <g transform="matrix(1,0,0,1,58.5376,50)">
            <path d="M676.839,306.906C669.372,312.052 660.506,314.792 651.437,314.756C654.672,316.999 658.356,318.515 662.233,319.198C650.174,321.784 637.71,321.854 625.623,319.403C622.936,318.973 620.343,318.082 617.959,316.771C615.557,315.43 613.836,313.128 613.228,310.445C612.425,305.856 616.001,301.687 619.716,298.878C631.229,290.305 646.009,287.352 659.933,290.841C664.425,292.002 668.926,293.965 671.844,297.572C674.762,301.18 675.626,306.742 672.846,310.457L676.839,306.906Z" style="fill:rgb(47,46,65);fill-rule:nonzero;"/>
        </g>
        <g transform="matrix(1,0,0,1,58.5376,50)">
            <path d="M624.26,268.863C623.787,263.895 617.701,260.836 612.942,262.337C608.182,263.837 605.057,268.63 604.113,273.53C603.195,277.696 603.975,282.061 606.278,285.652C608.684,289.114 613.105,291.275 617.228,290.396C621.935,289.393 625.196,284.797 626.13,280.075C627.063,275.354 626.136,270.486 625.211,265.763L624.26,268.863Z" style="fill:rgb(47,46,65);fill-rule:nonzero;"/>
        </g>
        <g transform="matrix(1,0,0,1,58.5376,50)">
            <path d="M691.242,275.96C690.769,270.992 684.683,267.933 679.924,269.434C675.165,270.934 672.04,275.727 671.095,280.627C670.178,284.793 670.957,289.158 673.261,292.749C675.666,296.212 680.087,298.372 684.211,297.493C688.918,296.49 692.179,291.894 693.112,287.172C694.045,282.451 693.119,277.583 692.193,272.86L691.242,275.96Z" style="fill:rgb(47,46,65);fill-rule:nonzero;"/>
        </g>
        <g transform="matrix(1,0,0,1,212.89,127.403)">
            <g transform="matrix(1,0,0,1,-154.353,-77.4028)">
                <path d="M709.419,676.831C707.687,676.166 706.541,674.49 706.549,672.635L706.549,625.602C706.545,622.309 703.837,619.601 700.544,619.597L690.913,619.597C682.683,619.588 675.913,612.818 675.904,604.587L675.904,510.025C675.913,501.795 682.683,495.025 690.913,495.016L1030.64,495.016C1038.87,495.025 1045.64,501.795 1045.65,510.025L1045.65,604.587C1045.64,612.818 1038.87,619.588 1030.64,619.597L768.419,619.597C766.737,619.599 765.13,620.305 763.992,621.544L714.37,675.677C713.524,676.608 712.322,677.14 711.064,677.142C710.501,677.141 709.943,677.036 709.419,676.831Z" style="fill:rgb(235,235,235);fill-rule:nonzero;"/>
            </g>
            <circle cx="563.816" cy="445.193" r="13.134" style="fill:rgb(16,0,186);"/>
            <g transform="matrix(1,0,0,1,-154.353,-77.4028)">
                <path d="M1020.76,595.269L711.684,595.269C711.682,595.269 711.679,595.269 711.676,595.269C707.833,595.269 704.671,592.107 704.671,588.265C704.671,584.422 707.833,581.26 711.676,581.26C711.679,581.26 711.682,581.26 711.684,581.26L1020.76,581.26C1024.61,581.26 1027.77,584.422 1027.77,588.265C1027.77,592.107 1024.61,595.269 1020.76,595.269Z" style="fill:rgb(218,218,218);fill-rule:nonzero;"/>
            </g>
            <g transform="matrix(1,0,0,1,-154.353,-77.4028)">
                <path d="M920.073,565.5L711.684,565.5C711.682,565.5 711.679,565.5 711.676,565.5C707.833,565.5 704.671,562.338 704.671,558.495C704.671,554.652 707.833,551.49 711.676,551.49C711.679,551.49 711.682,551.49 711.684,551.49L920.073,551.49C923.912,551.495 927.069,554.656 927.069,558.495C927.069,562.335 923.912,565.495 920.073,565.5Z" style="fill:rgb(218,218,218);fill-rule:nonzero;"/>
            </g>
            <g transform="matrix(0.185126,0,0,0.185126,739.582,352.22)">
                <path d="M668.586,435.551C670.188,432.894 673.064,431.27 676.167,431.27C679.269,431.27 682.145,432.894 683.747,435.551L696.15,456.118C696.474,456.656 696.903,457.123 697.411,457.492C697.919,457.861 698.495,458.124 699.107,458.266L722.5,463.707C725.522,464.409 727.955,466.643 728.914,469.593C729.873,472.544 729.217,475.781 727.185,478.126L711.457,496.277C711.046,496.752 710.734,497.304 710.541,497.901C710.347,498.498 710.274,499.127 710.328,499.753L712.383,523.683C712.648,526.774 711.276,529.778 708.766,531.602C706.257,533.425 702.975,533.802 700.117,532.594L677.994,523.245C677.416,523.001 676.794,522.875 676.167,522.875C675.539,522.875 674.918,523.001 674.34,523.245L652.216,532.594C649.358,533.802 646.077,533.425 643.567,531.602C641.057,529.778 639.685,526.774 639.95,523.683L642.005,499.753C642.059,499.127 641.987,498.498 641.793,497.901C641.599,497.304 641.287,496.752 640.876,496.277L625.148,478.126C623.116,475.781 622.461,472.544 623.419,469.593C624.378,466.643 626.811,464.409 629.833,463.707L653.227,458.266C653.838,458.124 654.415,457.861 654.922,457.492C655.43,457.123 655.859,456.656 656.183,456.118L668.586,435.551Z" style="fill:rgb(16,0,186);"/>
            </g>
            <g transform="matrix(0.185126,0,0,0.185126,712.783,352.22)">
                <path d="M668.586,435.551C670.188,432.894 673.064,431.27 676.167,431.27C679.269,431.27 682.145,432.894 683.747,435.551L696.15,456.118C696.474,456.656 696.903,457.123 697.411,457.492C697.919,457.861 698.495,458.124 699.107,458.266L722.5,463.707C725.522,464.409 727.955,466.643 728.914,469.593C729.873,472.544 729.217,475.781 727.185,478.126L711.457,496.277C711.046,496.752 710.734,497.304 710.541,497.901C710.347,498.498 710.274,499.127 710.328,499.753L712.383,523.683C712.648,526.774 711.276,529.778 708.766,531.602C706.257,533.425 702.975,533.802 700.117,532.594L677.994,523.245C677.416,523.001 676.794,522.875 676.167,522.875C675.539,522.875 674.918,523.001 674.34,523.245L652.216,532.594C649.358,533.802 646.077,533.425 643.567,531.602C641.057,529.778 639.685,526.774 639.95,523.683L642.005,499.753C642.059,499.127 641.987,498.498 641.793,497.901C641.599,497.304 641.287,496.752 640.876,496.277L625.148,478.126C623.116,475.781 622.461,472.544 623.419,469.593C624.378,466.643 626.811,464.409 629.833,463.707L653.227,458.266C653.838,458.124 654.415,457.861 654.922,457.492C655.43,457.123 655.859,456.656 656.183,456.118L668.586,435.551Z" style="fill:rgb(16,0,186);"/>
            </g>
            <g transform="matrix(0.185126,0,0,0.185126,685.984,352.22)">
                <path d="M668.586,435.551C670.188,432.894 673.064,431.27 676.167,431.27C679.269,431.27 682.145,432.894 683.747,435.551L696.15,456.118C696.474,456.656 696.903,457.123 697.411,457.492C697.919,457.861 698.495,458.124 699.107,458.266L722.5,463.707C725.522,464.409 727.955,466.643 728.914,469.593C729.873,472.544 729.217,475.781 727.185,478.126L711.457,496.277C711.046,496.752 710.734,497.304 710.541,497.901C710.347,498.498 710.274,499.127 710.328,499.753L712.383,523.683C712.648,526.774 711.276,529.778 708.766,531.602C706.257,533.425 702.975,533.802 700.117,532.594L677.994,523.245C677.416,523.001 676.794,522.875 676.167,522.875C675.539,522.875 674.918,523.001 674.34,523.245L652.216,532.594C649.358,533.802 646.077,533.425 643.567,531.602C641.057,529.778 639.685,526.774 639.95,523.683L642.005,499.753C642.059,499.127 641.987,498.498 641.793,497.901C641.599,497.304 641.287,496.752 640.876,496.277L625.148,478.126C623.116,475.781 622.461,472.544 623.419,469.593C624.378,466.643 626.811,464.409 629.833,463.707L653.227,458.266C653.838,458.124 654.415,457.861 654.922,457.492C655.43,457.123 655.859,456.656 656.183,456.118L668.586,435.551Z" style="fill:rgb(16,0,186);"/>
            </g>
            <g transform="matrix(0.185126,0,0,0.185126,659.185,352.22)">
                <path d="M668.586,435.551C670.188,432.894 673.064,431.27 676.167,431.27C679.269,431.27 682.145,432.894 683.747,435.551L696.15,456.118C696.474,456.656 696.903,457.123 697.411,457.492C697.919,457.861 698.495,458.124 699.107,458.266L722.5,463.707C725.522,464.409 727.955,466.643 728.914,469.593C729.873,472.544 729.217,475.781 727.185,478.126L711.457,496.277C711.046,496.752 710.734,497.304 710.541,497.901C710.347,498.498 710.274,499.127 710.328,499.753L712.383,523.683C712.648,526.774 711.276,529.778 708.766,531.602C706.257,533.425 702.975,533.802 700.117,532.594L677.994,523.245C677.416,523.001 676.794,522.875 676.167,522.875C675.539,522.875 674.918,523.001 674.34,523.245L652.216,532.594C649.358,533.802 646.077,533.425 643.567,531.602C641.057,529.778 639.685,526.774 639.95,523.683L642.005,499.753C642.059,499.127 641.987,498.498 641.793,497.901C641.599,497.304 641.287,496.752 640.876,496.277L625.148,478.126C623.116,475.781 622.461,472.544 623.419,469.593C624.378,466.643 626.811,464.409 629.833,463.707L653.227,458.266C653.838,458.124 654.415,457.861 654.922,457.492C655.43,457.123 655.859,456.656 656.183,456.118L668.586,435.551Z" style="fill:rgb(16,0,186);"/>
            </g>
            <g transform="matrix(0.185126,0,0,0.185126,632.385,352.22)">
                <path d="M668.586,435.551C670.188,432.894 673.064,431.27 676.167,431.27C679.269,431.27 682.145,432.894 683.747,435.551L696.15,456.118C696.474,456.656 696.903,457.123 697.411,457.492C697.919,457.861 698.495,458.124 699.107,458.266L722.5,463.707C725.522,464.409 727.955,466.643 728.914,469.593C729.873,472.544 729.217,475.781 727.185,478.126L711.457,496.277C711.046,496.752 710.734,497.304 710.541,497.901C710.347,498.498 710.274,499.127 710.328,499.753L712.383,523.683C712.648,526.774 711.276,529.778 708.766,531.602C706.257,533.425 702.975,533.802 700.117,532.594L677.994,523.245C677.416,523.001 676.794,522.875 676.167,522.875C675.539,522.875 674.918,523.001 674.34,523.245L652.216,532.594C649.358,533.802 646.077,533.425 643.567,531.602C641.057,529.778 639.685,526.774 639.95,523.683L642.005,499.753C642.059,499.127 641.987,498.498 641.793,497.901C641.599,497.304 641.287,496.752 640.876,496.277L625.148,478.126C623.116,475.781 622.461,472.544 623.419,469.593C624.378,466.643 626.811,464.409 629.833,463.707L653.227,458.266C653.838,458.124 654.415,457.861 654.922,457.492C655.43,457.123 655.859,456.656 656.183,456.118L668.586,435.551Z" style="fill:rgb(16,0,186);"/>
            </g>
        </g>
        <g transform="matrix(-1,0,0,1,1104.19,-189.625)">
            <g transform="matrix(1,0,0,1,-154.353,-77.4028)">
                <path d="M709.419,676.831C707.687,676.166 706.541,674.49 706.549,672.635L706.549,625.602C706.545,622.309 703.837,619.601 700.544,619.597L690.913,619.597C682.683,619.588 675.913,612.818 675.904,604.587L675.904,510.025C675.913,501.795 682.683,495.025 690.913,495.016L1030.64,495.016C1038.87,495.025 1045.64,501.795 1045.65,510.025L1045.65,604.587C1045.64,612.818 1038.87,619.588 1030.64,619.597L768.419,619.597C766.737,619.599 765.13,620.305 763.992,621.544L714.37,675.677C713.524,676.608 712.322,677.14 711.064,677.142C710.501,677.141 709.943,677.036 709.419,676.831Z" style="fill:white;fill-rule:nonzero;"/>
            </g>
            <g transform="matrix(1,0,0,1,-154.353,-77.4028)">
                <path d="M709.419,676.831C707.687,676.166 706.541,674.49 706.549,672.635L706.549,625.602C706.545,622.309 703.837,619.601 700.544,619.597L690.913,619.597C682.683,619.588 675.913,612.818 675.904,604.587L675.904,510.025C675.913,501.795 682.683,495.025 690.913,495.016L1030.64,495.016C1038.87,495.025 1045.64,501.795 1045.65,510.025L1045.65,604.587C1045.64,612.818 1038.87,619.588 1030.64,619.597L768.419,619.597C766.737,619.599 765.13,620.305 763.992,621.544L714.37,675.677C713.524,676.608 712.322,677.14 711.064,677.142C710.501,677.141 709.943,677.036 709.419,676.831Z" style="fill:rgb(235,235,235);fill-rule:nonzero;"/>
            </g>
            <circle cx="563.816" cy="445.193" r="13.134" style="fill:rgb(16,0,186);"/>
            <g transform="matrix(1,0,0,1,-154.353,-77.4028)">
                <path d="M1020.76,595.269L711.684,595.269C711.682,595.269 711.679,595.269 711.676,595.269C707.833,595.269 704.671,592.107 704.671,588.265C704.671,584.422 707.833,581.26 711.676,581.26C711.679,581.26 711.682,581.26 711.684,581.26L1020.76,581.26C1024.61,581.26 1027.77,584.422 1027.77,588.265C1027.77,592.107 1024.61,595.269 1020.76,595.269Z" style="fill:rgb(219,219,219);fill-rule:nonzero;"/>
            </g>
            <g transform="matrix(1,0,0,1,-154.353,-77.4028)">
                <path d="M920.073,565.5L711.684,565.5C711.682,565.5 711.679,565.5 711.676,565.5C707.833,565.5 704.671,562.338 704.671,558.495C704.671,554.652 707.833,551.49 711.676,551.49C711.679,551.49 711.682,551.49 711.684,551.49L920.073,551.49C923.912,551.495 927.069,554.656 927.069,558.495C927.069,562.335 923.912,565.495 920.073,565.5Z" style="fill:rgb(219,219,219);fill-rule:nonzero;"/>
            </g>
            <g transform="matrix(0.185126,0,0,0.185126,739.582,352.22)">
                <path d="M668.586,435.551C670.188,432.894 673.064,431.27 676.167,431.27C679.269,431.27 682.145,432.894 683.747,435.551L696.15,456.118C696.474,456.656 696.903,457.123 697.411,457.492C697.919,457.861 698.495,458.124 699.107,458.266L722.5,463.707C725.522,464.409 727.955,466.643 728.914,469.593C729.873,472.544 729.217,475.781 727.185,478.126L711.457,496.277C711.046,496.752 710.734,497.304 710.541,497.901C710.347,498.498 710.274,499.127 710.328,499.753L712.383,523.683C712.648,526.774 711.276,529.778 708.766,531.602C706.257,533.425 702.975,533.802 700.117,532.594L677.994,523.245C677.416,523.001 676.794,522.875 676.167,522.875C675.539,522.875 674.918,523.001 674.34,523.245L652.216,532.594C649.358,533.802 646.077,533.425 643.567,531.602C641.057,529.778 639.685,526.774 639.95,523.683L642.005,499.753C642.059,499.127 641.987,498.498 641.793,497.901C641.599,497.304 641.287,496.752 640.876,496.277L625.148,478.126C623.116,475.781 622.461,472.544 623.419,469.593C624.378,466.643 626.811,464.409 629.833,463.707L653.227,458.266C653.838,458.124 654.415,457.861 654.922,457.492C655.43,457.123 655.859,456.656 656.183,456.118L668.586,435.551Z" style="fill:rgb(16,0,186);"/>
            </g>
            <g transform="matrix(0.185126,0,0,0.185126,712.783,352.22)">
                <path d="M668.586,435.551C670.188,432.894 673.064,431.27 676.167,431.27C679.269,431.27 682.145,432.894 683.747,435.551L696.15,456.118C696.474,456.656 696.903,457.123 697.411,457.492C697.919,457.861 698.495,458.124 699.107,458.266L722.5,463.707C725.522,464.409 727.955,466.643 728.914,469.593C729.873,472.544 729.217,475.781 727.185,478.126L711.457,496.277C711.046,496.752 710.734,497.304 710.541,497.901C710.347,498.498 710.274,499.127 710.328,499.753L712.383,523.683C712.648,526.774 711.276,529.778 708.766,531.602C706.257,533.425 702.975,533.802 700.117,532.594L677.994,523.245C677.416,523.001 676.794,522.875 676.167,522.875C675.539,522.875 674.918,523.001 674.34,523.245L652.216,532.594C649.358,533.802 646.077,533.425 643.567,531.602C641.057,529.778 639.685,526.774 639.95,523.683L642.005,499.753C642.059,499.127 641.987,498.498 641.793,497.901C641.599,497.304 641.287,496.752 640.876,496.277L625.148,478.126C623.116,475.781 622.461,472.544 623.419,469.593C624.378,466.643 626.811,464.409 629.833,463.707L653.227,458.266C653.838,458.124 654.415,457.861 654.922,457.492C655.43,457.123 655.859,456.656 656.183,456.118L668.586,435.551Z" style="fill:rgb(16,0,186);"/>
            </g>
            <g transform="matrix(0.185126,0,0,0.185126,685.984,352.22)">
                <path d="M668.586,435.551C670.188,432.894 673.064,431.27 676.167,431.27C679.269,431.27 682.145,432.894 683.747,435.551L696.15,456.118C696.474,456.656 696.903,457.123 697.411,457.492C697.919,457.861 698.495,458.124 699.107,458.266L722.5,463.707C725.522,464.409 727.955,466.643 728.914,469.593C729.873,472.544 729.217,475.781 727.185,478.126L711.457,496.277C711.046,496.752 710.734,497.304 710.541,497.901C710.347,498.498 710.274,499.127 710.328,499.753L712.383,523.683C712.648,526.774 711.276,529.778 708.766,531.602C706.257,533.425 702.975,533.802 700.117,532.594L677.994,523.245C677.416,523.001 676.794,522.875 676.167,522.875C675.539,522.875 674.918,523.001 674.34,523.245L652.216,532.594C649.358,533.802 646.077,533.425 643.567,531.602C641.057,529.778 639.685,526.774 639.95,523.683L642.005,499.753C642.059,499.127 641.987,498.498 641.793,497.901C641.599,497.304 641.287,496.752 640.876,496.277L625.148,478.126C623.116,475.781 622.461,472.544 623.419,469.593C624.378,466.643 626.811,464.409 629.833,463.707L653.227,458.266C653.838,458.124 654.415,457.861 654.922,457.492C655.43,457.123 655.859,456.656 656.183,456.118L668.586,435.551Z" style="fill:rgb(16,0,186);"/>
            </g>
            <g transform="matrix(0.185126,0,0,0.185126,659.185,352.22)">
                <path d="M668.586,435.551C670.188,432.894 673.064,431.27 676.167,431.27C679.269,431.27 682.145,432.894 683.747,435.551L696.15,456.118C696.474,456.656 696.903,457.123 697.411,457.492C697.919,457.861 698.495,458.124 699.107,458.266L722.5,463.707C725.522,464.409 727.955,466.643 728.914,469.593C729.873,472.544 729.217,475.781 727.185,478.126L711.457,496.277C711.046,496.752 710.734,497.304 710.541,497.901C710.347,498.498 710.274,499.127 710.328,499.753L712.383,523.683C712.648,526.774 711.276,529.778 708.766,531.602C706.257,533.425 702.975,533.802 700.117,532.594L677.994,523.245C677.416,523.001 676.794,522.875 676.167,522.875C675.539,522.875 674.918,523.001 674.34,523.245L652.216,532.594C649.358,533.802 646.077,533.425 643.567,531.602C641.057,529.778 639.685,526.774 639.95,523.683L642.005,499.753C642.059,499.127 641.987,498.498 641.793,497.901C641.599,497.304 641.287,496.752 640.876,496.277L625.148,478.126C623.116,475.781 622.461,472.544 623.419,469.593C624.378,466.643 626.811,464.409 629.833,463.707L653.227,458.266C653.838,458.124 654.415,457.861 654.922,457.492C655.43,457.123 655.859,456.656 656.183,456.118L668.586,435.551Z" style="fill:rgb(16,0,186);"/>
            </g>
            <g transform="matrix(0.185126,0,0,0.185126,632.385,352.22)">
                <path d="M668.586,435.551C670.188,432.894 673.064,431.27 676.167,431.27C679.269,431.27 682.145,432.894 683.747,435.551L696.15,456.118C696.474,456.656 696.903,457.123 697.411,457.492C697.919,457.861 698.495,458.124 699.107,458.266L722.5,463.707C725.522,464.409 727.955,466.643 728.914,469.593C729.873,472.544 729.217,475.781 727.185,478.126L711.457,496.277C711.046,496.752 710.734,497.304 710.541,497.901C710.347,498.498 710.274,499.127 710.328,499.753L712.383,523.683C712.648,526.774 711.276,529.778 708.766,531.602C706.257,533.425 702.975,533.802 700.117,532.594L677.994,523.245C677.416,523.001 676.794,522.875 676.167,522.875C675.539,522.875 674.918,523.001 674.34,523.245L652.216,532.594C649.358,533.802 646.077,533.425 643.567,531.602C641.057,529.778 639.685,526.774 639.95,523.683L642.005,499.753C642.059,499.127 641.987,498.498 641.793,497.901C641.599,497.304 641.287,496.752 640.876,496.277L625.148,478.126C623.116,475.781 622.461,472.544 623.419,469.593C624.378,466.643 626.811,464.409 629.833,463.707L653.227,458.266C653.838,458.124 654.415,457.861 654.922,457.492C655.43,457.123 655.859,456.656 656.183,456.118L668.586,435.551Z" style="fill:rgb(16,0,186);"/>
            </g>
        </g>
        <g transform="matrix(1,0,0,1,58.5376,50)">
            <path d="M555.5,721.173C506.153,721.158 465.556,680.548 465.556,631.201C465.556,581.844 506.171,541.229 555.528,541.229C590.872,541.229 621.734,562.056 636.408,592.006C642.226,603.88 645.5,617.188 645.5,631.201C645.5,661.83 629.859,690.429 604.071,706.954C589.578,716.247 572.716,721.184 555.5,721.173Z" style="fill:rgb(235,235,235);fill-rule:nonzero;"/>
        </g>
        <g transform="matrix(1,0,0,1,58.5376,50)">
            <path d="M603.53,706.113C575.16,724.28 538.814,724.858 509.88,707.603C512.379,702.951 515.546,698.689 519.28,694.953C529.304,684.881 542.943,679.213 557.153,679.213C576.052,679.213 593.597,689.24 603.19,705.523C603.3,705.713 603.42,705.913 603.53,706.113Z" style="fill:rgb(16,0,186);fill-rule:nonzero;"/>
        </g>
        <g transform="matrix(1,0,0,1,212.89,127.403)">
            <circle cx="398.443" cy="536.688" r="44.202" style="fill:rgb(47,46,65);"/>
        </g>
        <g transform="matrix(0.479659,-0.877455,0.877455,0.479659,-204.075,866.132)">
            <circle cx="556.819" cy="629.489" r="32.898" style="fill:rgb(255,184,184);"/>
        </g>
        <g transform="matrix(1,0,0,1,58.5376,50)">
            <path d="M522.25,608.796C529.767,613.977 538.692,616.735 547.821,616.698C544.564,618.956 540.857,620.482 536.954,621.169C549.093,623.773 561.639,623.844 573.807,621.376C576.512,620.943 579.121,620.046 581.522,618.727C583.94,617.376 585.672,615.059 586.284,612.358C587.092,607.739 583.493,603.542 579.753,600.714C568.163,592.085 553.285,589.112 539.269,592.624C534.746,593.793 530.216,595.768 527.279,599.4C524.341,603.032 523.471,608.631 526.27,612.371L522.25,608.796Z" style="fill:rgb(47,46,65);fill-rule:nonzero;"/>
        </g>
        <g transform="matrix(1,0,0,1,212.89,127.403)">
            <ellipse cx="554.644" cy="605.661" rx="24.504" ry="2.72" style="fill:rgb(242,242,242);"/>
        </g>
    </g>
</svg>
