<?xml version="1.0" encoding="UTF-8" standalone="no"?>
<!DOCTYPE svg PUBLIC "-//W3C//DTD SVG 1.1//EN" "http://www.w3.org/Graphics/SVG/1.1/DTD/svg11.dtd">
<svg width="100%" height="100%" viewBox="0 0 500 500" version="1.1" xmlns="http://www.w3.org/2000/svg" xmlns:xlink="http://www.w3.org/1999/xlink" xml:space="preserve" xmlns:serif="http://www.serif.com/" style="fill-rule:evenodd;clip-rule:evenodd;stroke-linejoin:round;stroke-miterlimit:2;">
    <g transform="matrix(1.86596,0,0,1.86596,-413.44,-39.2795)">
        <g transform="matrix(1,0,0,1,157.803,-89.901)">
            <g transform="matrix(1.25103,0,0,1.25103,-63.745,-92.6071)">
                <g transform="matrix(1,0,0,1,51.2868,-2.84217e-14)">
                    <path d="M198.713,368.901L198.713,317.615L146.459,317.615L146.459,368.901L198.713,368.901" style="fill:rgb(0,0,212);"/>
                </g>
                <g transform="matrix(1,0,0,1,52.2544,-51.2868)">
                    <path d="M145.491,368.901L197.746,368.901L224.661,341.986L172.407,341.986L145.491,368.901" style="fill:rgb(0,0,212);fill-opacity:0.87;"/>
                </g>
                <g transform="matrix(0.707107,-0.707107,0.707107,0.707107,-114.415,160.324)">
                    <path d="M148.258,405.167L110.193,405.167L146.459,368.901L184.523,368.901L148.258,405.167" style="fill:rgb(0,0,212);fill-opacity:0.76;"/>
                </g>
            </g>
            <g transform="matrix(1.25103,0,0,1.25103,-95.4447,-190.441)">
                <g transform="matrix(1,0,0,1,51.2868,-5.68434e-14)">
                    <path d="M198.713,368.901L225.629,341.986L175.926,340.471L147.426,368.901L198.713,368.901" style="fill:rgb(0,0,212);fill-opacity:0.8;"/>
                </g>
                <g transform="matrix(1,0,0,1,79.17,-26.9156)">
                    <path d="M146.459,317.615L146.767,368.901L197.746,368.901L197.746,317.615L146.459,317.615" style="fill:rgb(0,0,212);"/>
                </g>
                <g transform="matrix(-1.83697e-16,1,-1,-1.83697e-16,566.726,171.156)">
                    <path d="M170.83,340.789L119.543,341.018L146.131,368.562L197.746,368.013" style="fill:rgb(0,0,212);fill-opacity:0.84;"/>
                </g>
            </g>
        </g>
        <path d="M324.849,279C325.469,279 326.063,278.754 326.502,278.316C326.94,277.878 327.186,277.283 327.186,276.664L327.186,215.812C327.186,215.189 327.435,214.592 327.877,214.153C330.938,211.116 343.411,198.741 349.94,192.263C350.612,191.596 350.815,190.59 350.454,189.714C350.094,188.839 349.241,188.268 348.294,188.268C336.43,188.268 309.43,188.268 301.351,188.268C300.065,188.268 299.02,187.228 299.014,185.942C298.958,174.258 298.707,122.217 298.669,114.384C298.666,113.752 298.919,113.146 299.37,112.704C304.266,107.905 333.119,79.63 337.95,74.896C338.389,74.465 338.981,74.225 339.596,74.228C347.441,74.265 401.064,74.518 415.744,74.588C416.727,74.593 417.667,74.988 418.358,75.687C419.05,76.386 419.434,77.331 419.428,78.314C419.336,92.315 419.014,141.547 418.966,149.013C418.962,149.623 418.719,150.207 418.29,150.641C415.626,153.333 405.65,163.412 400.018,169.104C399.355,169.774 399.159,170.777 399.522,171.647C399.884,172.517 400.734,173.084 401.677,173.084C413.481,173.092 440.512,173.108 448.611,173.113C449.901,173.114 450.947,174.16 450.947,175.45C450.947,184.334 450.947,216.184 450.947,229.236C450.947,230.181 451.516,231.033 452.389,231.394C453.262,231.756 454.267,231.556 454.935,230.888C458.773,227.053 464.725,221.103 469.812,216.019C476.028,209.806 479.519,201.376 479.515,192.587C479.506,172.935 479.49,136.993 479.482,117.347C479.478,108.565 475.985,100.144 469.771,93.937C455.866,80.048 430.421,54.632 416.517,40.745C410.306,34.54 401.884,31.057 393.105,31.061C373.46,31.069 337.512,31.085 317.866,31.094C309.085,31.098 300.665,34.59 294.459,40.802C280.57,54.702 255.157,80.139 241.268,94.039C235.062,100.251 231.578,108.674 231.581,117.455C231.59,137.104 231.606,173.061 231.615,192.71C231.619,201.491 235.111,209.911 241.323,216.117C255.225,230.008 280.667,255.427 294.566,269.314C300.774,275.516 309.191,279 317.967,279C320.632,279 323.128,279 324.849,279Z" style="fill:url(#_Linear1);"/>
    </g>
    <defs>
        <linearGradient id="_Linear1" x1="0" y1="0" x2="1" y2="0" gradientUnits="userSpaceOnUse" gradientTransform="matrix(455.249,476.896,-476.896,455.249,54.9317,-182.203)"><stop offset="0" style="stop-color:rgb(0,0,212);stop-opacity:1"/><stop offset="1" style="stop-color:black;stop-opacity:1"/></linearGradient>
    </defs>
</svg>
