<?xml version="1.0" encoding="UTF-8" standalone="no"?>
<!DOCTYPE svg PUBLIC "-//W3C//DTD SVG 1.1//EN" "http://www.w3.org/Graphics/SVG/1.1/DTD/svg11.dtd">
<svg width="100%" height="100%" viewBox="0 0 500 500" version="1.1" xmlns="http://www.w3.org/2000/svg" xmlns:xlink="http://www.w3.org/1999/xlink" xml:space="preserve" xmlns:serif="http://www.serif.com/" style="fill-rule:evenodd;clip-rule:evenodd;stroke-linejoin:round;stroke-miterlimit:2;">
    <g transform="matrix(1.9802,0,0,1.9802,-215.844,-293.691)">
        <path d="M310.105,177.436L348.374,215.704C353.808,221.138 356.861,228.509 356.861,236.194L356.861,312.933C356.861,320.619 353.808,327.989 348.374,333.423C334.668,347.129 307.816,373.981 294.11,387.686C288.676,393.121 281.306,396.173 273.621,396.173L196.881,396.173C189.196,396.173 181.826,393.121 176.391,387.686C162.686,373.981 135.834,347.129 122.128,333.423C116.694,327.989 113.641,320.619 113.641,312.933L113.641,236.194C113.641,228.509 116.694,221.138 122.128,215.704C135.834,201.998 162.686,175.147 176.391,161.441C181.826,156.007 189.196,152.954 196.881,152.954L273.621,152.954C281.066,152.954 288.216,155.819 293.596,160.939L293.461,211.34C293.461,211.34 294.613,219.419 283.848,226.717C273.084,234.015 268.114,242.782 268.942,257.093C269.77,271.405 270.17,299.068 271.613,308.721C272.041,311.584 272.421,315.029 277.602,315.011C282.783,314.992 283.861,312.852 284.12,310.155C284.987,301.105 282.806,260.708 282.806,260.708C282.806,260.708 283.137,256.29 288.303,256.29C293.469,256.29 294.568,260.829 294.568,260.829L295.218,311.002C295.218,311.002 295.352,315.259 300.449,315.259C305.545,315.259 305.679,311.002 305.679,311.002L306.33,260.829C306.33,260.829 307.429,256.29 312.595,256.29C317.761,256.29 318.091,260.708 318.091,260.708C318.091,260.708 315.911,301.105 316.778,310.155C317.036,312.852 318.114,314.992 323.295,315.011C328.477,315.029 328.857,311.584 329.285,308.721C330.728,299.068 331.127,271.405 331.955,257.093C332.783,242.782 327.814,234.015 317.049,226.717C306.285,219.419 307.436,211.34 307.436,211.34L310.105,177.436Z"/>
    </g>
</svg>
