<?xml version="1.0" encoding="UTF-8" standalone="no"?>
<!DOCTYPE svg PUBLIC "-//W3C//DTD SVG 1.1//EN" "http://www.w3.org/Graphics/SVG/1.1/DTD/svg11.dtd">
<svg width="100%" height="100%" viewBox="0 0 1400 1000" version="1.1" xmlns="http://www.w3.org/2000/svg" xmlns:xlink="http://www.w3.org/1999/xlink" xml:space="preserve" xmlns:serif="http://www.serif.com/" style="fill-rule:evenodd;clip-rule:evenodd;stroke-linejoin:round;stroke-miterlimit:2;">
    <g transform="matrix(1.21849,0,0,1.21849,-170.302,-109.244)">
        <g transform="matrix(0.558347,0,0,0.558347,137.454,13.5684)">
            <path d="M1911.3,580.8L1911.3,580.9C1921.2,627.6 1918.7,677.3 1915,724.9C1911.5,769.4 1890.9,812.1 1877.6,854.7C1851.6,938.3 1814.1,1019.8 1801.8,1106.8C1795.8,1149.1 1797.8,1191.2 1807.9,1232.8C1819.3,1279.6 1836.3,1325.2 1841.2,1373.4C1841.8,1378.9 1842.1,1384.3 1842.2,1389.8C1852,1344.4 1846.7,1294.2 1840.1,1247.9C1833.9,1204 1827.3,1160.4 1829.5,1116C1831.8,1071.1 1841.1,1027 1852.6,983.6C1875.8,896.1 1908.2,810.7 1918.4,720.3C1923.8,673.2 1921.1,626.1 1911.3,580.8M174,441.1C161.1,453.5 149.3,467 138.8,481.5C116.8,512 101.5,547.5 96.2,584.8C89.7,630.5 97.7,676.4 111.4,720.1C125.4,764.9 144.6,807.9 159.7,852.3C175.5,899.1 185.7,947.7 190.5,996.9C195.3,1046.2 195.1,1096 190.9,1145.4C186.9,1192.9 178.6,1240.8 184.3,1288.5C189.1,1328.7 204.4,1365.7 231.8,1395.8C241.7,1406.6 252.7,1416.2 264.6,1424.6C218.7,1360.1 216.3,1275.3 230.7,1200C248.7,1105.6 292.5,1015.1 292.3,917.8C292.1,815.5 247,719.8 213.5,624.6C192.6,565.4 175.7,503.4 174,441.1M1851.1,435.8C1869.8,471.9 1888.3,501.5 1902,545.3C1890.2,506.6 1873,469.7 1851.1,435.8M1493.3,241.9C1477.6,241.9 1462,242.8 1446.4,244.6C1358,254.9 1276.6,291.9 1195.8,326.8C1155.1,344.4 1114,361.5 1071.5,374.5C1045,382.6 1018.1,388.6 990.9,392.5C1049.9,421.2 1111.9,444 1177.5,452.7C1194.3,454.9 1211.2,456 1228,456C1260.2,456 1292.2,452.1 1323.6,444.6C1373.3,432.8 1420.5,413.8 1466.5,392.5C1526.4,364.7 1602,316.8 1673.5,316.8C1699.7,316.8 1725.4,323.3 1749.6,339.6C1776.1,357.5 1805.9,378.9 1828.2,403.4C1792.4,357.8 1747.2,319.3 1694.3,291.7C1632.5,259.6 1562.9,241.9 1493.3,241.9" style="fill:rgb(129,166,189);fill-opacity:0.5;fill-rule:nonzero;"/>
            <path d="M1842.3,1389.7C1835.1,1423 1819.8,1453.7 1791,1478.3C1728.4,1531.9 1637,1538.3 1558.3,1541.3C1545,1541.8 1531.7,1542.1 1518.5,1542.1C1348.8,1542.1 1179.6,1501.2 1028.5,1424C1026.6,1427.1 1023.5,1429.4 1019.3,1429.4C1018.4,1429.4 1017.5,1429.3 1016.6,1429.1C968.1,1417.9 918.7,1411.8 868.9,1411C865.1,1410.9 861.2,1410.9 857.4,1410.9C810.5,1410.9 763.8,1415.6 717.8,1424.7C669,1434.4 621.1,1448.1 572.6,1458.9C528.9,1468.7 484.3,1475.8 439.9,1475.8C400.1,1475.8 360.5,1470 322.2,1455.1C301.9,1447.2 282.3,1437.1 264.5,1424.5C270.1,1432.4 276.3,1439.9 283.2,1447.1C326.6,1492.3 386,1506.2 446.6,1506.2C478.1,1506.2 510,1502.4 540.1,1497.4C592.5,1488.6 644.5,1477.1 696.6,1466.7C751.5,1455.7 806.4,1444.8 861.3,1433.8C861.5,1433.8 861.7,1433.7 861.9,1433.7C882.4,1429.6 903.2,1427.6 924,1427.6C948.3,1427.6 972.6,1430.4 996.3,1436C1051,1448.9 1104.7,1466.2 1157.6,1484C1247.6,1514.1 1337.1,1547 1430.6,1565.6C1476.8,1574.8 1525.6,1581.3 1574.1,1581.3C1617.6,1581.3 1660.8,1576.1 1701.6,1563.1C1740.7,1550.6 1779.2,1530.4 1805.3,1499C1831.5,1467.3 1843,1429.2 1842.3,1389.7M1902,545.3C1905.6,557 1908.7,568.8 1911.3,580.8C1908.5,567.8 1905.4,556.1 1902,545.3M1828.1,403.4C1836.3,413.8 1844,424.6 1851.2,435.7C1845.3,424.4 1837.3,413.6 1828.1,403.4M446.3,161.1C418.8,161.1 391.4,164.1 364.4,170.7C320.8,181.3 279.6,202.4 248.3,233.7C217.8,264.3 197.1,303 185.6,343.7C176.5,376 173.2,408.6 174,441.1C216.1,400.5 269.7,371.6 325.9,356.8C368.1,345.7 411.1,341.3 454.4,341.3C510.4,341.3 566.6,348.6 621.5,357.7C719.6,374 817.5,397.6 917.4,397.6C921.2,397.6 925,397.6 928.9,397.5C949.7,397.1 970.4,395.5 990.8,392.6C960,377.6 930,361.1 900.8,344.2C815,294.6 731.9,240.3 639.2,202.8C578.5,178.2 512.4,161.1 446.3,161.1" style="fill:rgb(129,166,189);fill-opacity:0.5;fill-rule:nonzero;"/>
            <path d="M1673.4,316.8C1601.9,316.8 1526.3,364.8 1466.4,392.5C1420.5,413.8 1373.2,432.8 1323.5,444.6C1292.1,452 1260,456 1227.9,456C1211.1,456 1194.2,454.9 1177.4,452.7C1111.9,444.1 1049.8,421.2 990.8,392.5C970.4,395.4 949.7,397.1 928.9,397.4C925.1,397.5 921.2,397.5 917.4,397.5C817.5,397.5 719.6,374 621.5,357.6C566.6,348.5 510.3,341.2 454.4,341.2C411.2,341.2 368.1,345.5 325.9,356.7C269.6,371.5 216.1,400.5 174,441C175.6,503.3 192.6,565.4 213.3,624.5C246.7,719.7 291.9,815.4 292.1,917.7C292.3,1015 248.4,1105.4 230.5,1199.9C216.2,1275.2 218.5,1359.9 264.4,1424.5C282.2,1437.1 301.8,1447.2 322.1,1455.1C360.4,1470 400,1475.8 439.8,1475.8C484.2,1475.8 528.8,1468.6 572.5,1458.9C621,1448.1 668.9,1434.4 717.7,1424.7C763.7,1415.5 810.4,1410.9 857.3,1410.9C861.1,1410.9 865,1410.9 868.8,1411C918.6,1411.8 968,1417.9 1016.5,1429.1C1017.5,1429.3 1018.4,1429.4 1019.2,1429.4C1023.3,1429.4 1026.5,1427.1 1028.4,1424C1179.5,1501.2 1348.7,1542.1 1518.4,1542.1C1531.7,1542.1 1545,1541.8 1558.2,1541.3C1636.9,1538.3 1728.3,1531.9 1790.9,1478.3C1819.7,1453.7 1835,1423 1842.2,1389.7C1842.1,1384.3 1841.8,1378.8 1841.2,1373.3C1836.3,1325.2 1819.3,1279.6 1807.9,1232.7C1797.8,1191.1 1795.8,1149 1801.8,1106.7C1814.1,1019.7 1851.6,938.2 1877.6,854.6C1890.8,812 1911.5,769.2 1915,724.8C1918.7,677.2 1921.2,627.6 1911.3,580.8L1911.3,580.7C1908.7,568.7 1905.6,556.9 1902,545.2C1888.3,501.4 1869.8,471.8 1851.1,435.7C1843.9,424.6 1836.2,413.8 1828,403.4C1805.7,378.8 1775.9,357.5 1749.4,339.6C1725.4,323.2 1699.7,316.8 1673.4,316.8" style="fill:rgb(129,166,189);fill-opacity:0.9;fill-rule:nonzero;"/>
        </g>
        <g>
            <g transform="matrix(1,0,0,1,151.232,50)">
                <path d="M200.719,407.361C182.673,422.126 212.203,551.729 212.203,551.729C212.203,551.729 218.765,749.414 232.71,758.437C246.654,767.46 277.825,757.617 290.129,755.976C302.433,754.336 291.769,632.115 273.723,587C255.677,541.885 269.622,476.264 269.622,476.264L367.234,495.13C367.234,495.13 308.175,545.166 310.636,555.83C313.096,566.493 376.257,602.585 387.741,604.226C399.225,605.866 421.372,538.604 441.059,492.669C460.745,446.734 306.534,417.204 306.534,417.204L285.207,377.011C285.207,377.011 218.765,392.596 200.719,407.361Z" style="fill:rgb(47,46,65);fill-rule:nonzero;"/>
            </g>
            <g transform="matrix(1,0,0,1,151.232,50)">
                <path d="M249.71,761.841C249.71,761.841 243.758,782.674 249.71,782.674C255.662,782.674 266.575,788.627 283.44,786.643C300.305,784.658 295.345,763.825 283.44,760.849C271.535,757.873 274.511,734.063 274.511,734.063C270.543,726.127 251.694,736.047 251.694,736.047L249.71,761.841Z" style="fill:rgb(47,46,65);fill-rule:nonzero;"/>
            </g>
            <g transform="matrix(1,0,0,1,151.232,50)">
                <path d="M334.216,596.174C334.216,596.174 324.004,615.283 329.823,616.538C335.641,617.794 345.053,625.914 361.957,627.531C378.862,629.148 378.406,607.737 367.397,602.317C356.387,596.897 364.318,574.251 364.318,574.251C362.112,565.656 341.595,571.379 341.595,571.379L334.216,596.174Z" style="fill:rgb(47,46,65);fill-rule:nonzero;"/>
            </g>
            <g transform="matrix(1,0,0,1,151.232,50)">
                <path d="M211.793,229.772C213.433,233.053 206.051,274.066 206.051,274.066L212.613,285.55C212.613,285.55 250.346,270.785 244.604,268.325C238.862,265.864 239.682,235.514 239.682,235.514C239.682,235.514 210.152,226.491 211.793,229.772Z" style="fill:rgb(255,185,185);fill-rule:nonzero;"/>
            </g>
            <g transform="matrix(1,0,0,1,263.854,162.953)">
                <circle cx="113.373" cy="79.168" r="50.294" style="fill:rgb(47,46,65);"/>
            </g>
            <g transform="matrix(1,0,0,1,263.854,162.953)">
                <circle cx="109.904" cy="32.084" r="20.811" style="fill:rgb(47,46,65);"/>
            </g>
            <g transform="matrix(1,0,0,1,151.232,50)">
                <path d="M231.631,154.463C232.351,154.537 233.075,154.575 233.799,154.575C245.216,154.575 254.61,145.181 254.61,133.764C254.61,122.347 245.216,112.953 233.799,112.953C233.075,112.953 232.351,112.99 231.631,113.065C242.175,114.17 250.275,123.163 250.275,133.764C250.275,144.365 242.175,153.358 231.631,154.463Z" style="fill:rgb(47,46,65);fill-rule:nonzero;"/>
            </g>
            <g transform="matrix(1,0,0,1,263.854,162.953)">
                <circle cx="114.756" cy="103.695" r="34.451" style="fill:rgb(255,185,185);"/>
            </g>
            <g transform="matrix(1,0,0,1,151.232,50)">
                <path d="M177.751,269.555C167.088,272.016 149.042,298.264 149.042,298.264L177.751,326.974C177.751,326.974 198.258,404.08 200.719,407.361C216.841,428.856 289.308,381.112 289.308,381.112C289.308,381.112 286.437,357.734 288.078,346.25C289.656,335.206 281.926,313.029 281.926,313.029C281.926,313.029 308.995,301.546 303.253,290.062C297.511,278.578 262.24,252.329 247.475,261.352C232.71,270.375 203.18,261.352 203.18,261.352C203.18,261.352 188.415,267.094 177.751,269.555Z" style="fill:url(#_Linear1);fill-rule:nonzero;"/>
            </g>
            <g transform="matrix(1,0,0,1,151.232,50)">
                <path d="M387.331,434.84C387.331,434.84 434.087,475.033 445.57,466.83C457.054,458.628 401.276,429.918 401.276,429.918L387.331,434.84Z" style="fill:rgb(255,185,185);fill-rule:nonzero;"/>
            </g>
            <g transform="matrix(1,0,0,1,151.232,50)">
                <path d="M177.341,420.895C183.904,428.278 215.074,409.411 211.078,401.033C207.082,392.655 182.263,409.411 182.263,409.411C182.263,409.411 170.779,413.513 177.341,420.895Z" style="fill:rgb(255,185,185);fill-rule:nonzero;"/>
            </g>
            <g transform="matrix(1,0,0,1,151.232,50)">
                <path d="M177.751,309.748L143.3,373.729C143.3,373.729 182.673,406.54 187.595,407.361C192.516,408.181 177.751,429.508 177.751,429.508C177.751,429.508 133.457,398.338 116.231,382.752C99.005,367.167 149.042,298.264 149.042,298.264L163.807,289.241L177.751,309.748Z" style="fill:url(#_Linear2);fill-rule:nonzero;"/>
            </g>
            <g transform="matrix(1,0,0,1,151.232,50)">
                <path d="M277.825,307.288L318.018,369.628C318.018,369.628 379.538,438.531 387.741,441.812C395.944,445.093 405.787,429.508 405.787,429.508L331.963,340.098L304.073,290.062L293.41,285.96L277.825,307.288Z" style="fill:url(#_Linear3);fill-rule:nonzero;"/>
            </g>
            <g transform="matrix(1,0,0,1,263.854,162.953)">
                <ellipse cx="113.373" cy="62.762" rx="34.686" ry="20.811" style="fill:rgb(47,46,65);"/>
            </g>
            <g transform="matrix(1,0,0,1,151.232,50)">
                <path d="M323.299,624.742C320.948,624.745 319.014,626.679 319.011,629.03L319.011,775.274C319.014,777.626 320.948,779.56 323.299,779.562L821.968,779.562C824.319,779.559 826.253,777.626 826.256,775.274L826.256,629.03C826.253,626.679 824.319,624.745 821.968,624.742L323.299,624.742Z" style="fill:rgb(230,230,230);fill-rule:nonzero;"/>
            </g>
            <g transform="matrix(1,0,0,1,151.232,50)">
                <rect x="329.757" y="635.487" width="485.754" height="133.33" style="fill:white;fill-rule:nonzero;"/>
            </g>
            <g transform="matrix(1,0,0,1,151.232,50)">
                <path d="M754.196,741.157C754.194,741.157 754.191,741.157 754.188,741.157C750.292,741.157 747.085,744.363 747.085,748.26C747.085,752.156 750.292,755.363 754.188,755.363C754.191,755.363 754.194,755.363 754.196,755.363L782.607,755.363C786.503,755.363 789.71,752.156 789.71,748.26C789.71,744.363 786.503,741.157 782.607,741.157L754.196,741.157Z" style="fill:rgb(0,0,212);fill-rule:nonzero;"/>
            </g>
            <g transform="matrix(1,0,0,1,263.854,162.953)">
                <rect x="349.122" y="614.428" width="327.965" height="1.869" style="fill:rgb(230,230,230);"/>
            </g>
            <g transform="matrix(1,0,0,1,263.854,162.953)">
                <circle cx="280.567" cy="589.2" r="41.369" style="fill:rgb(0,0,212);"/>
            </g>
            <g transform="matrix(1,0,0,1,263.854,162.953)">
                <path d="M349.64,603.993L348.604,602.438L382.684,579.717L406.054,590.935L439.669,569.459L506.537,597.983L559.787,571.825L611.495,592.788L676.468,535.241L677.707,536.64L611.867,594.956L559.86,573.871L506.591,600.038L439.843,571.565L406.184,593.071L382.835,581.864L349.64,603.993Z" style="fill:rgb(63,61,86);fill-rule:nonzero;"/>
            </g>
            <g transform="matrix(1,0,0,1,151.232,50)">
                <path d="M467.818,742.134C467.815,742.134 467.812,742.134 467.81,742.134C464.478,742.134 461.736,744.876 461.736,748.208C461.736,751.54 464.478,754.281 467.81,754.281C467.812,754.281 467.815,754.281 467.818,754.281L531.355,754.281C534.684,754.277 537.421,751.537 537.421,748.208C537.421,744.879 534.684,742.139 531.355,742.134L467.818,742.134Z" style="fill:rgb(230,230,230);fill-rule:nonzero;"/>
            </g>
            <g transform="matrix(1,0,0,1,151.232,50)">
                <path d="M408.989,683.645L415.453,683.645L402.003,696.956C397.145,701.744 389.229,701.744 384.372,696.956L370.923,683.645L377.387,683.645L387.605,693.757C390.681,696.789 395.695,696.789 398.772,693.757L408.989,683.645ZM377.305,720.659L370.841,720.659L384.374,707.266C389.231,702.478 397.147,702.478 402.005,707.266L415.537,720.659L409.073,720.659L398.772,710.465C395.695,707.433 390.681,707.433 387.605,710.465L377.305,720.659Z" style="fill:white;fill-rule:nonzero;"/>
            </g>
            <g transform="matrix(1,0,0,1,151.232,50)">
                <path d="M388.234,156.307C385.883,156.31 383.949,158.243 383.947,160.595L383.947,306.839C383.949,309.191 385.883,311.124 388.234,311.127L886.903,311.127C889.254,311.124 891.188,309.19 891.191,306.839L891.191,160.595C891.188,158.243 889.254,156.31 886.903,156.307L388.234,156.307Z" style="fill:rgb(230,230,230);fill-rule:nonzero;"/>
            </g>
            <g transform="matrix(1,0,0,1,151.232,50)">
                <rect x="394.692" y="167.052" width="485.754" height="133.33" style="fill:white;fill-rule:nonzero;"/>
            </g>
            <g transform="matrix(1,0,0,1,151.232,50)">
                <path d="M819.132,272.722C815.235,272.722 812.029,275.928 812.029,279.825C812.029,283.721 815.235,286.927 819.132,286.927L847.542,286.927C851.439,286.927 854.645,283.721 854.645,279.825C854.645,275.928 851.439,272.722 847.542,272.722L819.132,272.722Z" style="fill:rgb(0,0,212);fill-rule:nonzero;"/>
            </g>
            <g transform="matrix(1,0,0,1,263.854,162.953)">
                <rect x="414.057" y="145.993" width="327.965" height="1.869" style="fill:rgb(230,230,230);"/>
            </g>
            <g transform="matrix(1,0,0,1,263.854,162.953)">
                <circle cx="345.502" cy="120.764" r="41.369" style="fill:rgb(0,0,212);"/>
            </g>
            <g transform="matrix(1,0,0,1,263.854,162.953)">
                <path d="M414.575,135.557L413.539,134.002L447.619,111.282L470.989,122.5L504.604,101.024L505.058,101.217L571.472,129.548L624.722,103.39L676.43,124.353L741.403,66.805L742.642,68.204L676.802,126.52L624.795,105.436L571.527,131.603L504.779,103.13L471.119,124.635L447.77,113.427L414.575,135.557Z" style="fill:rgb(63,61,86);fill-rule:nonzero;"/>
            </g>
            <g transform="matrix(1,0,0,1,151.232,50)">
                <path d="M532.753,273.699C529.424,273.703 526.687,276.444 526.687,279.773C526.687,283.101 529.424,285.842 532.753,285.846L596.29,285.846C599.622,285.846 602.364,283.104 602.364,279.773C602.364,276.441 599.622,273.699 596.29,273.699L532.753,273.699Z" style="fill:rgb(230,230,230);fill-rule:nonzero;"/>
            </g>
            <g transform="matrix(1,0,0,1,151.232,50)">
                <path d="M474.769,228.888C475.543,223.712 471.601,220.929 466.211,219.072L467.96,212.059L463.69,210.995L461.988,217.823C460.867,217.544 459.714,217.28 458.569,217.019L460.283,210.146L456.017,209.082L454.267,216.092C453.338,215.881 452.426,215.671 451.541,215.451L451.546,215.43L445.659,213.96L444.524,218.519C444.524,218.519 447.691,219.245 447.624,219.29C448.845,219.436 449.737,220.549 449.613,221.772L447.622,229.761C447.773,229.799 447.921,229.846 448.065,229.904L447.616,229.792L444.823,240.983C444.62,241.629 444.017,242.071 443.341,242.071C443.18,242.071 443.02,242.046 442.867,241.997C442.909,242.059 439.764,241.223 439.764,241.223L437.645,246.11L443.201,247.495C444.234,247.754 445.247,248.025 446.243,248.28L444.476,255.375L448.74,256.439L450.491,249.421C451.654,249.737 452.785,250.029 453.892,250.304L452.148,257.288L456.417,258.352L458.183,251.273C465.462,252.65 470.937,252.094 473.239,245.512C475.095,240.211 473.147,237.153 469.318,235.158C472.107,234.513 474.208,232.678 474.768,228.888L474.769,228.888ZM465.015,242.565C463.695,247.866 454.771,245.002 451.876,244.282L454.22,234.885C457.113,235.607 466.391,237.037 465.016,242.565L465.015,242.565ZM466.334,228.812C465.13,233.634 457.702,231.184 455.291,230.583L457.416,222.061C459.827,222.661 467.589,223.782 466.334,228.812L466.334,228.812Z" style="fill:white;fill-rule:nonzero;"/>
            </g>
            <g transform="matrix(1,0,0,1,151.232,50)">
                <path d="M584.421,390.524C582.07,390.527 580.136,392.461 580.133,394.812L580.133,541.057C580.136,543.408 582.07,545.342 584.421,545.345L1083.09,545.345C1085.44,545.342 1087.38,543.408 1087.38,541.057L1087.38,394.812C1087.38,392.461 1085.44,390.527 1083.09,390.524L584.421,390.524Z" style="fill:rgb(230,230,230);fill-rule:nonzero;"/>
            </g>
            <g transform="matrix(1,0,0,1,151.232,50)">
                <rect x="590.878" y="401.27" width="485.754" height="133.33" style="fill:white;fill-rule:nonzero;"/>
            </g>
            <g transform="matrix(1,0,0,1,151.232,50)">
                <path d="M1015.32,506.94C1011.42,506.94 1008.22,510.146 1008.22,514.042C1008.22,517.939 1011.42,521.145 1015.32,521.145L1043.73,521.145C1047.62,521.145 1050.83,517.939 1050.83,514.042C1050.83,510.146 1047.62,506.94 1043.73,506.94L1015.32,506.94Z" style="fill:rgb(0,0,212);fill-rule:nonzero;"/>
            </g>
            <g transform="matrix(1,0,0,1,263.854,162.953)">
                <rect x="610.244" y="380.21" width="327.965" height="1.869" style="fill:rgb(230,230,230);"/>
            </g>
            <g transform="matrix(1,0,0,1,263.854,162.953)">
                <circle cx="541.689" cy="354.982" r="41.369" style="fill:rgb(0,0,212);"/>
            </g>
            <g transform="matrix(1,0,0,1,263.854,162.953)">
                <path d="M610.762,369.775L609.725,368.22L643.805,345.5L667.176,356.718L700.79,335.242L701.245,335.435L767.658,363.766L820.909,337.608L872.617,358.57L937.59,301.023L938.829,302.423L872.989,360.738L820.982,339.654L767.713,365.821L700.966,337.348L667.305,358.853L643.957,347.646L610.762,369.775Z" style="fill:rgb(63,61,86);fill-rule:nonzero;"/>
            </g>
            <g transform="matrix(1,0,0,1,151.232,50)">
                <path d="M728.939,507.917C725.608,507.917 722.866,510.658 722.866,513.99C722.866,517.322 725.608,520.064 728.939,520.064L792.477,520.064C795.809,520.064 798.55,517.322 798.55,513.99C798.55,510.658 795.809,507.917 792.477,507.917L728.939,507.917Z" style="fill:rgb(230,230,230);fill-rule:nonzero;"/>
            </g>
            <g transform="matrix(1,0,0,1,263.854,162.953)">
                <path d="M541.684,382.247L558.431,358.662L541.684,368.55L524.947,358.662L541.683,382.247L541.684,382.247Z" style="fill:white;fill-rule:nonzero;"/>
            </g>
            <g transform="matrix(1,0,0,1,263.854,162.953)">
                <path d="M541.683,365.381L541.684,365.381L558.421,355.488L541.684,327.717L541.683,327.717L524.947,355.488L541.683,365.381Z" style="fill:white;fill-rule:nonzero;"/>
            </g>
        </g>
    </g>
    <defs>
        <linearGradient id="_Linear1" x1="0" y1="0" x2="1" y2="0" gradientUnits="userSpaceOnUse" gradientTransform="matrix(-300.683,-372.489,372.489,-300.683,396.548,579.279)"><stop offset="0" style="stop-color:white;stop-opacity:1"/><stop offset="1" style="stop-color:rgb(159,159,159);stop-opacity:1"/></linearGradient>
        <linearGradient id="_Linear2" x1="0" y1="0" x2="1" y2="0" gradientUnits="userSpaceOnUse" gradientTransform="matrix(-300.683,-372.489,372.489,-300.683,396.548,579.279)"><stop offset="0" style="stop-color:white;stop-opacity:1"/><stop offset="1" style="stop-color:rgb(159,159,159);stop-opacity:1"/></linearGradient>
        <linearGradient id="_Linear3" x1="0" y1="0" x2="1" y2="0" gradientUnits="userSpaceOnUse" gradientTransform="matrix(-300.683,-372.489,372.489,-300.683,396.548,579.279)"><stop offset="0" style="stop-color:white;stop-opacity:1"/><stop offset="1" style="stop-color:rgb(159,159,159);stop-opacity:1"/></linearGradient>
    </defs>
</svg>
