<?xml version="1.0" encoding="UTF-8" standalone="no"?>
<!DOCTYPE svg PUBLIC "-//W3C//DTD SVG 1.1//EN" "http://www.w3.org/Graphics/SVG/1.1/DTD/svg11.dtd">
<svg width="100%" height="100%" viewBox="0 0 2000 2000" version="1.1" xmlns="http://www.w3.org/2000/svg" xmlns:xlink="http://www.w3.org/1999/xlink" xml:space="preserve" xmlns:serif="http://www.serif.com/" style="fill-rule:evenodd;clip-rule:evenodd;stroke-linejoin:round;stroke-miterlimit:2;">
    <g transform="matrix(2.20921,0,0,2.20921,21.7739,157.304)">
        <g transform="matrix(1,0,0,1,-157.206,-68.5538)">
            <path d="M376.948,313.578C376.948,313.578 282.232,346.2 264.068,376.313C245.903,406.425 376.948,313.578 376.948,313.578Z" style="fill:rgb(16,0,186);fill-rule:nonzero;"/>
        </g>
        <g transform="matrix(1,0,0,1,-157.206,-68.5538)">
            <path d="M213.297,417.997C211.964,418.096 210.652,417.612 209.704,416.671C206.757,414.017 209.165,408.999 211.232,405.454C238.942,357.953 378.272,307.896 384.188,305.789L396.93,301.251L386.019,309.244C385.616,309.54 345.083,339.209 303.589,367.16C239.079,410.618 219.927,417.997 213.297,417.997ZM371.805,314.667C335.22,328.828 236.627,369.764 214.648,407.446C211.72,412.463 212.34,413.723 212.348,413.734C212.94,414.372 220.427,418.382 300.899,364.208C328.951,345.323 356.626,325.602 371.805,314.667L371.805,314.667Z" style="fill:rgb(63,61,86);fill-rule:nonzero;"/>
        </g>
        <g transform="matrix(1,0,0,1,-157.206,-68.5538)">
            <path d="M374.895,280.994C374.895,280.994 287.611,272.022 261.133,287.354C234.654,302.687 374.895,280.994 374.895,280.994Z" style="fill:rgb(16,0,186);fill-rule:nonzero;"/>
        </g>
        <g transform="matrix(1,0,0,1,-157.206,-68.5538)">
            <path d="M255.955,295.659C225.402,295.659 223.304,290.761 222.343,288.522C220.423,284.041 225.767,279.822 227.523,278.435C265.408,248.523 380.481,278.752 385.361,280.052L394.72,282.548L385.132,283.918C384.746,283.973 346.191,289.457 307.282,292.89C284.591,294.892 268.044,295.659 255.955,295.659ZM282.729,269.3C261.209,269.3 241.522,272.418 229.973,281.536C226.488,284.287 225.624,286.143 225.977,286.964C226.863,289.028 235.317,295.273 306.935,288.953C333.623,286.598 360.142,283.276 374.227,281.413C356.181,277.259 317.114,269.3 282.729,269.3Z" style="fill:rgb(63,61,86);fill-rule:nonzero;"/>
        </g>
        <g transform="matrix(1,0,0,1,-157.206,-68.5538)">
            <path d="M399.874,265.621C399.874,265.621 355.971,160.203 366.608,149.769C377.245,139.334 399.874,265.621 399.874,265.621Z" style="fill:rgb(16,0,186);fill-rule:nonzero;"/>
        </g>
        <g transform="matrix(1,0,0,1,-157.206,-68.5538)">
            <path d="M402.302,274.894L396.843,260.946C396.71,260.604 383.353,226.388 372.346,191.161C349.674,118.613 358.967,112.418 362.02,110.382C363.553,109.283 365.572,109.113 367.267,109.939C384.391,117.918 399.035,245.488 400.648,260.008L402.302,274.894ZM365.026,113.374C364.731,113.388 364.447,113.491 364.212,113.67C353.302,120.944 375.42,192.557 394.863,244.681C388.194,190.936 375.914,118.328 365.598,113.52C365.42,113.43 365.225,113.38 365.026,113.374Z" style="fill:rgb(63,61,86);fill-rule:nonzero;"/>
        </g>
        <g transform="matrix(1,0,0,1,-157.206,-68.5538)">
            <path d="M416.468,288.803C416.468,288.803 440.032,182.249 464.719,182.249C489.406,182.249 416.468,288.803 416.468,288.803Z" style="fill:rgb(16,0,186);fill-rule:nonzero;"/>
        </g>
        <g transform="matrix(1,0,0,1,-157.206,-68.5538)">
            <path d="M410.251,296.156L412.582,287.382C414.293,280.949 454.981,129.81 499.46,129.81C505.558,129.81 508.188,132.671 509.323,135.07C521.183,160.188 426.817,276.02 416.018,289.145L410.251,296.156ZM499.46,133.762C463.958,133.762 428.667,245.971 418.99,279.227C450.832,239.666 514.299,154.868 505.749,136.758C505.398,136.017 504.334,133.762 499.46,133.762Z" style="fill:rgb(63,61,86);fill-rule:nonzero;"/>
        </g>
        <g transform="matrix(1,0,0,1,-157.206,-68.5538)">
            <path d="M430.3,289.866C430.3,289.866 511.316,238.67 677.3,254.298C843.284,269.926 430.3,289.866 430.3,289.866Z" style="fill:rgb(16,0,186);fill-rule:nonzero;"/>
        </g>
        <g transform="matrix(1,0,0,1,-157.206,-68.5538)">
            <path d="M424.773,292.001L429.015,288.366C429.874,287.629 450.527,270.171 491.909,256.132C529.99,243.21 593.469,231.037 679.623,246.425C716.023,252.925 720.749,257.768 720.432,262.034C720.12,266.248 719.387,276.119 573.954,285.269C502.885,289.74 431.074,291.821 430.356,291.841L424.773,292.001ZM601.432,243.19C507.85,243.19 452.524,276.441 436.483,287.698C455.473,287.09 514.851,285.028 573.714,281.324C708.854,272.821 716.359,263.52 716.49,261.742C716.506,261.552 716.405,257.007 678.929,250.315C653.358,245.658 627.424,243.274 601.432,243.19Z" style="fill:rgb(63,61,86);fill-rule:nonzero;"/>
        </g>
        <g transform="matrix(1,0,0,1,-157.206,-68.5538)">
            <path d="M481.676,295.87C481.676,295.87 623.587,293.976 631.56,309.129C639.533,324.282 481.676,295.87 481.676,295.87Z" style="fill:rgb(16,0,186);fill-rule:nonzero;"/>
        </g>
        <g transform="matrix(1,0,0,1,-157.206,-68.5538)">
            <path d="M649.733,334.59C604.435,334.59 495.554,302.064 481.103,297.685L469.26,294.097L481.632,293.819C499.784,293.413 659.273,290.759 669.305,322.868C670.494,326.672 669.116,329.112 667.75,330.49C664.894,333.37 658.505,334.59 649.733,334.59ZM494.62,297.589C561.185,317.099 653.613,339.141 664.944,327.707C665.558,327.088 666.179,326.112 665.535,324.047C658.407,301.236 549.63,297.216 494.62,297.589Z" style="fill:rgb(63,61,86);fill-rule:nonzero;"/>
        </g>
        <g transform="matrix(1,0,0,1,-157.206,-68.5538)">
            <path d="M454.012,311.602C454.012,311.602 539.727,351.22 522.978,363.41C506.229,375.6 454.012,311.602 454.012,311.602Z" style="fill:rgb(16,0,186);fill-rule:nonzero;"/>
        </g>
        <g transform="matrix(1,0,0,1,-157.206,-68.5538)">
            <path d="M576.385,411.343C534.922,411.343 450.498,311.612 446.571,306.946L441.014,300.339L448.893,303.871C454.641,306.448 589.721,367.336 592.678,397.835C593.069,401.879 591.294,405.417 587.545,408.064C584.263,410.304 580.357,411.451 576.385,411.343ZM455.415,311.189C488.015,348.591 560.548,422.288 585.264,404.836C587.896,402.978 589.001,400.875 588.745,398.216C586.618,376.288 498.347,331.072 455.415,311.189Z" style="fill:rgb(63,61,86);fill-rule:nonzero;"/>
        </g>
        <g transform="matrix(1,0,0,1,-157.206,-68.5538)">
            <path d="M596.284,359.026C596.284,359.026 667.42,388.666 651.612,408.426C635.804,428.186 596.284,359.026 596.284,359.026Z" style="fill:rgb(16,0,186);fill-rule:nonzero;"/>
        </g>
        <g transform="matrix(1,0,0,1,-157.206,-68.5538)">
            <path d="M463.892,335.314C463.892,335.314 612.092,497.346 598.26,507.226C584.428,517.106 463.892,335.314 463.892,335.314Z" style="fill:rgb(16,0,186);fill-rule:nonzero;"/>
        </g>
        <g transform="matrix(1,0,0,1,-157.206,-68.5538)">
            <path d="M436.228,323.458C436.228,323.458 498.624,427.378 485.89,437.481C473.156,447.584 436.228,323.458 436.228,323.458Z" style="fill:rgb(16,0,186);fill-rule:nonzero;"/>
        </g>
        <g transform="matrix(1,0,0,1,-157.206,-68.5538)">
            <path d="M506.853,476.409C506.074,476.404 505.302,476.274 504.564,476.025C481.69,468.511 435.585,333.528 430.404,318.161L425.796,304.495L433.91,316.418C434.152,316.774 458.404,352.471 479.926,389.4C519.712,457.67 516.414,471.094 510.473,475.253C509.416,476.006 508.15,476.411 506.853,476.409ZM439.175,331.455C455.992,379.193 489.848,467.032 505.797,472.272C506.59,472.606 507.502,472.509 508.207,472.015C511.472,469.73 514.921,457.3 476.52,391.405C462.896,368.027 448.169,345.137 439.175,331.455L439.175,331.455Z" style="fill:rgb(63,61,86);fill-rule:nonzero;"/>
        </g>
        <g transform="matrix(1,0,0,1,-157.206,-68.5538)">
            <path d="M409.831,319.506C409.831,319.506 353.674,485.209 388.134,483.501C422.594,481.793 409.831,319.506 409.831,319.506Z" style="fill:rgb(16,0,186);fill-rule:nonzero;"/>
        </g>
        <g transform="matrix(1,0,0,1,-157.206,-68.5538)">
            <path d="M374.156,511.193C368.108,511.193 363.458,508.83 360.324,504.16C338.092,471.025 403.95,324.895 406.764,318.69L409.768,312.068L410.528,319.299C411.152,325.217 425.414,464.666 393.105,501.919C387.997,507.807 381.921,510.921 375.045,511.176C374.746,511.188 374.449,511.193 374.156,511.193ZM407.292,327.285C394.273,357.223 345.22,474.556 363.606,501.958C366.111,505.694 369.804,507.425 374.899,507.228C380.719,507.012 385.697,504.428 390.12,499.33C417.128,468.188 409.832,357.374 407.292,327.285L407.292,327.285Z" style="fill:rgb(63,61,86);fill-rule:nonzero;"/>
        </g>
        <g transform="matrix(1,0,0,1,-157.206,-68.5538)">
            <path d="M390.435,327.743C390.435,327.743 296.17,435.558 304.797,446.913C313.424,458.269 390.435,327.743 390.435,327.743Z" style="fill:rgb(16,0,186);fill-rule:nonzero;"/>
        </g>
        <g transform="matrix(1,0,0,1,-157.206,-68.5538)">
            <path d="M276.438,486.217C275.19,486.238 273.971,485.834 272.982,485.073C271.624,483.969 270.806,482.33 270.74,480.581C268.372,453.797 393.85,314.231 399.192,308.303L411.823,294.288L402.37,310.616C398.341,317.574 303.411,481.092 277.849,486.075C277.384,486.167 276.912,486.215 276.438,486.217ZM388.798,325.927C347.225,373.143 273.032,461.639 274.676,480.233C274.647,480.888 274.917,481.522 275.41,481.955C275.902,482.292 276.525,482.381 277.092,482.196C294.759,478.753 356.472,380.33 388.798,325.927L388.798,325.927Z" style="fill:rgb(63,61,86);fill-rule:nonzero;"/>
        </g>
        <g transform="matrix(1,0,0,1,-157.206,-68.5538)">
            <path d="M362.142,255.143C362.142,255.143 279.959,158.066 203.963,167.474C127.967,176.882 362.142,255.143 362.142,255.143Z" style="fill:rgb(16,0,186);fill-rule:nonzero;"/>
        </g>
        <g transform="matrix(1,0,0,1,-157.206,-68.5538)">
            <path d="M373.096,259.679L366.628,258.201C366.109,258.082 314.168,246.169 262.815,230.972C157.658,199.853 157.319,185.543 157.209,180.841C157.074,175.168 162.849,170.78 174.865,167.426C219.458,154.979 269.81,179.497 304.185,202.263C327.269,217.692 348.805,235.321 368.49,254.902L373.096,259.679ZM200.385,168C192.123,167.958 183.894,169.046 175.927,171.233C166.321,173.914 161.078,177.293 161.159,180.748C161.608,199.72 278.227,233.55 360.698,252.775C341.202,234.074 267.548,168 200.385,168L200.385,168Z" style="fill:rgb(63,61,86);fill-rule:nonzero;"/>
        </g>
        <g transform="matrix(1,0,0,1,-157.206,-68.5538)">
            <path d="M297.908,248.37C297.908,248.37 189.228,240.466 197.132,260.226C205.036,279.986 297.908,248.37 297.908,248.37Z" style="fill:rgb(16,0,186);fill-rule:nonzero;"/>
        </g>
        <g transform="matrix(1,0,0,1,-157.206,-68.5538)">
            <path d="M325.572,175.258C325.572,175.258 319.644,147.594 309.764,153.522C299.884,159.45 325.572,175.258 325.572,175.258Z" style="fill:rgb(16,0,186);fill-rule:nonzero;"/>
        </g>
        <g transform="matrix(1,0,0,1,-157.206,-68.5538)">
            <path d="M425.688,194.832C425.688,194.832 452.803,80.893 440.514,80.475C428.225,80.057 425.688,194.832 425.688,194.832Z" style="fill:rgb(16,0,186);fill-rule:nonzero;"/>
        </g>
        <g transform="matrix(1,0,0,1,-157.206,-68.5538)">
            <path d="M420.642,220.058L420.42,204.927C420.349,200.067 418.842,85.719 433.708,70.631C434.855,69.349 436.484,68.596 438.204,68.554C439.879,68.561 441.453,69.367 442.438,70.722C453.877,85.374 427.373,193.137 424.312,205.377L420.642,220.058ZM438.204,72.506C438.007,72.506 437.409,72.506 436.523,73.405C426.705,83.37 424.426,149.661 424.293,188.648C435.176,142.193 446.268,82.048 439.323,73.154C439.087,72.76 438.663,72.514 438.204,72.506Z" style="fill:rgb(63,61,86);fill-rule:nonzero;"/>
        </g>
        <g transform="matrix(1,0,0,1,-157.206,-68.5538)">
            <path d="M550.836,210.826C550.836,210.826 562.692,181.186 574.548,189.09C586.404,196.994 550.836,210.826 550.836,210.826Z" style="fill:rgb(16,0,186);fill-rule:nonzero;"/>
        </g>
        <g transform="matrix(1,0,0,1,-157.206,-68.5538)">
            <path d="M438.204,473.634C438.204,473.634 422.396,590.218 452.036,588.242C481.676,586.266 438.204,473.634 438.204,473.634Z" style="fill:rgb(16,0,186);fill-rule:nonzero;"/>
        </g>
        <g transform="matrix(1,0,0,1,-157.206,-68.5538)">
            <path d="M520.894,447.121C520.894,447.121 505.748,421.878 505.748,404.208C505.748,404.208 479.243,376.44 486.816,368.868C494.389,361.295 510.797,390.324 510.797,390.324C510.797,390.324 480.505,356.246 489.34,351.197C498.175,346.149 527.205,384.013 527.205,384.013L537.302,378.965C537.302,378.965 515.855,326.068 530.991,324.692C537.933,324.061 553.71,375.178 553.71,375.178L570.118,416.829C570.118,416.829 576.429,431.975 573.904,440.81C572.366,446.212 571.103,451.689 570.118,457.218L520.894,447.121Z" style="fill:rgb(255,185,185);fill-rule:nonzero;"/>
        </g>
        <g transform="matrix(1,0,0,1,-157.206,-68.5538)">
            <path d="M560.021,453.432C560.021,453.432 568.856,439.548 565.658,418.348C562.461,397.149 544.875,385.275 544.875,385.275C544.875,385.275 533.515,394.111 544.875,416.829C544.875,416.829 530.991,429.451 542.35,449.645" style="fill-opacity:0.1;fill-rule:nonzero;"/>
        </g>
        <g transform="matrix(1,0,0,1,-157.206,-68.5538)">
            <path d="M565.069,453.432C565.069,453.432 573.904,439.548 570.707,418.348C567.509,397.149 549.923,385.275 549.923,385.275C549.923,385.275 538.564,394.111 549.923,416.829C549.923,416.829 536.04,429.451 547.399,449.645" style="fill:rgb(255,185,185);fill-rule:nonzero;"/>
        </g>
        <g transform="matrix(1,0,0,1,-157.206,-68.5538)">
            <path d="M530.36,383.382L523.418,372.654C523.418,372.654 490.602,367.605 494.389,378.965C498.175,390.324 513.321,385.276 513.321,385.276L522.156,394.111L530.36,383.382Z" style="fill-opacity:0.1;fill-rule:nonzero;"/>
        </g>
        <g transform="matrix(1,0,0,1,-157.206,-68.5538)">
            <path d="M536.04,382.751L525.942,368.868C525.942,368.868 493.127,363.819 496.913,375.178C500.699,386.538 515.845,381.489 515.845,381.489L524.68,390.324L536.04,382.751Z" style="fill:rgb(255,185,185);fill-rule:nonzero;"/>
        </g>
        <path d="M612.963,480.17L606.652,530.656L705.1,536.967L705.1,476.384L612.963,480.17Z" style="fill:rgb(255,185,185);fill-rule:nonzero;"/>
        <g transform="matrix(1,0,0,1,-157.206,-68.5538)">
            <path d="M1042.79,831.446L962.955,671.77C958.186,655.976 943.291,630.252 897.015,613.725L862.306,584.363L836.432,583.433L732.935,568.288C732.935,568.288 653.42,563.239 601.672,594.793L587.788,588.482C587.788,588.482 565.069,507.704 575.166,449.645L517.107,444.597C517.107,444.597 485.554,582.171 500.699,623.822C515.845,665.473 571.38,695.765 571.38,695.765L620.604,744.989L639.536,830.815L934.88,830.815L939.579,808.297L962.647,830.815L1042.79,831.446Z" style="fill:rgb(207,204,224);fill-rule:nonzero;"/>
        </g>
        <g transform="matrix(1,0,0,1,-157.206,-68.5538)">
            <path d="M931.166,544.944C838.178,570.054 746.784,571.829 657.322,545.331C646.805,542.216 639.616,532.983 639.616,522.503L639.616,261.167C639.616,249.473 648.513,239.498 660.639,237.597C745.032,224.362 834.436,225.387 927.944,238.091C940.299,239.77 949.471,249.859 949.471,261.735L949.471,521.95C949.471,532.65 941.983,542.023 931.166,544.944Z" style="fill:rgb(207,204,224);fill-rule:nonzero;"/>
        </g>
        <g transform="matrix(1,0,0,1,-157.206,-68.5538)">
            <path d="M739.396,366.112C739.396,366.112 718.009,334.853 731.17,326.627C744.332,318.401 764.074,341.434 764.074,341.434C764.074,341.434 788.752,320.047 801.914,328.273C815.076,336.499 788.752,366.112 788.752,366.112C788.752,366.112 808.495,371.048 810.14,384.209C811.785,397.371 818.366,431.92 790.398,433.566C775.415,434.447 767.042,430.135 762.497,425.94C759.091,422.888 753.896,422.826 750.42,425.797C740.935,433.787 723.855,442.998 711.428,420.404C706.492,385.855 739.396,366.112 739.396,366.112Z" style="fill:rgb(63,61,86);fill-rule:nonzero;"/>
        </g>
        <g transform="matrix(1,0,0,1,-157.206,-68.5538)">
            <path d="M897.336,369.403C897.336,369.403 918.724,338.144 905.562,329.918C892.4,321.692 872.658,344.725 872.658,344.725C872.658,344.725 847.98,323.337 834.818,331.563C821.657,339.789 847.98,369.403 847.98,369.403C847.98,369.403 828.237,374.338 826.592,387.5C824.947,400.662 818.366,435.211 846.335,436.856C861.318,437.737 869.691,433.425 874.236,429.231C877.641,426.178 882.836,426.117 886.313,429.088C895.797,437.078 912.878,446.288 925.304,423.694C930.24,389.145 897.336,369.403 897.336,369.403Z" style="fill:rgb(63,61,86);fill-rule:nonzero;"/>
        </g>
        <g transform="matrix(1,0,0,1,-157.206,-68.5538)">
            <path d="M713.431,454.835C713.431,454.835 744.293,479.682 810.103,478.116C875.913,476.549 897.195,473.863 911.262,458.351C925.329,442.84 929.498,460.755 925.13,472.498C920.762,484.242 915.152,504.282 882.368,507.53C860.784,509.668 814.135,510.175 784.778,510.272C761.96,510.461 739.397,505.441 718.811,495.597C718.539,495.465 718.267,495.332 717.997,495.199C705.279,488.917 697.193,475.91 697.188,461.725C697.191,456.19 698.165,453.2 701.768,452.11C708.26,450.146 713.431,454.835 713.431,454.835Z" style="fill:rgb(63,61,86);fill-rule:nonzero;"/>
        </g>
        <g transform="matrix(1,0,0,1,-157.206,-68.5538)">
            <path d="M807.837,568.673C757.538,568.7 707.524,561.113 659.496,546.17C647.332,542.444 638.979,531.124 639.005,518.402L639.005,212.246C638.964,198.067 649.342,185.839 663.338,183.575C753.975,168.636 854.337,168.829 961.635,184.15C975.846,186.249 986.5,198.545 986.553,212.911L986.553,517.755C986.5,530.715 977.829,542.163 965.367,545.725C912.825,560.636 860.881,568.354 810.977,568.664C809.934,568.67 808.881,568.673 807.837,568.673ZM804.34,174.658C757.234,174.501 710.193,178.191 663.687,185.692C650.724,187.788 641.112,199.114 641.151,212.246L641.151,518.402C641.127,530.186 648.866,540.672 660.134,544.121C756.026,573.972 858.523,573.817 964.781,543.661L965.074,544.693L964.781,543.661C976.324,540.364 984.357,529.76 984.407,517.755L984.407,212.911C984.359,199.606 974.493,188.218 961.331,186.274C909.341,178.699 856.879,174.818 804.34,174.658L804.34,174.658Z" style="fill:rgb(63,61,86);fill-rule:nonzero;"/>
        </g>
        <g transform="matrix(1,0,0,1,-157.206,-68.5538)">
            <path d="M797.75,220.052C774.116,220.052 753.891,218.992 737.331,217.556C685.248,213.038 657.182,203.921 656.904,203.829L657.577,201.792C657.852,201.883 685.749,210.937 737.617,215.427C785.489,219.573 864.157,220.565 967.052,201.755L967.437,203.866C899.838,216.223 842.652,220.052 797.75,220.052Z" style="fill:rgb(63,61,86);fill-rule:nonzero;"/>
        </g>
    </g>
</svg>
