<?xml version="1.0" standalone="no"?>
<!DOCTYPE svg PUBLIC "-//W3C//DTD SVG 1.1//EN" 
  "http://www.w3.org/Graphics/SVG/1.1/DTD/svg11.dtd">
<svg width="420px" height="420px" xmlns="http://www.w3.org/2000/svg" version="1.1">
  
  <path d="M410,210 409.887,300.692 409.548,320.493 408.981,333.947 408.184,344.388 407.153,352.992 405.882,360.324 404.366,366.705 402.595,372.334 400.561,377.343 398.249,381.827 395.644,385.854 392.728,389.474 389.474,392.728 385.854,395.644 381.827,398.249 377.343,400.561 372.334,402.595 366.705,404.366 360.324,405.882 352.992,407.153 344.388,408.184 333.947,408.981 320.493,409.548 300.692,409.887 211.179,410 119.308,409.887 99.507,409.548 86.053,408.981 75.612,408.184 67.008,407.153 59.676,405.882 53.295,404.366 47.666,402.595 42.657,400.561 38.173,398.249 34.146,395.644 30.526,392.728 27.272,389.474 24.356,385.854 21.751,381.827 19.439,377.343 17.405,372.334 15.634,366.705 14.118,360.324 12.847,352.992 11.816,344.388 11.019,333.947 10.452,320.493 10.113,300.692 10,211.437 10.113,119.308 10.452,99.507 11.019,86.053 11.816,75.612 12.847,67.008 14.118,59.676 15.634,53.295 17.405,47.666 19.439,42.657 21.751,38.173 24.356,34.146 27.272,30.526 30.526,27.272 34.146,24.356 38.173,21.751 42.657,19.439 47.666,17.405 53.295,15.634 59.676,14.118 67.008,12.847 75.612,11.816 86.053,11.019 99.507,10.452 119.308,10.113 208.387,10 300.692,10.113 320.493,10.452 333.947,11.019 344.388,11.816 352.992,12.847 360.324,14.118 366.705,15.634 372.334,17.405 377.343,19.439 381.827,21.751 385.854,24.356 389.474,27.272 392.728,30.526 395.644,34.146 398.249,38.173 400.561,42.657 402.595,47.666 404.366,53.295 405.882,59.676 407.153,67.008 408.184,75.612 408.981,86.053 409.548,99.507 409.887,119.308 410,208.249 z" style="fill:#00E553;fill-opacity:1;stroke:#000000;stroke-opacity:0.5;stroke-width:1;stroke-miterlimit:4;stroke-dasharray:none" />
  
</svg>
