<?xml version="1.0" encoding="UTF-8" standalone="no"?>
<!DOCTYPE svg PUBLIC "-//W3C//DTD SVG 1.1//EN" "http://www.w3.org/Graphics/SVG/1.1/DTD/svg11.dtd">
<svg width="100%" height="100%" viewBox="0 0 500 500" version="1.1" xmlns="http://www.w3.org/2000/svg" xmlns:xlink="http://www.w3.org/1999/xlink" xml:space="preserve" xmlns:serif="http://www.serif.com/" style="fill-rule:evenodd;clip-rule:evenodd;stroke-linejoin:round;stroke-miterlimit:2;">
    <g transform="matrix(0.873671,0,0,0.873671,31.5822,30.5328)">
        <g transform="matrix(0.414448,0,0,0.414448,-38.7456,124.724)">
            <path d="M310.105,177.436L348.374,215.704C353.808,221.138 356.861,228.509 356.861,236.194L356.861,312.933C356.861,320.619 353.808,327.989 348.374,333.423C334.668,347.129 307.816,373.981 294.11,387.686C288.676,393.121 281.306,396.173 273.621,396.173L196.881,396.173C189.196,396.173 181.826,393.121 176.391,387.686C162.686,373.981 135.834,347.129 122.128,333.423C116.694,327.989 113.641,320.619 113.641,312.933L113.641,236.194C113.641,228.509 116.694,221.138 122.128,215.704C135.834,201.998 162.686,175.147 176.391,161.441C181.826,156.007 189.196,152.954 196.881,152.954L273.621,152.954C281.066,152.954 288.216,155.819 293.596,160.939L293.461,211.34C293.461,211.34 294.613,219.419 283.848,226.717C273.084,234.015 268.114,242.782 268.942,257.093C269.77,271.405 270.17,299.068 271.613,308.721C272.041,311.584 272.421,315.029 277.602,315.011C282.783,314.992 283.861,312.852 284.12,310.155C284.987,301.105 282.806,260.708 282.806,260.708C282.806,260.708 283.137,256.29 288.303,256.29C293.469,256.29 294.568,260.829 294.568,260.829L295.218,311.002C295.218,311.002 295.352,315.259 300.449,315.259C305.545,315.259 305.679,311.002 305.679,311.002L306.33,260.829C306.33,260.829 307.429,256.29 312.595,256.29C317.761,256.29 318.091,260.708 318.091,260.708C318.091,260.708 315.911,301.105 316.778,310.155C317.036,312.852 318.114,314.992 323.295,315.011C328.477,315.029 328.857,311.584 329.285,308.721C330.728,299.068 331.127,271.405 331.955,257.093C332.783,242.782 327.814,234.015 317.049,226.717C306.285,219.419 307.436,211.34 307.436,211.34L310.105,177.436Z"/>
        </g>
        <g transform="matrix(1.00856,0,0,1.00856,-160.361,-40.9742)">
            <path d="M275.674,295.106C275.674,289.123 276.894,283.897 279.335,279.428C281.776,274.958 285.18,271.52 289.547,269.113C293.913,266.707 298.916,265.503 304.554,265.503C311.774,265.503 317.808,267.394 322.656,271.176C327.504,274.958 330.684,280.287 332.197,287.164L313.425,287.164C311.843,282.763 308.783,280.563 304.245,280.563C301.013,280.563 298.434,281.817 296.509,284.327C294.584,286.837 293.621,290.43 293.621,295.106C293.621,299.782 294.584,303.375 296.509,305.884C298.434,308.394 301.013,309.649 304.245,309.649C308.783,309.649 311.843,307.449 313.425,303.048L332.197,303.048C330.684,309.787 327.487,315.081 322.604,318.932C317.722,322.783 311.705,324.708 304.554,324.708C298.916,324.708 293.913,323.505 289.547,321.098C285.18,318.691 281.776,315.253 279.335,310.784C276.894,306.314 275.674,301.088 275.674,295.106Z" style="fill-rule:nonzero;"/>
            <path d="M373.661,308.927L373.661,323.883L364.687,323.883C358.292,323.883 353.307,322.319 349.731,319.19C346.156,316.061 344.368,310.956 344.368,303.873L344.368,280.975L337.354,280.975L337.354,266.329L344.368,266.329L344.368,252.301L362.005,252.301L362.005,266.329L373.558,266.329L373.558,280.975L362.005,280.975L362.005,304.079C362.005,305.798 362.418,307.036 363.243,307.793C364.068,308.549 365.444,308.927 367.369,308.927L373.661,308.927Z" style="fill-rule:nonzero;"/>
            <path d="M379.953,295.003C379.953,289.089 381.07,283.897 383.305,279.428C385.539,274.958 388.582,271.52 392.433,269.113C396.284,266.707 400.581,265.503 405.326,265.503C409.383,265.503 412.941,266.329 416.001,267.979C419.061,269.629 421.416,271.795 423.067,274.477L423.067,266.329L440.704,266.329L440.704,323.883L423.067,323.883L423.067,315.735C421.348,318.416 418.958,320.582 415.898,322.233C412.838,323.883 409.28,324.708 405.223,324.708C400.547,324.708 396.284,323.488 392.433,321.047C388.582,318.606 385.539,315.133 383.305,310.629C381.07,306.125 379.953,300.916 379.953,295.003ZM423.067,295.106C423.067,290.705 421.846,287.232 419.405,284.688C416.964,282.144 413.99,280.872 410.483,280.872C406.976,280.872 404.002,282.127 401.561,284.637C399.12,287.147 397.9,290.602 397.9,295.003C397.9,299.404 399.12,302.893 401.561,305.472C404.002,308.05 406.976,309.34 410.483,309.34C413.99,309.34 416.964,308.068 419.405,305.523C421.846,302.979 423.067,299.507 423.067,295.106Z" style="fill-rule:nonzero;"/>
            <path d="M475.361,265.503C479.418,265.503 482.976,266.329 486.036,267.979C489.096,269.629 491.451,271.795 493.102,274.477L493.102,266.329L510.739,266.329L510.739,323.78C510.739,329.075 509.691,333.871 507.593,338.169C505.496,342.466 502.299,345.887 498.001,348.431C493.703,350.976 488.357,352.248 481.962,352.248C473.435,352.248 466.525,350.236 461.23,346.214C455.935,342.191 452.91,336.742 452.153,329.865L469.585,329.865C470.135,332.066 471.441,333.802 473.504,335.074C475.567,336.346 478.111,336.982 481.137,336.982C484.781,336.982 487.687,335.934 489.853,333.836C492.019,331.739 493.102,328.387 493.102,323.78L493.102,315.632C491.383,318.313 489.01,320.496 485.985,322.181C482.959,323.866 479.418,324.708 475.361,324.708C470.616,324.708 466.319,323.488 462.468,321.047C458.617,318.606 455.574,315.133 453.34,310.629C451.105,306.125 449.987,300.916 449.987,295.003C449.987,289.089 451.105,283.897 453.34,279.428C455.574,274.958 458.617,271.52 462.468,269.113C466.319,266.707 470.616,265.503 475.361,265.503ZM493.102,295.106C493.102,290.705 491.881,287.232 489.44,284.688C486.999,282.144 484.025,280.872 480.518,280.872C477.011,280.872 474.037,282.127 471.596,284.637C469.155,287.147 467.934,290.602 467.934,295.003C467.934,299.404 469.155,302.893 471.596,305.472C474.037,308.05 477.011,309.34 480.518,309.34C484.025,309.34 486.999,308.068 489.44,305.523C491.881,302.979 493.102,299.507 493.102,295.106Z" style="fill-rule:nonzero;"/>
            <path d="M549.728,324.708C544.089,324.708 539.018,323.505 534.514,321.098C530.01,318.691 526.469,315.253 523.89,310.784C521.312,306.314 520.022,301.088 520.022,295.106C520.022,289.192 521.329,283.983 523.942,279.479C526.555,274.976 530.13,271.52 534.669,269.113C539.207,266.707 544.296,265.503 549.934,265.503C555.573,265.503 560.661,266.707 565.199,269.113C569.738,271.52 573.313,274.976 575.926,279.479C578.539,283.983 579.846,289.192 579.846,295.106C579.846,301.019 578.522,306.228 575.875,310.732C573.227,315.236 569.617,318.691 565.045,321.098C560.472,323.505 555.366,324.708 549.728,324.708ZM549.728,309.443C553.097,309.443 555.968,308.205 558.34,305.73C560.713,303.254 561.899,299.713 561.899,295.106C561.899,290.499 560.747,286.957 558.443,284.482C556.14,282.007 553.303,280.769 549.934,280.769C546.496,280.769 543.642,281.989 541.373,284.43C539.104,286.871 537.969,290.43 537.969,295.106C537.969,299.713 539.087,303.254 541.322,305.73C543.556,308.205 546.358,309.443 549.728,309.443Z" style="fill-rule:nonzero;"/>
            <path d="M624.301,265.71C631.04,265.71 636.42,267.893 640.443,272.259C644.466,276.626 646.477,282.625 646.477,290.258L646.477,323.883L628.943,323.883L628.943,292.63C628.943,288.78 627.945,285.788 625.951,283.657C623.957,281.525 621.275,280.459 617.906,280.459C614.537,280.459 611.855,281.525 609.861,283.657C607.867,285.788 606.87,288.78 606.87,292.63L606.87,323.883L589.232,323.883L589.232,266.329L606.87,266.329L606.87,273.961C608.657,271.417 611.064,269.406 614.09,267.927C617.115,266.449 620.519,265.71 624.301,265.71Z" style="fill-rule:nonzero;"/>
        </g>
    </g>
</svg>
