<?xml version="1.0" encoding="UTF-8" standalone="no"?>
<!DOCTYPE svg PUBLIC "-//W3C//DTD SVG 1.1//EN" "http://www.w3.org/Graphics/SVG/1.1/DTD/svg11.dtd">
<svg width="100%" height="100%" viewBox="0 0 500 500" version="1.1" xmlns="http://www.w3.org/2000/svg" xmlns:xlink="http://www.w3.org/1999/xlink" xml:space="preserve" xmlns:serif="http://www.serif.com/" style="fill-rule:evenodd;clip-rule:evenodd;stroke-linejoin:round;stroke-miterlimit:2;">
    <path d="M244.514,0L261.134,0L260.909,377.405C260.909,377.405 257.536,445.36 314.591,445.36C371.646,445.36 369.064,374.252 369.064,374.252C369.064,374.252 352.878,374.446 345.171,373.73C336.822,372.954 321.346,364.372 317.681,315.411C314.015,266.45 315.497,256.551 315.497,256.551L438.167,256.375C438.167,256.375 439.619,289.995 435.577,318.802C432.226,342.676 425.273,368.83 412.108,372.605C404.355,374.828 385.43,374.139 385.43,374.139C385.43,374.139 392.955,461.506 314.498,460.343C271.401,459.704 252.776,424.487 252.776,424.487C252.776,424.487 234.15,459.704 191.054,460.343C112.597,461.506 120.121,374.139 120.121,374.139C120.121,374.139 101.197,374.828 93.444,372.605C80.279,368.83 73.325,342.676 69.975,318.802C65.933,289.995 67.385,256.375 67.385,256.375L190.055,256.551C190.055,256.551 191.537,266.45 187.871,315.411C184.205,364.372 168.73,372.954 160.381,373.73C152.674,374.446 136.488,374.252 136.488,374.252C136.488,374.252 133.906,445.36 190.961,445.36C248.016,445.36 244.643,377.405 244.643,377.405L244.514,0Z" style="fill:rgb(81,188,204);fill-opacity:0.44;"/>
</svg>
