<?xml version="1.0" encoding="UTF-8" standalone="no"?>
<!DOCTYPE svg PUBLIC "-//W3C//DTD SVG 1.1//EN" "http://www.w3.org/Graphics/SVG/1.1/DTD/svg11.dtd">
<svg width="100%" height="100%" viewBox="0 0 500 500" version="1.1" xmlns="http://www.w3.org/2000/svg" xmlns:xlink="http://www.w3.org/1999/xlink" xml:space="preserve" xmlns:serif="http://www.serif.com/" style="fill-rule:evenodd;clip-rule:evenodd;stroke-linejoin:round;stroke-miterlimit:2;">
    <g transform="matrix(1.19139,0,0,1.21134,-50.8429,154.472)">
        <path d="M462.355,68.027C462.355,62.143 459.978,56.5 455.748,52.339C451.517,48.178 445.78,45.841 439.797,45.841L65.233,45.841C59.251,45.841 53.513,48.178 49.282,52.339C45.052,56.5 42.675,62.143 42.675,68.027L42.675,89.697C42.675,95.581 45.052,101.224 49.282,105.385C53.513,109.546 59.251,111.883 65.233,111.883L439.797,111.883C445.78,111.883 451.517,109.546 455.748,105.385C459.978,101.224 462.355,95.581 462.355,89.697L462.355,68.027Z"/>
    </g>
    <g transform="matrix(0.817244,0,0,1.21134,-34.8762,-22.9913)">
        <path d="M462.355,68.027C462.355,62.143 458.89,56.5 452.723,52.339C446.556,48.178 438.191,45.841 429.47,45.841L75.561,45.841C66.839,45.841 58.474,48.178 52.307,52.339C46.14,56.5 42.675,62.143 42.675,68.027C42.675,75.008 42.675,82.716 42.675,89.697C42.675,95.581 46.14,101.224 52.307,105.385C58.474,109.546 66.839,111.883 75.561,111.883L429.47,111.883C438.191,111.883 446.556,109.546 452.723,105.385C458.89,101.224 462.355,95.581 462.355,89.697C462.355,82.716 462.355,75.008 462.355,68.027Z"/>
    </g>
    <g transform="matrix(0.979641,0,0,1.21134,-41.8066,331.935)">
        <path d="M462.355,68.027C462.355,62.143 459.464,56.5 454.32,52.339C449.175,48.178 442.197,45.841 434.921,45.841L70.109,45.841C62.833,45.841 55.855,48.178 50.711,52.339C45.566,56.5 42.675,62.143 42.675,68.027C42.675,75.008 42.675,82.716 42.675,89.697C42.675,95.581 45.566,101.224 50.711,105.385C55.855,109.546 62.833,111.883 70.109,111.883L434.921,111.883C442.197,111.883 449.175,109.546 454.32,105.385C459.464,101.224 462.355,95.581 462.355,89.697C462.355,82.716 462.355,75.008 462.355,68.027Z"/>
    </g>
</svg>
